#N canvas 371 57 851 743 10;
#X obj 33 349 tgl 20 0 empty empty success 25 10 0 10 -258113 -1 -1
0 1;
#X floatatom 549 222 5 0 0 0 - - -;
#X floatatom 588 222 5 0 0 0 - - -;
#X floatatom 627 222 5 0 0 0 - - -;
#X text 22 -22 [spatosc] Creates a spatosc audio scene and allows one
to create sound source nodes and listeners in a 3D virtual audio environment.
;
#N canvas 0 22 290 211 pack3f 0;
#X obj 79 103 pack f f f;
#X obj 99 73 t b f;
#X obj 144 71 t b f;
#X obj 63 44 inlet;
#X obj 110 41 inlet;
#X obj 162 45 inlet;
#X obj 80 137 outlet;
#X connect 0 0 6 0;
#X connect 1 0 0 0;
#X connect 1 1 0 1;
#X connect 2 0 0 0;
#X connect 2 1 0 2;
#X connect 3 0 0 0;
#X connect 4 0 1 0;
#X connect 5 0 2 0;
#X restore 549 242 pd pack3f;
#X obj 33 327 spatosc;
#X msg 74 228 removeTranslator default;
#X msg 87 254 hasTranslator default;
#X obj 27 522 netreceive 31337 1;
#X floatatom 565 321 5 0 0 0 - - -;
#X floatatom 603 320 5 0 0 0 - - -;
#X floatatom 642 320 5 0 0 0 - - -;
#N canvas 0 22 290 211 pack3f 0;
#X obj 79 103 pack f f f;
#X obj 99 73 t b f;
#X obj 144 71 t b f;
#X obj 63 44 inlet;
#X obj 110 41 inlet;
#X obj 162 45 inlet;
#X obj 80 137 outlet;
#X connect 0 0 6 0;
#X connect 1 0 0 0;
#X connect 1 1 0 1;
#X connect 2 0 0 0;
#X connect 2 1 0 2;
#X connect 3 0 0 0;
#X connect 4 0 1 0;
#X connect 5 0 2 0;
#X restore 564 340 pd pack3f;
#X msg 558 298 createListener ear;
#X msg 549 262 setPosition noise \$1 \$2 \$3;
#X msg 564 361 setPosition ear \$1 \$2 \$3;
#X obj 27 563 print viaFudi;
#X obj 122 549 list split 2;
#X obj 122 624 unpack s s;
#X symbolatom 122 651 10 0 0 0 - - -;
#X symbolatom 188 650 10 0 0 0 - - -;
#X obj 258 626 unpack f f f;
#X floatatom 258 650 5 0 0 0 - - -;
#X floatatom 303 651 5 0 0 0 - - -;
#X floatatom 342 650 5 0 0 0 - - -;
#X obj 122 602 list trim;
#X obj 258 605 route xyz;
#X obj 258 584 list trim;
#X text 24 487 If you choose the FudiTranslator \, it's easy to receive
messages with [netreceive]:;
#X text 655 195 <-- Create a sound source;
#X text 706 300 <-- Create a listener;
#X text 226 253 <-- Check if a given translator is running;
#X obj 110 307 r toSpatOSC;
#X msg 533 196 createSource noise;
#X obj 474 572 print from_spatOSC_basicTranslator;
#X obj 34 432 spatosc DmitriTranslator osc.udp://localhost:18033;
#X msg 105 278 debug;
#X msg 33 129 addTranslator fudi FudiTranslator localhost:31337;
#X text 153 279 <- full debug (prints to console only \, not pd window)
;
#X text 87 327 Usage: [spatosc s:translator s:oscUrl];
#X msg 34 407 debug;
#X text 80 412 (note this is a different audio scene);
#X text 86 395 Example object creation using arguments:;
#X obj 511 404 s toSpatOSC;
#X msg 523 171 clearScene;
#X text 617 172 <-- Clear the whole scene;
#X obj 434 -17 cnv 15 250 150 empty empty More_info: 10 12 1 12 -228856
-128992 0;
#N canvas 0 0 847 292 HOW_TO_SET_NODE_PROPERTIES 0;
#X msg 142 -125 setNodeStringProperty noise foo bar;
#X msg 142 -106 removeNodeStringProperty noise foo;
#X msg 154 -25 setNodeFloatProperty noise param 1.4;
#X msg 148 -57 removeNodeIntProperty noise channel;
#X text 369 -125 <-- Add / remove string properties (node must exist)
;
#X text 379 -72 <-- Add / remove int properties (node must exist);
#X msg 162 -4 removeNodeFloatProperty noise param;
#X text 384 -27 <-- Add / remove int properties (node must exist);
#X msg 145 -76 setNodeIntProperty noise channel 4;
#X obj 50 56 s toSpatOSC;
#X connect 0 0 9 0;
#X connect 1 0 9 0;
#X connect 2 0 9 0;
#X connect 3 0 9 0;
#X connect 6 0 9 0;
#X connect 8 0 9 0;
#X restore 462 22 pd HOW_TO_SET_NODE_PROPERTIES;
#N canvas 40 100 450 300 ABOUT_SCHEDULING 0;
#X obj 235 187 bng 15 250 50 0 empty empty output_messages 17 7 0 10
-262144 -1 -1;
#X msg 114 175 setSynchronous \$1;
#X obj 114 149 tgl 15 0 empty empty empty 17 7 0 10 -262144 -1 -1 0
1;
#X obj 165 223 s toSpatOSC;
#X obj 236 132 == 0;
#X obj 236 161 metro 30;
#X text 39 30 By default \, SpatOSC operates in "synchronous" mode
\, meaning that every time a node or connection's state changes \,
an OSC message will go out immediately (well \, only if the value actually
changes). By disabling synchronous mode \, you must manually bang the
object to emit changes via OSC. This can let you manage network load
more precisely.;
#X connect 0 0 3 0;
#X connect 1 0 3 0;
#X connect 2 0 1 0;
#X connect 2 0 4 0;
#X connect 4 0 5 0;
#X connect 5 0 0 0;
#X restore 462 43 pd ABOUT_SCHEDULING;
#N canvas 0 0 450 300 PHYSICAL_MODELLING_FACTORS 0;
#X msg 244 169 0;
#X text 278 166 no effect;
#X msg 254 186 100;
#X text 283 185 normal;
#X text 297 203 more extreme;
#X msg 244 229 setDopplerFactor noise ear \$1;
#X obj 73 241 s toSpatOSC;
#X msg 264 203 200;
#X msg 158 81 0;
#X text 192 78 no effect;
#X msg 168 98 100;
#X text 197 97 normal;
#X text 211 115 more extreme;
#X msg 178 115 200;
#X msg 158 141 setDistanceFactor noise ear \$1;
#X connect 0 0 5 0;
#X connect 2 0 5 0;
#X connect 5 0 6 0;
#X connect 7 0 5 0;
#X connect 8 0 14 0;
#X connect 10 0 14 0;
#X connect 13 0 14 0;
#X connect 14 0 6 0;
#X restore 462 64 pd PHYSICAL_MODELLING_FACTORS;
#N canvas 0 0 450 300 ADVANCED_CONNECTION_FEATURES 0;
#X msg 124 41 \; toSpatOSC setAutoConnect \$1;
#X obj 124 16 tgl 15 0 empty empty auto-connect 17 7 1 12 -262144 -1
-1 0 1;
#X msg 121 150 \; toSpatOSC setConnectFilter \$1;
#X obj 121 125 symbol;
#X msg 120 86 ear;
#X msg 156 87 ignore;
#X connect 1 0 0 0;
#X connect 3 0 2 0;
#X connect 4 0 3 0;
#X connect 5 0 3 0;
#X restore 462 87 pd ADVANCED_CONNECTION_FEATURES;
#X text 20 24 The spatosc library sends spatial audio updates via OpenSoundControl
(OSC) to various spatializers \, as long as there exists a compatible
"translator" (kind of like a plugin) in the library.;
#X text 465 483 Receiving from the BasicTranslator:;
#X obj 452 522 bng 15 250 50 0 empty empty empty 17 7 0 10 -262144
-1 -1;
#X text 20 91 Choose a translator (note \, a "default" translator already
exists);
#X obj 474 543 OSCrx 18032;
#X obj 467 621 OSCrx 9999 tcp;
#X obj 465 652 print from_TCP_basicTranslator;
#X obj 437 593 bng 15 250 50 0 empty empty empty 17 7 0 10 -262144
-1 -1;
#X msg 46 154 addTranslator default BasicTranslator osc.udp://localhost:10832
;
#X text 282 156 <- this is the default one;
#X text 314 168 (already exists);
#X text 552 542 <- default;
#X text 568 619 <- tcpTest;
#X msg 56 192 addTranslator tcpTest BasicTranslator osc.tcp://localhost:9999
;
#X connect 1 0 5 0;
#X connect 2 0 5 1;
#X connect 3 0 5 2;
#X connect 5 0 15 0;
#X connect 6 0 0 0;
#X connect 7 0 6 0;
#X connect 8 0 6 0;
#X connect 9 0 17 0;
#X connect 9 0 18 0;
#X connect 10 0 13 0;
#X connect 11 0 13 1;
#X connect 12 0 13 2;
#X connect 13 0 16 0;
#X connect 14 0 44 0;
#X connect 15 0 44 0;
#X connect 16 0 44 0;
#X connect 18 0 26 0;
#X connect 18 1 28 0;
#X connect 19 0 20 0;
#X connect 19 1 21 0;
#X connect 22 0 23 0;
#X connect 22 1 24 0;
#X connect 22 2 25 0;
#X connect 26 0 19 0;
#X connect 27 0 22 0;
#X connect 28 0 27 0;
#X connect 33 0 6 0;
#X connect 34 0 44 0;
#X connect 37 0 6 0;
#X connect 38 0 6 0;
#X connect 41 0 36 0;
#X connect 45 0 44 0;
#X connect 54 0 56 0;
#X connect 56 0 35 0;
#X connect 57 0 58 0;
#X connect 59 0 57 0;
#X connect 60 0 6 0;
#X connect 65 0 6 0;
