#N canvas 312 233 805 919 10;
#X obj 2 1 cnv 15 500 30 empty empty DSP.plugin:(ar.listener-quad~)
5 15 1 18 -228856 -16662 0;
#X obj 258 7 cnv 20 20 20 empty empty nodeID:(\$2) 5 10 0 12 -233017
-66577 0;
#X obj 13 37 receive~ \$2.plugin~;
#X obj 15 641 send~ \$2.plugout~;
#X floatatom 143 111 5 0 0 1 vmicL-front.channel #2.vmicL-front.channel-set
#2.vmicL-front.channel-put;
#X floatatom 144 223 8 0 0 1 vmicL-front.yaw #2.vmicL-front.yaw-set
#2.vmicL-front.yaw-put;
#X text 13 659 always provide through connection;
#X obj 302 56 namecanvas \$2.plugin.patch;
#X obj 301 88 param-declare \$1 \$2;
#X obj 302 110 param \$2 vmicL-front.channel 1;
#X obj 301 132 param \$2 vmicR-front.channel 2;
#X obj 302 154 param \$2 vmicL-rear.channel 4;
#X obj 302 175 param \$2 vmicR-rear.channel 3;
#X text 539 111 ch1;
#X text 624 113 ch2;
#X text 539 158 ch4;
#X text 626 155 ch3;
#X floatatom 144 136 5 0 0 1 vmicR-front.channel #2.vmicR-front.channel-set
#2.vmicR-front.channel-put;
#X floatatom 144 160 5 0 0 1 vmicL-rear.channel #2.vmicL-rear.channel-set
#2.vmicL-rear.channel-put;
#X floatatom 145 183 5 0 0 1 vmicR-rear.channel #2.vmicR-rear.channel-set
#2.vmicR-rear.channel-put;
#X floatatom 143 286 8 0 0 1 vmicR-front.yaw #2.vmicR-front.yaw-set
#2.vmicR-front.yaw-put;
#X floatatom 143 340 8 0 0 1 vmicL-rear.yaw #2.vmicL-rear.yaw-set #2.vmicL-rear.yaw-put
;
#X floatatom 142 402 8 0 0 1 vmicR-rear.yaw #2.vmicR-rear.yaw-set #2.vmicR-rear.yaw-put
;
#X obj 295 222 param \$2 vmicL-front.yaw 45;
#X obj 294 281 param \$2 vmicR-front.yaw -45;
#X obj 293 339 param \$2 vmicL-rear.yaw 135;
#X obj 290 398 param \$2 vmicR-rear.yaw -135;
#X floatatom 144 251 8 0 0 1 vmicL-front.pitch #2.vmicL-front.pitch-set
#2.vmicL-front.pitch-put;
#X floatatom 143 308 8 0 0 1 vmicR-front.pitch #2.vmicR-front.pitch-set
#2.vmicR-front.pitch-put;
#X floatatom 143 364 8 0 0 1 vmicL-rear.pitch #2.vmicL-rear.pitch-set
#2.vmicL-rear.pitch-put;
#X floatatom 143 426 8 0 0 1 vmicR-rear.pitch #2.vmicR-rear.pitch-set
#2.vmicR-rear.pitch-put;
#X obj 291 422 param \$2 vmicR-rear.pitch 0;
#X obj 293 363 param \$2 vmicL-rear.pitch 0;
#X obj 294 303 param \$2 vmicR-front.pitch 0;
#X obj 295 250 param \$2 vmicL-front.pitch 0;
#X obj 145 516 loadbang;
#X obj 145 539 s \$2-conn.type!;
#X text 248 520 This listener plugin will alert existing or subsequent
connections to its type.;
#X obj 145 565 anyreg \$2-conn.type listener-quad.conn~;
#X floatatom 144 468 4 0 0 1 incidence-exponent #2.exp-set #2.exp-put
;
#X obj 292 465 param \$2 exp 2;
#X text 386 464 sharpness of vmic incidence (0=omni:1=cos():2=cos*cos
etc..);
#X connect 2 0 3 0;
#X connect 35 0 36 0;
#X coords 0 0 1 1 400 400 0;
