#N canvas 0 159 998 781 10;
#X obj 28 71 loadbang;
#X obj 28 123 s connect!;
#X obj 29 98 symbol \$1-\$2.conn;
#X obj 44 178 receive~ \$2.from~;
#X obj 45 623 throw~ \$3.to~;
#X obj 3 2 cnv 15 150 25 empty empty Help: 5 12 1 14 -260097 -16662
0;
#X obj 49 6 AUDIOSCAPE_HELP;
#X obj 4 31 namecanvas \$4.patch;
#X obj 45 581 dsp.connection~;
#X obj 65 399 route bang thru mute;
#X obj 218 456 computeConnection \$4;
#X obj 328 386 bng 15 250 50 0 empty empty empty 17 7 0 10 -262144
-1 -1;
#X obj 216 532 list split 1;
#X obj 414 63 loadbang;
#X obj 355 102 cnv 15 250 25 empty empty empty 20 12 0 14 -257985 -66577
0;
#X symbolatom 414 107 48 0 0 0 nodeID: - -;
#X obj 320 41 r \$1-from-SPIN;
#X obj 320 253 list trim;
#X obj 320 275 s \$1-TO-AUDIORENDERER;
#X obj 320 136 OSCparse /NULL;
#X text 313 310 (so computations can be made);
#X text 274 295 forward messages to parent audio renderer;
#X text 376 200 send the node's control messages;
#X obj 414 81 symbol \$4;
#X obj 388 180 send \$4.nodeMsg;
#X obj 320 234 list prepend call \$4;
#X obj 392 432 tgl 15 0 empty empty empty 17 7 0 10 -262144 -1 -1 0
1;
#X obj 391 457 s \$0-mute;
#X obj 164 582 r \$0-mute;
#X text 227 503 id sinkScaler diffraction_hz srcScaler absorption_hz
dist_ms;
#X text 439 394 WAS id Gain diffraction_hz absorption_hz dist_ms;
#X text 319 13 disabled receiver from SPIN:;
#X obj 67 273 r \$4.mess;
#X text 64 252 sent from AR;
#X connect 0 0 2 0;
#X connect 2 0 1 0;
#X connect 3 0 8 0;
#X connect 8 0 4 0;
#X connect 9 0 10 0;
#X connect 9 1 8 2;
#X connect 9 2 8 3;
#X connect 10 0 12 0;
#X connect 10 1 26 0;
#X connect 11 0 10 0;
#X connect 12 1 8 1;
#X connect 13 0 23 0;
#X connect 15 0 19 1;
#X connect 17 0 18 0;
#X connect 19 0 24 0;
#X connect 19 0 25 0;
#X connect 23 0 15 0;
#X connect 25 0 17 0;
#X connect 26 0 27 0;
#X connect 28 0 8 3;
#X connect 32 0 9 0;
#X coords 0 0 1 1 85 60 0;
