#N canvas 0 30 948 950 10;
#X obj 528 2 cnv 20 20 20 empty empty \$0=$zero 0 12 1 14 -262144 -66577
0;
#X obj 421 157 r \$1-from-SPIN;
#X text 418 143 receiver from SPIN:;
#X obj 25 116 catch~ \$2.to~;
#X obj 40 315 send~ \$2.from~;
#X text 24 161 |;
#X text 24 171 |;
#X text 24 181 |;
#X text 24 191 V;
#X text 24 231 |;
#X text 24 241 |;
#X text 24 251 |;
#X text 24 261 V;
#X text 25 89 DSP chain:;
#X obj 146 717 change1;
#X text 198 718 dynamically generates plugin (in \$0-plug subpatch)
;
#X obj 25 146 send~ \$2.plugin~;
#X text 44 182 plug needs to receive \$2.plugin~;
#X text 45 243 ... and send \$2.plugout~;
#X obj 146 697 symbol;
#X text 154 37 <- Required for 'vis' command;
#X obj 25 278 receive~ \$2.plugout~;
#X obj 146 738 list prepend \$0 \$1 \$2;
#X obj 25 211 DynamicPatchHolder \$0-plug;
#X obj 10 36 namecanvas \$2.patch;
#N canvas 155 507 770 591 envFol 0;
#X obj 121 35 inlet~;
#X obj 120 345 outlet;
#X obj 331 37 inlet;
#X obj 120 129 env~ 8192;
#X obj 120 107 hip~ 5;
#X obj 332 76 switch~;
#X obj 444 79 tgl 15 0 empty empty empty 17 7 0 10 -262144 -1 -1 0
1;
#X obj 120 161 expr .01021408163265* $f1;
#X obj 121 188 change2 0.01;
#X obj 202 266 anyreg vAudioRender_VU_ms;
#X obj 202 238 r vAudioRender_VU_ms!;
#X obj 121 312 speedlim 100;
#X obj 368 145 r \$1-AUDIORENDERER-REFRESH;
#X msg 368 172 0;
#X connect 0 0 4 0;
#X connect 2 0 5 0;
#X connect 3 0 7 0;
#X connect 4 0 3 0;
#X connect 6 0 5 0;
#X connect 7 0 8 0;
#X connect 8 0 11 0;
#X connect 9 0 11 1;
#X connect 10 0 9 0;
#X connect 11 0 1 0;
#X connect 12 0 13 0;
#X connect 13 0 8 0;
#X restore 28 824 pd envFol;
#X obj 27 846 list prepend /\$2 setIntensity;
#X obj 27 872 list trim;
#X obj 114 474 t b f;
#X obj 27 899 s \$1-to-SPIN-client;
#X text 31 923 send to local spin client (not to SPIN Server);
#X obj 86 511 * 1;
#X obj 145 390 send \$2.nodeMsg;
#X text 421 174 disabled;
#X text 290 223 sent from AR;
#X obj 291 240 r \$2;
#X obj 535 21 cnv 20 20 20 empty empty node_name=\$2 0 12 1 14 -262144
-66577 0;
#X obj 88 366 route prop;
#X obj 528 328 list prepend setParam;
#X obj 528 351 list trim;
#X obj 529 391 send \$2.nodeMsg;
#X obj 232 473 s \$2.spread;
#X obj 87 425 route setVUmeterFlag setPlugin setActive setSpread setMediaURI
;
#X obj 323 462 symbol;
#X obj 324 485 symbol2list ://;
#X obj 323 538 route file plugin adc;
#X obj 323 507 list trim;
#X obj 520 704 send \$2.nodeMsg;
#X msg 520 649 setParam inbus \$1;
#X obj 520 581 t f b;
#X msg 411 606 inbus1~;
#X msg 350 605 looper1~;
#X obj 323 574 t a b;
#X obj 323 644 list prepend setParam filename;
#X obj 323 671 list trim;
#X text 434 471 setMediaURI message recalls proper plugin and applies
args...;
#X msg 146 761 bang \; pd-\$1-plug clear \; pd-\$1-plug obj 50 50 \$4
\$2 \$3 \; \$3.plugin.patch loadbang \; renderer.toggleDsp bang;
#X connect 3 0 16 0;
#X connect 14 0 22 0;
#X connect 19 0 14 0;
#X connect 21 0 4 0;
#X connect 21 0 25 0;
#X connect 22 0 56 0;
#X connect 25 0 26 0;
#X connect 26 0 27 0;
#X connect 27 0 29 0;
#X connect 28 0 31 0;
#X connect 28 1 31 1;
#X connect 31 0 25 1;
#X connect 35 0 37 0;
#X connect 37 0 42 0;
#X connect 37 1 32 0;
#X connect 38 0 39 0;
#X connect 39 0 40 0;
#X connect 42 0 31 0;
#X connect 42 1 19 0;
#X connect 42 3 41 0;
#X connect 42 4 43 0;
#X connect 42 5 38 0;
#X connect 43 0 44 0;
#X connect 44 0 46 0;
#X connect 45 0 52 0;
#X connect 45 1 19 0;
#X connect 45 2 49 0;
#X connect 46 0 45 0;
#X connect 48 0 47 0;
#X connect 49 0 48 0;
#X connect 49 1 50 0;
#X connect 50 0 19 0;
#X connect 51 0 19 0;
#X connect 52 0 53 0;
#X connect 52 1 51 0;
#X connect 53 0 54 0;
#X connect 54 0 47 0;
#X coords 0 0 1 1 52 60 0;
