#N canvas 58 126 402 248 12;
#X obj 96 81 bng 15 250 50 0 \$0-open-attenuation empty audio_I/0_attenuation
17 7 1 12 -262144 -1 -1;
#X msg 95 29 \; see-nodes bang;
#X floatatom -48 97 7 0 0 3 spatOSCrx-port spatOSC-port-set spatOSC-port
;
#N canvas 0 256 1021 802 DSP-GRAPH 0;
#X obj 51 93 symbol;
#X msg 288 165 \$1 \$2 \$1-\$2.conn;
#X obj 421 306 bng 15 250 50 0 empty see-nodes see-nodes 17 7 0 10
-262144 -1 -1;
#X obj 51 123 list prepend ar.SoundNode \$0;
#X msg 622 148 \$1 \$2 \$1-\$2.conn;
#X obj 621 177 list prepend ar.SoundConnection \$0;
#X obj 288 194 list prepend ar.ListenerConnection \$0;
#X obj 51 66 r createNode;
#X obj 288 115 r connectListener;
#X obj 288 139 pack s s;
#X msg 51 151 \$3 \$1 \$2 \$3;
#X obj 343 498 ar.dspGen;
#X msg 288 223 \$5 \$1 \$2 \$3 \$4 \$5;
#X obj 623 121 r connectNode;
#X msg 621 206 \$5 \$1 \$2 \$3 \$4 \$5;
#X obj 585 407 symbol;
#X obj 659 291 r deleteNode;
#X obj 660 341 pack s s;
#X obj 660 317 r disconnectListener;
#X msg 660 367 \$1-\$2.conn;
#X obj 587 514 r \$0-to-SPIN;
#X obj 588 611 route setParam;
#X obj 751 579 list split 1;
#X obj 587 542 t a a;
#X obj 752 611 symbol2list /;
#X obj 728 733 send;
#X obj 589 648 list prepend setParam;
#X obj 589 677 list trim;
#X text 582 462 this temporary short-cut eliminates routing params
thru spin (could always update the param-declare abstraction instead)
;
#X obj 149 524 dsp.IO \$0;
#X obj 149 503 r \$0-dspCtl;
#X obj 373 268 r clear;
#X obj 465 261 print \$0-renderer;
#X msg 465 234 "clearing scene";
#X obj 121 606 r pd;
#X obj 122 633 route dsp;
#X obj 122 663 v DSP-STATE;
#X obj 238 589 r renderer.toggleDsp;
#X obj 238 658 v DSP-STATE;
#X obj 238 686 sel 1;
#X obj 238 618 delay 10;
#X text 232 563 if on \, will toggle off/on the dsp (debounced);
#X msg 238 719 \; pd dsp 0 \, dsp 1;
#X obj 588 578 OSCparse /*;
#X connect 0 0 3 0;
#X connect 1 0 6 0;
#X connect 2 0 11 2;
#X connect 3 0 10 0;
#X connect 4 0 5 0;
#X connect 5 0 14 0;
#X connect 6 0 12 0;
#X connect 7 0 0 0;
#X connect 8 0 9 0;
#X connect 9 0 1 0;
#X connect 10 0 11 0;
#X connect 12 0 11 0;
#X connect 13 0 4 0;
#X connect 14 0 11 0;
#X connect 15 0 11 3;
#X connect 16 0 15 0;
#X connect 17 0 19 0;
#X connect 18 0 17 0;
#X connect 19 0 15 0;
#X connect 20 0 23 0;
#X connect 21 0 26 0;
#X connect 22 0 24 0;
#X connect 23 0 43 0;
#X connect 23 1 22 0;
#X connect 24 0 25 1;
#X connect 26 0 27 0;
#X connect 27 0 25 0;
#X connect 30 0 29 0;
#X connect 31 0 11 1;
#X connect 31 0 33 0;
#X connect 33 0 32 0;
#X connect 34 0 35 0;
#X connect 35 0 36 0;
#X connect 37 0 40 0;
#X connect 38 0 39 0;
#X connect 39 0 42 0;
#X connect 40 0 38 0;
#X connect 43 0 21 0;
#X restore -49 40 pd DSP-GRAPH;
#N canvas 0 303 925 480 misc 0;
#X msg 45 247 clear \, obj 161 49 OSCrx \$1 \, obj 161 77 s from_spatosc
\, connect 0 0 1 0;
#X obj 49 23 loadbang;
#X msg 49 50 18032;
#X obj 74 205 print spatOSC-rx;
#X msg 74 173 port \$1;
#X obj 208 55 spigot;
#X obj 208 81 print FROM__SPATOSC;
#X obj 208 29 r from_spatosc;
#X obj 261 56 r \$0-print-mess;
#X obj 44 143 r spatOSC-port;
#X obj 49 80 s spatOSC-port;
#X msg 199 177 set \$1;
#X obj 199 204 s spatOSC-port-set;
#X obj 45 294 s pd-spatOSC-RX;
#N canvas 0 651 450 300 spatOSC-RX 0;
#X obj 161 49 OSCrx 18032;
#X obj 161 77 s from_spatosc;
#X connect 0 0 1 0;
#X restore 44 318 pd spatOSC-RX;
#X obj 484 51 spigot;
#X obj 537 52 r \$0-print-mess;
#X obj 484 77 print RENDERER-RX;
#X obj 484 25 r renderer-RX;
#X obj 668 385 print a.renderer-error;
#X obj 668 356 r printerror;
#X connect 0 0 13 0;
#X connect 1 0 2 0;
#X connect 2 0 10 0;
#X connect 4 0 3 0;
#X connect 5 0 6 0;
#X connect 7 0 5 0;
#X connect 8 0 5 1;
#X connect 9 0 0 0;
#X connect 9 0 4 0;
#X connect 9 0 11 0;
#X connect 11 0 12 0;
#X connect 15 0 17 0;
#X connect 16 0 15 1;
#X connect 18 0 15 0;
#X connect 20 0 19 0;
#X restore -50 66 pd misc;
#X obj 98 107 tgl 15 0 \$0-print-mess empty print-spat-mess 17 7 0
12 -262144 -1 -1 0 1;
#N canvas 97 356 615 690 readme 0;
#X text 51 113 where spatOSC messages are received: spatOSC-port 18032
;
#X text 49 19 when launched from the commandline \, the following arguments
can set the ports for RX messages (spatOSC and render-ctl) to the renderer.
;
#X text 90 74 pd -send "spatOSC-port 18032" -send "renderer-port 18111"
....;
#X text 53 140 and control/config messages are received: renderer-port
18111;
#X text 60 197 defaults are:;
#X text 71 240 renderer-port: 18111;
#X text 48 304 recognized messages to the renderer:;
#X text 75 220 spatOSC-port 18032;
#X text 51 337 /a.renderer/nodemess "node arg1 arg2 arg3..." sends
args to node;
#X text 50 366 /a.renderer/setOutputForamt [mono \, stereo \, quad
\, five.one \, seven.one \, octo \, or dome];
#X text 47 408 /a.renderer/setOutputDB [-999 to + 18 ];
#X text 44 456 note that the dsp state (including audio -properties)
of the renderer can be set using the "nodemess" message with "pd" as
a node" \, e \, g:;
#X text 49 513 /a.renderer/nodemess pd audio-dialog 3 0 0 0 1 0 0 0
7 0 0 0 8 0 0 0 44100 20 0;
#X text 41 627 spatosc_basic-renderer \, written by zack settel \,
spring 2011;
#X restore 99 -5 pd readme;
#N canvas 0 65 1149 828 OSC-RX 0;
#X obj -2 218 list split 1;
#X obj -2 244 symbol2list /;
#X obj -3 272 unpack s s;
#X obj -1 59 OSCparse /spatosc/core;
#X obj -2 189 OSCparse /connection;
#X obj 54 306 list append;
#X obj -3 240 t b s;
#X obj 54 332 anyreg \$0-list;
#X obj 57 391 s;
#X obj 55 358 list trim;
#X obj 116 247 s createNode;
#X obj 399 267 s connectListener;
#X obj 198 248 symbol;
#X obj 707 320 t a a;
#X obj 736 471 anyreg \$0-mess;
#X obj 737 500 list split 1;
#X obj 737 525 symbol2list /;
#X obj 737 551 list split 1;
#X obj 737 577 list trim;
#X obj 612 397 OSCparse /*/prop;
#X obj 613 476 list trim;
#X obj 613 636 send;
#X obj 612 447 t l b;
#X obj 738 600 symbol;
#X obj 613 425 list prepend prop;
#X text 756 320 property messages parsed out and forwarded to node
;
#X text 611 654 prop keyword value;
#X obj 294 266 s deleteNode;
#X obj 160 185 route createSoundSource createListener deleteNode connect
disconnect;
#X obj 413 241 s disconnectListener;
#X obj 0 21 r from_spatosc;
#X obj 32 93 route clear;
#X obj 238 305 t b s;
#X obj 236 664 send;
#X msg 18 556 prop setPlugin ar.listener-\$1~;
#X obj 69 491 r \$0-update-output-format!;
#X obj 18 525 anyreg \$0-output-format stereo;
#X obj 288 349 s createNode;
#X obj 602 188 OSCparse /source;
#X obj 711 218 OSCparse /listener;
#N canvas 0 270 1042 628 renderer-CTl 0;
#X obj 0 197 list split 1;
#X obj 1 225 list trim;
#X obj 2 283 t b s;
#X obj 2 308 list append;
#X obj 1 252 symbol;
#X obj 2 335 list trim;
#X obj 78 337 send;
#X obj 0 109 OSCparse /a.renderer;
#X obj 186 205 OSCparse /setOutputFormat;
#X msg 317 426 quad;
#X msg 257 426 stereo;
#X msg 364 425 five.one;
#X msg 453 427 seven.one;
#X msg 533 429 octo;
#X msg 587 431 dome;
#X obj 718 460 s printerror;
#X msg 717 432 outputFormat \$1 not recognized;
#X obj 193 562 s \$0-update-output-format!;
#X obj 257 519 anyreg \$0-output-format;
#X obj 186 260 t b a;
#X obj 0 169 OSCparse /nodemess;
#X obj 358 260 s \$0-outputGain-set;
#X obj 358 231 OSCparse /setOutputDB;
#X obj 0 21 inlet;
#X obj 184 158 s renderer-RX;
#X obj 256 382 route stereo quad five.one seven.one octo dome mono
;
#X msg 633 430 mono;
#X connect 0 0 1 0;
#X connect 0 1 3 1;
#X connect 1 0 4 0;
#X connect 2 0 3 0;
#X connect 2 1 6 1;
#X connect 3 0 5 0;
#X connect 4 0 2 0;
#X connect 5 0 6 0;
#X connect 7 0 20 0;
#X connect 7 0 24 0;
#X connect 8 0 19 0;
#X connect 8 1 22 0;
#X connect 9 0 18 0;
#X connect 10 0 18 0;
#X connect 11 0 18 0;
#X connect 12 0 18 0;
#X connect 13 0 18 0;
#X connect 14 0 18 0;
#X connect 16 0 15 0;
#X connect 19 0 17 0;
#X connect 19 1 25 0;
#X connect 20 0 0 0;
#X connect 20 1 8 0;
#X connect 22 0 21 0;
#X connect 23 0 7 0;
#X connect 25 0 10 0;
#X connect 25 1 9 0;
#X connect 25 2 11 0;
#X connect 25 3 12 0;
#X connect 25 4 13 0;
#X connect 25 5 14 0;
#X connect 25 6 26 0;
#X connect 25 7 16 0;
#X connect 26 0 18 0;
#X restore 149 88 pd renderer-CTl;
#X obj 670 63 delay 1000;
#X obj 670 31 t b;
#X msg 670 92 \; pd dsp 1;
#X obj 758 63 print CONNECT-LISTENER;
#X obj 435 14 r pd;
#X obj 435 42 route dsp;
#X obj 435 96 print DSP-STATE;
#X obj 435 68 change -1;
#X obj 670 5 r connectListener;
#X msg 32 120 \; pd dsp 0 \; clear bang;
#X connect 0 0 1 0;
#X connect 0 1 5 1;
#X connect 1 0 2 0;
#X connect 2 0 6 0;
#X connect 2 1 5 0;
#X connect 3 0 4 0;
#X connect 3 0 31 0;
#X connect 3 1 40 0;
#X connect 4 0 0 0;
#X connect 4 1 28 0;
#X connect 5 0 7 0;
#X connect 6 0 7 0;
#X connect 6 1 8 1;
#X connect 7 0 9 0;
#X connect 9 0 8 0;
#X connect 12 0 32 0;
#X connect 13 0 19 0;
#X connect 13 1 14 0;
#X connect 14 0 15 0;
#X connect 15 0 16 0;
#X connect 16 0 17 0;
#X connect 17 0 18 0;
#X connect 18 0 23 0;
#X connect 19 0 24 0;
#X connect 20 0 21 0;
#X connect 22 0 20 0;
#X connect 22 1 14 0;
#X connect 23 0 21 1;
#X connect 24 0 22 0;
#X connect 28 0 10 0;
#X connect 28 1 12 0;
#X connect 28 2 27 0;
#X connect 28 3 11 0;
#X connect 28 4 29 0;
#X connect 28 5 38 0;
#X connect 30 0 3 0;
#X connect 31 0 50 0;
#X connect 32 0 36 0;
#X connect 32 1 33 1;
#X connect 32 1 37 0;
#X connect 34 0 33 0;
#X connect 35 0 36 0;
#X connect 36 0 34 0;
#X connect 38 0 13 0;
#X connect 38 1 39 0;
#X connect 39 0 13 0;
#X connect 41 0 43 0;
#X connect 42 0 41 0;
#X connect 42 0 44 0;
#X connect 45 0 46 0;
#X connect 46 0 48 0;
#X connect 48 0 47 0;
#X connect 49 0 42 0;
#X restore -48 12 pd OSC-RX;
