#N canvas 853 132 909 665 10;
#X obj -36 76 tgl 50 0 empty empty success 17 -7 0 10 -258113 -1 -1
1 1;
#X obj -36 18 r to_spatosc;
#X obj 208 37 grid grid1 100 0 199 100 0 199 0 1 1 10 10 254 44;
#X obj 324 37 grid grid1 100 0 199 100 0 199 0 1 1 10 10 369 120;
#X text 213 12 source;
#X text 316 10 listener;
#N canvas 0 351 856 474 dynamic 0;
#X obj 40 36 inlet;
#X obj 102 38 inlet;
#X obj 283 43 inlet;
#X obj 345 45 inlet;
#X floatatom 43 164 5 0 0 0 - - -;
#X floatatom 82 164 5 0 0 0 - - -;
#X floatatom 121 164 5 0 0 0 - - -;
#N canvas 0 22 290 211 pack3f 0;
#X obj 79 103 pack f f f;
#X obj 99 73 t b f;
#X obj 144 71 t b f;
#X obj 63 44 inlet;
#X obj 110 41 inlet;
#X obj 162 45 inlet;
#X obj 80 137 outlet;
#X connect 0 0 6 0;
#X connect 1 0 0 0;
#X connect 1 1 0 1;
#X connect 2 0 0 0;
#X connect 2 1 0 2;
#X connect 3 0 0 0;
#X connect 4 0 1 0;
#X connect 5 0 2 0;
#X restore 43 184 pd pack3f;
#X msg 325 196 \; to_spatosc setPosition ear \$1 \$2 \$3;
#X obj 45 129 - 100;
#X obj 132 136 - 100;
#X floatatom 327 142 5 0 0 0 - - -;
#X floatatom 366 142 5 0 0 0 - - -;
#X floatatom 411 141 5 0 0 0 - - -;
#N canvas 0 22 290 211 pack3f 0;
#X obj 79 103 pack f f f;
#X obj 99 73 t b f;
#X obj 144 71 t b f;
#X obj 63 44 inlet;
#X obj 110 41 inlet;
#X obj 162 45 inlet;
#X obj 80 137 outlet;
#X connect 0 0 6 0;
#X connect 1 0 0 0;
#X connect 1 1 0 1;
#X connect 2 0 0 0;
#X connect 2 1 0 2;
#X connect 3 0 0 0;
#X connect 4 0 1 0;
#X connect 5 0 2 0;
#X restore 327 170 pd pack3f;
#X obj 327 101 - 100;
#X obj 414 108 - 100;
#X msg 42 221 \; to_spatosc setPosition src-0 \$1 \$2 \$3;
#X msg 475 59 \; to_spatosc setOrientation ear 0 0 \$1;
#X obj 488 33 inlet;
#X connect 0 0 9 0;
#X connect 1 0 10 0;
#X connect 2 0 15 0;
#X connect 3 0 16 0;
#X connect 4 0 7 0;
#X connect 5 0 7 1;
#X connect 6 0 7 2;
#X connect 7 0 17 0;
#X connect 9 0 4 0;
#X connect 10 0 5 0;
#X connect 11 0 14 0;
#X connect 12 0 14 1;
#X connect 13 0 14 2;
#X connect 14 0 8 0;
#X connect 15 0 11 0;
#X connect 16 0 12 0;
#X connect 19 0 18 0;
#X restore 280 148 pd dynamic;
#X obj -36 44 spatosc;
#X obj 483 1 cnv 15 380 160 empty empty RENDERER_MESSAGES 4 12 0 16
-191407 -1 0;
#X floatatom 47 62 7 0 0 3 spatOSCrx-port spatOSC-port-set spatOSC-port
;
#N canvas 285 166 966 461 OSC-messaging 0;
#X obj 284 254 OSCtx;
#X obj 11 -46 r to_renderer-db;
#X obj 230 -30 r to_renderer;
#X obj 595 -32 loadbang;
#X obj 10 -13 OSCprepend /a.renderer/nodemess;
#X obj 414 68 pack s f;
#X obj 459 7 r spatOSC-port;
#X obj 415 135 anyreg \$0-temp-addr;
#X obj 483 62 t b;
#X obj 483 89 del 0;
#X msg 283 229 setAddress \$1 \$2;
#X obj 415 218 s to_spatosc;
#X msg 415 176 removeTranslator basic \, addTranslator basic BasicTranslator
\$1 \$2;
#X obj 413 -23 r spatOSCrx-addr;
#X msg 595 -10 \; spatOSC-port 18032 \; spatOSCrx-addr-set symbol localhost
;
#X connect 1 0 4 0;
#X connect 2 0 0 0;
#X connect 3 0 14 0;
#X connect 4 0 0 0;
#X connect 5 0 7 0;
#X connect 6 0 5 1;
#X connect 6 0 8 0;
#X connect 7 0 12 0;
#X connect 7 0 10 0;
#X connect 8 0 9 0;
#X connect 9 0 7 0;
#X connect 10 0 0 0;
#X connect 12 0 11 0;
#X connect 13 0 5 0;
#X connect 13 0 8 0;
#X restore 45 17 pd OSC-messaging;
#X floatatom 379 11 5 0 0 1 orientation - -;
#X obj -37 168 cnv 15 900 480 empty empty SPAT_OSC_MESSAGES 4 12 0
16 -191407 -1 0;
#X obj -32 379 cnv 15 400 260 empty empty setMediaURI 4 12 0 14 -233017
-1 0;
#X msg -21 539 \; to_spatosc setNodeStringProperty src-0 setMediaURI
plugin://testnoise~;
#X msg -20 445 \; to_spatosc setNodeStringProperty src-0 setMediaURI
file://test.aif;
#X msg 10 489 \; to_spatosc setNodeStringProperty src-0 setMediaURI
file://~/svn/ss_demo/sound/sheefa8.aif;
#X msg -18 402 \; to_spatosc setNodeStringProperty src-0 setMediaURI
adc://1;
#X msg 12 589 \; to_spatosc setNodeStringProperty src-0 setMediaURI
plugin://testone~;
#X obj -30 194 cnv 15 400 180 empty empty scene-generation 4 12 0 14
-233017 -1 0;
#X obj -25 243 cnv 15 24 24 empty empty 1 4 12 1 24 -99865 -262144
0;
#X msg 187 196 \; to_spatosc clearScene;
#N canvas 377 29 695 497 temp 0;
#X obj 34 12 bng 15 250 50 0 empty empty empty 17 7 0 10 -262144 -1
-1;
#X obj 86 101 t f b;
#X obj 175 100 random 200;
#X obj 174 127 - 100;
#X obj 248 97 random 200;
#X obj 247 124 - 100;
#X msg 35 339 \; to_spatosc createListener ear \;;
#X obj 34 40 t b b;
#X obj 86 169 pack f f f f;
#X obj 334 96 random 40;
#X obj 333 150 mtof;
#X floatatom 156 37 5 0 0 0 - - -;
#X obj 86 73 iterN 2;
#X obj 333 123 + 60;
#X text 82 306 connects automatically;
#X obj 84 14 inlet;
#X msg 301 368 \; to_spatosc createSource src-\$1 \; to_spatosc setNodeStringProperty
src-\$1 setPlugin testone~ \; to_renderer src-\$1 setParam fq \$4 \;
to_spatosc setPosition src-\$1 \$2 \$3 0;
#X msg 242 448 \; to_renderer /nodemess src-0 setParam fq \$1;
#X floatatom 242 424 5 0 0 0 - - -;
#X msg 85 223 \; to_spatosc createSource src-\$1 \; to_spatosc setNodeStringProperty
src-\$1 setPlugin testone~ \; to_spatosc setNodeFloatProperty src-\$1
fq \$4 \; to_spatosc connect src-\$1 ear \; to_spatosc setPosition
src-\$1 \$2 \$3 0 \; to_spatosc setDopplerFactor src-\$1 ear 10;
#X obj 156 10 inlet node-count;
#X connect 0 0 7 0;
#X connect 1 0 8 0;
#X connect 1 1 2 0;
#X connect 1 1 4 0;
#X connect 1 1 9 0;
#X connect 2 0 3 0;
#X connect 3 0 8 1;
#X connect 4 0 5 0;
#X connect 5 0 8 2;
#X connect 7 0 6 0;
#X connect 7 1 12 0;
#X connect 8 0 19 0;
#X connect 9 0 13 0;
#X connect 10 0 8 3;
#X connect 11 0 12 1;
#X connect 12 0 1 0;
#X connect 13 0 10 0;
#X connect 15 0 0 0;
#X connect 18 0 17 0;
#X connect 20 0 11 0;
#X restore 15 336 pd temp;
#X obj 14 315 bng 15 250 50 0 empty empty generate-nodes 17 7 0 10
-262144 -1 -1;
#X msg 9 244 \; to_spatosc createSource src-0 \, createListener ear
\, setNodeStringProperty src-0 setPlugin testnoise~ \, setDopplerFactor
src-0 ear 10;
#X obj 376 194 cnv 15 400 444 empty empty other 4 12 0 14 -233017 -1
0;
#X msg 386 224 0;
#X text 420 221 no effect;
#X msg 504 225 100;
#X text 533 224 normal;
#X msg 507 250 200;
#X text 540 250 more extreme;
#X msg 388 275 \; to_spatosc setDopplerFactor src-0 ear \$1;
#X floatatom 386 249 5 0 0 0 - - -;
#X msg 388 329 0;
#X text 422 326 no effect;
#X msg 506 330 100;
#X text 535 329 normal;
#X msg 509 355 200;
#X text 542 355 more extreme;
#X floatatom 388 354 5 0 0 0 - - -;
#X msg 390 380 \; to_spatosc setDistanceFactor src-0 ear \$1;
#X msg 425 471 \; to_spatosc setOrientation ear 0 0 \$1;
#X floatatom 388 476 5 0 0 0 - - -;
#X floatatom 388 441 5 0 0 0 - - -;
#X msg 426 432 \; to_spatosc setPosition src-1 0 \$1 0;
#X floatatom 529 97 5 0 0 0 - - -;
#X msg 422 521 \; to_spatosc setNodeFloatProperty src-0 fq \$1;
#X floatatom 389 527 5 0 0 0 - - -;
#X obj 571 120 tgl 15 0 empty empty empty 17 7 0 10 -262144 -1 -1 1
1;
#X obj 501 143 s to_renderer;
#X msg 589 118 /a.renderer/nodemess pd dsp \$1;
#X msg 563 97 /a.renderer/nodemess src-0 setParam fq \$1;
#X floatatom 748 142 5 -60 6 1 _db - -;
#X msg 585 141 /a.renderer/setOutputDB \$1;
#N canvas 457 27 742 283 debug 0;
#X obj -20 9 cnv 15 700 240 empty empty debug 4 12 0 14 -233017 -1
0;
#X msg -8 53 \; to_renderer-db src-0.patch vis 1;
#X msg -8 95 \; to_renderer-db ear.patch vis 1;
#X msg -9 137 \; to_renderer-db src-0-ear.conn.patch vis 1;
#X msg 256 58 \; to_renderer-db src-0.plugin.patch vis 1;
#X msg 254 100 \; to_renderer-db ear.plugin.patch vis 1;
#X msg 256 139 \; to_renderer-db src-0-ear.conn.plugin.patch vis 1
;
#X text 30 33 nodes;
#X text 314 35 plugins;
#X restore 44 38 pd debug;
#X floatatom 64 336 5 1 40 1 node_count - -;
#X obj -28 312 cnv 15 30 24 empty empty or 4 12 1 24 -99865 -262144
0;
#X symbolatom 45 99 24 0 0 3 spatOSCrx-addr spatOSCrx-addr-set spatOSCrx-addr
;
#X msg 503 73 /a.renderer/setOutputFormat \$1;
#X obj 502 54 symbol;
#X msg 552 34 quad;
#X msg 587 35 stereo;
#X msg 632 35 mono;
#X msg 426 586 \; to_spatosc setNodeFloatProperty ear setSpread \$1
;
#X floatatom 392 590 5 0 0 0 - - -;
#X text 427 567 set listener's spread;
#X connect 1 0 7 0;
#X connect 2 0 6 0;
#X connect 2 1 6 1;
#X connect 3 0 6 2;
#X connect 3 1 6 3;
#X connect 7 0 0 0;
#X connect 11 0 6 4;
#X connect 23 0 22 0;
#X connect 26 0 33 0;
#X connect 28 0 33 0;
#X connect 30 0 33 0;
#X connect 33 0 32 0;
#X connect 34 0 40 0;
#X connect 36 0 40 0;
#X connect 38 0 40 0;
#X connect 40 0 41 0;
#X connect 43 0 42 0;
#X connect 44 0 45 0;
#X connect 46 0 52 0;
#X connect 48 0 47 0;
#X connect 49 0 51 0;
#X connect 51 0 50 0;
#X connect 52 0 50 0;
#X connect 53 0 54 0;
#X connect 54 0 50 0;
#X connect 56 0 22 1;
#X connect 59 0 50 0;
#X connect 60 0 59 0;
#X connect 61 0 60 0;
#X connect 62 0 60 0;
#X connect 63 0 60 0;
#X connect 65 0 64 0;
