#N canvas 137 36 1547 996 12;
#X msg 229 56 vis 1;
#X msg 66 226 clear;
#X obj -133 295 list prepend;
#X obj -255 -15 inlet;
#X obj 63 16 inlet;
#X text 106 18 bang to clear;
#X obj 229 20 inlet;
#X text 273 23 bang to open;
#X obj -133 202 t a b;
#X msg -51 260 obj 10 \$1;
#X msg -27 212 50;
#X obj -52 235 f 10;
#X obj -133 321 list trim;
#X obj -133 362 t b a a b;
#X obj -107 754 send;
#X msg -47 597 obj \$1 \$2 pd \$3;
#X msg -241 546 vis 0 \, loadbang;
#X obj -149 484 list split 3;
#X obj -109 667 list prepend obj 20 20;
#X obj -108 689 list trim;
#X obj -77 443 unpack s f f s;
#X msg -82 722 symbol pd-\$1;
#X obj -47 567 pack f f s;
#X obj 72 451 + 1;
#X obj 40 451 f;
#X msg 40 505 set \$1;
#X obj 40 482 makefilename %%s-\$0-%d;
#X obj 18 536 makefilename;
#X obj -47 628 send pd-\$0-SoundNodes;
#X obj -17 235 + 20;
#X obj -273 753 list trim;
#X obj -274 793 coll \$0-nodeState;
#C restore;
#X obj 488 188 coll \$0-nodeState;
#C restore;
#X obj 520 286 send pd-\$0-SoundNodes;
#X msg 519 253 vis 1 \, editmode 1 \, mouse \$1 \$2 0 0 \, cut \, vis
0 \, editmode 0;
#X obj 401 127 t s s;
#X obj 401 102 symbol;
#X obj 488 223 t b l;
#N canvas 0 22 474 437 in-coll-test 0;
#X obj 129 119 coll \$0-nodeState;
#C restore;
#X msg 210 182 0;
#X obj 130 150 t b;
#X msg 129 179 1;
#X obj 96 223 f;
#X obj 105 26 inlet symbol;
#X obj 201 331 outlet NOT-IN-COLL;
#X obj 92 330 outlet IN-COLL;
#X obj 96 253 sel 1 0;
#X obj 105 55 symbol;
#X obj 105 84 t b s b;
#X connect 0 0 2 0;
#X connect 1 0 4 1;
#X connect 2 0 3 0;
#X connect 3 0 4 1;
#X connect 4 0 8 0;
#X connect 5 0 9 0;
#X connect 8 0 7 0;
#X connect 8 1 6 0;
#X connect 9 0 10 0;
#X connect 10 0 4 0;
#X connect 10 1 0 0;
#X connect 10 2 1 0;
#X restore -255 74 pd in-coll-test;
#X obj 399 188 symbol;
#X msg 398 215 delete \$1;
#X obj 402 27 inlet itemName-to-delete;
#X obj -223 40 anyreg \$0-item-list;
#X obj -259 114 anyreg \$0-item-list;
#X obj -259 146 list split 1;
#X obj -255 11 t a a;
#X obj -133 178 list trim;
#X obj -274 695 list append;
#X msg -153 627 \$2 \$3;
#X obj -274 721 list prepend store;
#X obj 86 270 coll \$0-nodeState;
#C restore;
#X obj 229 87 send pd-\$0-SoundNodes;
#X obj 66 302 send pd-\$0-SoundNodes;
#X text -211 -19 list: itemName abstractionName abstraction-arg1 ...
abstraction-argN;
#X text -254 -69 ar.dspGraph;
#X obj 518 357 DynamicPatchHolder \$0-SoundNodes;
#X connect 0 0 51 0;
#X connect 1 0 50 0;
#X connect 1 0 52 0;
#X connect 2 0 12 0;
#X connect 3 0 45 0;
#X connect 4 0 1 0;
#X connect 4 0 10 0;
#X connect 6 0 0 0;
#X connect 8 0 2 0;
#X connect 8 1 11 0;
#X connect 9 0 2 1;
#X connect 10 0 11 1;
#X connect 11 0 9 0;
#X connect 11 0 29 0;
#X connect 12 0 13 0;
#X connect 13 0 16 0;
#X connect 13 1 17 0;
#X connect 13 2 20 0;
#X connect 13 3 24 0;
#X connect 15 0 28 0;
#X connect 16 0 14 0;
#X connect 17 0 48 0;
#X connect 17 1 18 0;
#X connect 18 0 19 0;
#X connect 19 0 14 0;
#X connect 20 1 22 0;
#X connect 20 2 22 1;
#X connect 20 3 27 0;
#X connect 21 0 14 1;
#X connect 22 0 15 0;
#X connect 23 0 24 1;
#X connect 24 0 23 0;
#X connect 24 0 26 0;
#X connect 25 0 27 0;
#X connect 26 0 25 0;
#X connect 27 0 21 0;
#X connect 27 0 22 2;
#X connect 29 0 11 1;
#X connect 30 0 31 0;
#X connect 32 0 37 0;
#X connect 34 0 33 0;
#X connect 35 0 32 0;
#X connect 35 1 39 1;
#X connect 36 0 35 0;
#X connect 37 0 39 0;
#X connect 37 1 34 0;
#X connect 38 1 43 0;
#X connect 39 0 40 0;
#X connect 40 0 32 0;
#X connect 41 0 36 0;
#X connect 43 0 44 0;
#X connect 44 0 47 0;
#X connect 44 1 46 0;
#X connect 45 0 38 0;
#X connect 45 1 42 0;
#X connect 46 0 8 0;
#X connect 47 0 49 0;
#X connect 48 0 47 1;
#X connect 49 0 30 0;
