#N canvas 0 367 1316 683 10;
#X obj 28 71 loadbang;
#X obj 28 123 s connect!;
#X obj 29 98 symbol \$1-\$2.conn;
#X obj 3 2 cnv 15 160 25 empty empty Help: 5 12 1 14 -260097 -16662
0;
#X obj 206 156 route list;
#X text 294 66 <- note \, these coeffs will be different than the normal
connection (still to be done);
#X obj 449 337 change1;
#X text 396 434 dynamically generates plugin (in \$0-plug subpatch)
;
#X obj 449 317 symbol;
#X obj 60 200 DynamicPatchHolder \$0-plug;
#X obj 449 358 list prepend \$0 \$1 \$2 \$3 \$4;
#X msg 449 381 \; pd-\$1-plug clear \; pd-\$1-plug obj 50 50 \$6 \$2
\$3 \$4 \$5 \; \$5.plugin.patch loadbang \;;
#X text 388 475 plugin needs [namecanvas \$4.plugin.patch];
#X obj 264 244 route setThru mute setType;
#X text 25 334 [receive~ \$2.from~] is how to receive audio from the
source \, and should be defined in the plugin patch;
#X text 385 492 ie \, [namecanvas src-snk.conn.plugin.patch];
#X obj 49 6 AUDIOSCAPE_HELP;
#X obj 4 31 namecanvas \$4.patch;
#X obj 870 121 loadbang;
#X obj 811 160 cnv 15 250 25 empty empty empty 20 12 0 14 -257985 -66577
0;
#X symbolatom 870 165 48 0 0 0 nodeID: - -;
#X obj 776 99 r \$1-from-SPIN;
#X obj 776 356 list trim;
#X obj 776 378 s \$1-TO-AUDIORENDERER;
#X obj 776 194 OSCparse /NULL;
#X text 769 413 (so computations can be made);
#X text 730 398 forward messages to parent audio renderer;
#X text 761 74 receiver from SPIN:;
#X text 832 258 send the node's control messages;
#X obj 870 139 symbol \$4;
#X obj 844 238 send \$4.nodeMsg;
#X obj 776 337 list prepend call \$4;
#X text 210 51 from AR;
#X obj 325 146 send \$4.nodeMsg;
#X obj 206 75 receive \$4;
#X obj 459 101 loadbang;
#X obj 459 192 symbol;
#X obj 459 126 anyreg \$3-conn.type;
#X msg 459 217 setType ar.\$1;
#X text 465 144 set in listener plugin;
#X connect 0 0 2 0;
#X connect 2 0 1 0;
#X connect 4 1 13 0;
#X connect 6 0 10 0;
#X connect 8 0 6 0;
#X connect 10 0 11 0;
#X connect 13 2 8 0;
#X connect 18 0 29 0;
#X connect 20 0 24 1;
#X connect 21 0 24 0;
#X connect 22 0 23 0;
#X connect 24 0 30 0;
#X connect 24 0 31 0;
#X connect 29 0 20 0;
#X connect 31 0 22 0;
#X connect 34 0 4 0;
#X connect 34 0 33 0;
#X connect 35 0 37 0;
#X connect 36 0 38 0;
#X connect 37 0 36 0;
#X connect 38 0 13 0;
#X coords 0 0 1 1 85 60 0;
