#N canvas 0 413 891 559 10;
#X obj 2 1 cnv 15 500 30 empty empty DSP.plugin:(listener-stereo~)
5 15 1 18 -228856 -16662 0;
#X obj 258 7 cnv 20 20 20 empty empty nodeID:(\$2) 5 10 0 12 -233017
-66577 0;
#X text 144 333 more help:;
#X obj 13 37 receive~ \$2.plugin~;
#X obj 16 369 send~ \$2.plugout~;
#X obj 219 333 AUDIOSCAPE_HELP;
#X floatatom 75 83 5 0 0 1 vmicL.channel #2.vmicL.channel-set #2.vmicL.channel-put
;
#X floatatom 75 103 5 0 0 1 vmicR.channel #2.vmicR.channel-set #2.vmicR.channel-put
;
#X floatatom 69 167 8 0 0 1 vmicR.yaw #2.vmicR.yaw-set #2.vmicR.yaw-put
;
#X floatatom 68 146 8 0 0 1 vmicL.yaw #2.vmicL.yaw-set #2.vmicL.yaw-put
;
#X obj 221 237 deg2rad;
#X floatatom 220 216 5 0 0 0 - - -;
#X floatatom 221 259 8 0 0 0 - - -;
#X text 14 387 always provide through connection;
#X obj 358 327 s \$1-to-SPIN;
#X obj 358 300 list trim;
#X obj 357 274 anyreg \$0-temp /\$2 setType listener-stereo.conn~;
#X text 419 245 assign listener-type plugin for connection;
#X obj 302 56 namecanvas \$2.plugin.patch;
#X obj 357 248 del 0;
#X obj 357 223 loadbang;
#X obj 301 88 param-declare \$1 \$2;
#X obj 302 110 param \$2 vmicL.channel 1;
#X obj 301 132 param \$2 vmicR.channel 2;
#X obj 301 156 param \$2 vmicL.yaw 60;
#X obj 301 178 param \$2 vmicR.yaw -60;
#X obj 470 345 loadbang;
#X obj 470 394 anyreg \$2-conn.type listener-stereo.conn~;
#X obj 470 368 s \$2-conn.type!;
#X connect 3 0 4 0;
#X connect 10 0 12 0;
#X connect 11 0 10 0;
#X connect 15 0 14 0;
#X connect 16 0 15 0;
#X connect 19 0 16 0;
#X connect 20 0 19 0;
#X connect 26 0 28 0;
#X coords 0 0 1 1 400 400 0;
