#N canvas 455 83 882 809 10;
#X obj 547 142 loadbang;
#X obj 547 160 symbol \$2;
#X obj 492 181 cnv 15 250 25 empty empty empty 20 12 0 14 -257985 -66577
0;
#X symbolatom 547 186 24 0 0 0 nodeID: - -;
#X obj 528 2 cnv 20 20 20 empty empty \$0=$zero 0 12 1 14 -262144 -66577
0;
#X obj 421 157 r \$1-from-SPIN;
#X obj 466 372 list trim;
#X obj 466 394 s \$1-TO-AUDIORENDERER;
#X obj 466 261 OSCparse /NULL;
#X text 459 429 (so computations can be made);
#X text 420 414 forward messages to parent audio renderer;
#X text 418 143 receiver from SPIN:;
#X obj 25 116 catch~ \$2.to~;
#X obj 40 315 send~ \$2.from~;
#X text 24 161 |;
#X text 24 171 |;
#X text 24 181 |;
#X text 24 191 V;
#X text 24 231 |;
#X text 24 241 |;
#X text 24 251 |;
#X text 24 261 V;
#X text 25 89 DSP chain:;
#X obj 166 545 change1;
#X obj 534 305 send \$2.nodeMsg;
#X text 233 538 dynamically generates plugin (in \$0-plug subpatch)
;
#X obj 25 146 send~ \$2.plugin~;
#X text 44 182 plug needs to receive \$2.plugin~;
#X text 45 243 ... and send \$2.plugout~;
#X obj 166 525 symbol;
#X obj 4 4 cnv 15 165 25 empty empty Help: 5 12 1 14 -260097 -16662
0;
#X text 522 325 send the node's control messages;
#X text 154 37 <- Required for 'vis' command;
#X obj 25 278 receive~ \$2.plugout~;
#X obj 166 566 list prepend \$0 \$1 \$2;
#X msg 166 589 \; pd-\$1-plug clear \; pd-\$1-plug obj 50 50 \$4 \$2
\$3 \; \$3.plugin.patch loadbang \;;
#X obj 466 353 list prepend call \$2;
#X obj 25 211 DynamicPatchHolder \$0-plug;
#X obj 10 36 namecanvas \$2.patch;
#X obj 50 8 AUDIOSCAPE_HELP;
#N canvas 155 507 770 591 envFol 0;
#X obj 121 35 inlet~;
#X obj 120 345 outlet;
#X obj 331 37 inlet;
#X obj 120 129 env~ 8192;
#X obj 120 107 hip~ 5;
#X obj 332 76 switch~;
#X obj 444 79 tgl 15 0 empty empty empty 17 7 0 10 -262144 -1 -1 0
1;
#X obj 120 161 expr .01021408163265* $f1;
#X obj 121 188 change2 0.01;
#X obj 202 266 anyreg vAudioRender_VU_ms;
#X obj 202 238 r vAudioRender_VU_ms!;
#X obj 121 312 speedlim 100;
#X obj 368 145 r \$1-AUDIORENDERER-REFRESH;
#X msg 368 172 0;
#X connect 0 0 4 0;
#X connect 2 0 5 0;
#X connect 3 0 7 0;
#X connect 4 0 3 0;
#X connect 6 0 5 0;
#X connect 7 0 8 0;
#X connect 8 0 11 0;
#X connect 9 0 11 1;
#X connect 10 0 9 0;
#X connect 11 0 1 0;
#X connect 12 0 13 0;
#X connect 13 0 8 0;
#X restore 28 661 pd envFol;
#X obj 27 683 list prepend /\$2 setIntensity;
#X obj 27 709 list trim;
#X obj 114 444 t b f;
#X obj 27 736 s \$1-to-SPIN-client;
#X text 169 735 send to local spin client (not to SPIN Server);
#X obj 86 481 * 1;
#X obj 291 269 send \$2.nodeMsg;
#X text 421 174 disabled;
#X text 290 209 sent from AR;
#X obj 291 240 r \$2;
#X obj 87 395 route setVUmeterFlag setPlugin setActive;
#X connect 0 0 1 0;
#X connect 1 0 3 0;
#X connect 3 0 8 1;
#X connect 6 0 7 0;
#X connect 8 0 24 0;
#X connect 8 0 36 0;
#X connect 8 0 51 0;
#X connect 12 0 26 0;
#X connect 23 0 34 0;
#X connect 29 0 23 0;
#X connect 33 0 13 0;
#X connect 33 0 40 0;
#X connect 34 0 35 0;
#X connect 36 0 6 0;
#X connect 40 0 41 0;
#X connect 41 0 42 0;
#X connect 42 0 44 0;
#X connect 43 0 46 0;
#X connect 43 1 46 1;
#X connect 46 0 40 1;
#X connect 50 0 47 0;
#X connect 50 0 51 0;
#X connect 51 0 46 0;
#X connect 51 1 29 0;
#X connect 51 2 43 0;
#X coords 0 0 1 1 52 60 0;
