#N canvas 254 31 1016 846 10;
#X msg 501 158 clearScene;
#X floatatom 498 -12 5 0 0 0 - - -;
#X floatatom 537 -12 5 0 0 0 - - -;
#X floatatom 576 -12 5 0 0 0 - - -;
#N canvas 0 22 290 211 pack3f 0;
#X obj 79 103 pack f f f;
#X obj 99 73 t b f;
#X obj 144 71 t b f;
#X obj 63 44 inlet;
#X obj 110 41 inlet;
#X obj 162 45 inlet;
#X obj 80 137 outlet;
#X connect 0 0 6 0;
#X connect 1 0 0 0;
#X connect 1 1 0 1;
#X connect 2 0 0 0;
#X connect 2 1 0 2;
#X connect 3 0 0 0;
#X connect 4 0 1 0;
#X connect 5 0 2 0;
#X restore 498 8 pd pack3f;
#X msg 499 247 removeTranslator spatdif;
#X msg 499 269 removeTranslator default;
#X msg 497 291 hasTranslator default;
#X msg 497 203 addTranslator fudi FudiTranslator localhost 31337;
#X floatatom 500 86 5 0 0 0 - - -;
#X floatatom 539 86 5 0 0 0 - - -;
#X floatatom 578 86 5 0 0 0 - - -;
#N canvas 0 22 290 211 pack3f 0;
#X obj 79 103 pack f f f;
#X obj 99 73 t b f;
#X obj 144 71 t b f;
#X obj 63 44 inlet;
#X obj 110 41 inlet;
#X obj 162 45 inlet;
#X obj 80 137 outlet;
#X connect 0 0 6 0;
#X connect 1 0 0 0;
#X connect 1 1 0 1;
#X connect 2 0 0 0;
#X connect 2 1 0 2;
#X connect 3 0 0 0;
#X connect 4 0 1 0;
#X connect 5 0 2 0;
#X restore 500 106 pd pack3f;
#X msg 498 -38 createSource noise;
#X msg 497 63 createListener ear;
#X msg 498 28 setPosition noise \$1 \$2 \$3;
#X msg 500 127 setPosition ear \$1 \$2 \$3;
#X msg 502 330 setNodeStringProperty noise foo bar;
#X msg 500 351 removeNodeStringProperty noise foo;
#X text 502 374 If you choose the FudiTranslator \, it's easy to receive
messages with [netreceive]:;
#X text 666 -41 <-- Create a sound source;
#X text 674 62 <-- Create a listener;
#X text 666 157 <-- Clear the whole scene;
#X text 494 186 Choose a translator \, which sends messages about the
scene;
#X text 638 291 <-- Check if a given translator is running;
#X text 730 329 <-- Add properties;
#X obj -105 -42 OSCrx 18032;
#X msg 498 223 addTranslator spatdif SpatdifTranslator;
#N canvas 0 64 887 877 dynload 0;
#X msg 229 66 vis 1;
#X msg 43 281 clear;
#X obj -182 147 list prepend;
#X obj -182 -8 inlet;
#X text -300 -36 list: abstract name with args to load;
#X obj 42 3 inlet;
#X text 85 5 bang to clear;
#X obj 229 35 inlet;
#X text 273 38 bang to open;
#X obj -183 31 t a b;
#X msg -100 112 obj 10 \$1;
#X obj -36 235 sel 0;
#X text -301 -104 arg1: <opt> multi-obj-flag (when non-zero \, the
object will not delete current instance before instantiating another:
;
#X text -299 -75 note: the value of the flag is used as an incremental
offset the position of each instance on the canvas;
#X msg -76 64 50;
#X obj -101 87 f 10;
#X obj -182 173 list trim;
#X obj -182 204 t b a a b;
#X obj -184 578 send;
#X msg -109 424 obj \$1 \$2 pd \$3;
#X msg -318 370 vis 0 \, loadbang;
#X obj -226 308 list split 3;
#X obj -186 491 list prepend obj 20 20;
#X obj -185 513 list trim;
#X obj -140 279 unpack s f f s;
#X msg -158 555 symbol pd-\$1;
#X obj -110 403 pack f f s;
#X obj 9 287 + 1;
#X obj -23 287 f;
#X msg -23 341 set \$1;
#X obj -23 318 makefilename %%s-\$0-%d;
#X obj -45 372 makefilename;
#X obj -136 593 anyreg __dynload_temp_parent;
#X text -211 653 points to loaded patch's parent patcher ONLY at the
exact time the patch is loaded;
#X obj 42 521 send pd-\$0-SoundNodes;
#X obj -36 213 expr 1;
#X obj -66 87 + 20;
#X connect 0 0 34 0;
#X connect 1 0 34 0;
#X connect 2 0 16 0;
#X connect 3 0 9 0;
#X connect 5 0 1 0;
#X connect 5 0 14 0;
#X connect 7 0 0 0;
#X connect 9 0 2 0;
#X connect 9 1 15 0;
#X connect 10 0 2 1;
#X connect 11 0 1 0;
#X connect 14 0 15 1;
#X connect 15 0 10 0;
#X connect 15 0 36 0;
#X connect 16 0 17 0;
#X connect 17 0 20 0;
#X connect 17 1 21 0;
#X connect 17 2 24 0;
#X connect 17 3 28 0;
#X connect 17 3 35 0;
#X connect 19 0 34 0;
#X connect 20 0 18 0;
#X connect 21 1 22 0;
#X connect 22 0 23 0;
#X connect 23 0 18 0;
#X connect 24 1 26 0;
#X connect 24 2 26 1;
#X connect 24 3 31 0;
#X connect 25 0 18 1;
#X connect 25 0 32 0;
#X connect 26 0 19 0;
#X connect 27 0 28 1;
#X connect 28 0 27 0;
#X connect 28 0 30 0;
#X connect 29 0 31 0;
#X connect 30 0 29 0;
#X connect 31 0 25 0;
#X connect 31 0 26 2;
#X connect 35 0 11 0;
#X connect 36 0 15 1;
#X restore -96 567 pd dynload SoundNodes;
#N canvas 0 64 875 865 dynload 0;
#X msg 229 66 vis 1;
#X msg 43 281 clear;
#X obj -182 147 list prepend;
#X obj -182 -8 inlet;
#X text -300 -36 list: abstract name with args to load;
#X obj 42 3 inlet;
#X text 85 5 bang to clear;
#X obj 229 35 inlet;
#X text 273 38 bang to open;
#X obj -183 31 t a b;
#X msg -100 112 obj 10 \$1;
#X obj -36 235 sel 0;
#X text -301 -104 arg1: <opt> multi-obj-flag (when non-zero \, the
object will not delete current instance before instantiating another:
;
#X text -299 -75 note: the value of the flag is used as an incremental
offset the position of each instance on the canvas;
#X msg -76 64 50;
#X obj -101 87 f 10;
#X obj -182 173 list trim;
#X obj -182 204 t b a a b;
#X obj -184 578 send;
#X msg -109 424 obj \$1 \$2 pd \$3;
#X msg -318 370 vis 0 \, loadbang;
#X obj -226 308 list split 3;
#X obj -186 491 list prepend obj 20 20;
#X obj -185 513 list trim;
#X obj -140 279 unpack s f f s;
#X msg -158 555 symbol pd-\$1;
#X obj -110 403 pack f f s;
#X obj 9 287 + 1;
#X obj -23 287 f;
#X msg -23 341 set \$1;
#X obj -23 318 makefilename %%s-\$0-%d;
#X obj -45 372 makefilename;
#X obj -136 593 anyreg __dynload_temp_parent;
#X text -197 641 points to loaded patch's parent patcher ONLY at the
exact time the patch is loaded;
#X obj -36 213 expr 1;
#X obj 42 521 send pd-\$0-SoundConnections;
#X obj -65 87 + 20;
#X connect 0 0 35 0;
#X connect 1 0 35 0;
#X connect 2 0 16 0;
#X connect 3 0 9 0;
#X connect 5 0 1 0;
#X connect 5 0 14 0;
#X connect 7 0 0 0;
#X connect 9 0 2 0;
#X connect 9 1 15 0;
#X connect 10 0 2 1;
#X connect 11 0 1 0;
#X connect 14 0 15 1;
#X connect 15 0 10 0;
#X connect 15 0 36 0;
#X connect 16 0 17 0;
#X connect 17 0 20 0;
#X connect 17 1 21 0;
#X connect 17 2 24 0;
#X connect 17 3 28 0;
#X connect 17 3 34 0;
#X connect 19 0 35 0;
#X connect 20 0 18 0;
#X connect 21 1 22 0;
#X connect 22 0 23 0;
#X connect 23 0 18 0;
#X connect 24 1 26 0;
#X connect 24 2 26 1;
#X connect 24 3 31 0;
#X connect 25 0 18 1;
#X connect 25 0 32 0;
#X connect 26 0 19 0;
#X connect 27 0 28 1;
#X connect 28 0 27 0;
#X connect 28 0 30 0;
#X connect 29 0 31 0;
#X connect 30 0 29 0;
#X connect 31 0 25 0;
#X connect 31 0 26 2;
#X connect 34 0 11 0;
#X connect 36 0 15 1;
#X restore 109 587 pd dynload SoundConnections;
#X obj 462 537 tgl 50 0 empty empty success 17 -7 0 10 -258113 -1 -1
1 1;
#X text 546 533 Usage: [spatosc s:translator f:port s:host];
#X text 548 550 The arguments are not mandatory. You can provide none
of \, only one \, two or all three. The default translator simply prints
to the console.;
#X obj 462 505 spatosc SpatdifTranslator 18032 localhost;
#X obj 462 481 r to_spatosc;
#X obj 468 456 s to_spatosc;
#X obj 598 723 r to_spatosc;
#X obj 597 747 route createListener createSource connect;
#X obj -93 483 symbol;
#X obj -95 526 list trim;
#X obj 109 552 list trim;
#X msg 111 499 \$1 \$2 \$1-\$2.conn;
#X obj -92 462 r \$0-createNode;
#X obj 260 34 s \$0-createNode;
#X obj 45 535 bng 15 250 50 0 empty empty empty 17 7 0 10 -262144 -1
-1;
#X obj 233 554 bng 15 250 50 0 empty empty empty 17 7 0 10 -262144
-1 -1;
#X obj -94 502 list prepend ar.SoundNode \$0;
#X obj -27 -43 cnv 20 20 20 empty empty \$0=$zero 0 12 1 14 -262144
-66577 0;
#X obj 345 754 list prepend spin.SoundConnection \$0;
#X floatatom 189 146 5 0 0 0 - - -;
#X obj 84 423 r clear-all;
#X msg 701 129 \; clear-all bang;
#X msg 281 -23 ear;
#X msg 261 -50 sndNode1;
#X msg -85 122 \; sndNode1-ear.conn.patch vis 1;
#X msg -85 67 list sndNode1 ear;
#X msg 330 -20 \; ear.patch vis 1;
#X msg 330 -54 \; sndNode1.patch vis 1;
#X msg 224 104 \; sndNode1.plugin.patch vis 1;
#X msg 413 650 setType listener-stereo.conn~;
#N canvas 0 64 875 865 dynload 0;
#X msg 229 66 vis 1;
#X msg 43 281 clear;
#X obj -182 147 list prepend;
#X obj -182 -8 inlet;
#X text -300 -36 list: abstract name with args to load;
#X obj 42 3 inlet;
#X text 85 5 bang to clear;
#X obj 229 35 inlet;
#X text 273 38 bang to open;
#X obj -183 31 t a b;
#X msg -100 112 obj 10 \$1;
#X obj -36 235 sel 0;
#X text -301 -104 arg1: <opt> multi-obj-flag (when non-zero \, the
object will not delete current instance before instantiating another:
;
#X text -299 -75 note: the value of the flag is used as an incremental
offset the position of each instance on the canvas;
#X msg -76 64 50;
#X obj -101 87 f 10;
#X obj -182 173 list trim;
#X obj -182 204 t b a a b;
#X obj -184 578 send;
#X msg -109 424 obj \$1 \$2 pd \$3;
#X msg -318 370 vis 0 \, loadbang;
#X obj -226 308 list split 3;
#X obj -186 491 list prepend obj 20 20;
#X obj -185 513 list trim;
#X obj -140 279 unpack s f f s;
#X msg -158 555 symbol pd-\$1;
#X obj -110 403 pack f f s;
#X obj 9 287 + 1;
#X obj -23 287 f;
#X msg -23 341 set \$1;
#X obj -23 318 makefilename %%s-\$0-%d;
#X obj -45 372 makefilename;
#X obj -136 593 anyreg __dynload_temp_parent;
#X text -197 641 points to loaded patch's parent patcher ONLY at the
exact time the patch is loaded;
#X obj -36 213 expr 1;
#X obj 42 521 send pd-\$0-SoundConnections;
#X obj -65 87 + 20;
#X connect 0 0 35 0;
#X connect 1 0 35 0;
#X connect 2 0 16 0;
#X connect 3 0 9 0;
#X connect 5 0 1 0;
#X connect 5 0 14 0;
#X connect 7 0 0 0;
#X connect 9 0 2 0;
#X connect 9 1 15 0;
#X connect 10 0 2 1;
#X connect 11 0 1 0;
#X connect 14 0 15 1;
#X connect 15 0 10 0;
#X connect 15 0 36 0;
#X connect 16 0 17 0;
#X connect 17 0 20 0;
#X connect 17 1 21 0;
#X connect 17 2 24 0;
#X connect 17 3 28 0;
#X connect 17 3 34 0;
#X connect 19 0 35 0;
#X connect 20 0 18 0;
#X connect 21 1 22 0;
#X connect 22 0 23 0;
#X connect 23 0 18 0;
#X connect 24 1 26 0;
#X connect 24 2 26 1;
#X connect 24 3 31 0;
#X connect 25 0 18 1;
#X connect 25 0 32 0;
#X connect 26 0 19 0;
#X connect 27 0 28 1;
#X connect 28 0 27 0;
#X connect 28 0 30 0;
#X connect 29 0 31 0;
#X connect 30 0 29 0;
#X connect 31 0 25 0;
#X connect 31 0 26 2;
#X connect 34 0 11 0;
#X connect 36 0 15 1;
#X restore -66 754 pd dynload SoundConnections;
#X obj -66 719 list trim;
#X msg -64 666 \$1 \$2 \$1-\$2.conn;
#X obj -63 639 r \$0-connect;
#X obj 58 721 bng 15 250 50 0 empty empty empty 17 7 0 10 -262144 -1
-1;
#X obj -65 695 list prepend ar.SoundConnection \$0;
#X obj 112 472 r \$0-connectListener;
#X obj 110 528 list prepend ar.ListenerConnection \$0;
#X obj -85 93 s \$0-connectListener;
#X msg 225 71 \; sndNode1 setPlugin inbus1~;
#X msg 225 140 \; sndNode1 setParam inbus \$1;
#X msg 218 262 \; ear.plugin.patch vis 1;
#X msg 219 215 \; ear setPlugin listener-stereo~ \, setType listener-stereo.conn~
;
#X obj 34 732 bng 15 250 50 0 empty empty empty 17 7 0 10 -262144 -1
-1;
#X obj 409 683 DynamicPatchHolder \$0-SoundNodes;
#X obj 409 703 DynamicPatchHolder \$0-SoundConnections;
#X connect 0 0 35 0;
#X connect 0 0 51 0;
#X connect 1 0 4 0;
#X connect 2 0 4 1;
#X connect 3 0 4 2;
#X connect 4 0 15 0;
#X connect 5 0 35 0;
#X connect 6 0 35 0;
#X connect 7 0 35 0;
#X connect 8 0 35 0;
#X connect 9 0 12 0;
#X connect 10 0 12 1;
#X connect 11 0 12 2;
#X connect 12 0 16 0;
#X connect 13 0 35 0;
#X connect 14 0 35 0;
#X connect 15 0 35 0;
#X connect 16 0 35 0;
#X connect 17 0 35 0;
#X connect 18 0 35 0;
#X connect 27 0 35 0;
#X connect 33 0 30 0;
#X connect 34 0 33 0;
#X connect 36 0 37 0;
#X connect 38 0 46 0;
#X connect 39 0 28 0;
#X connect 40 0 29 0;
#X connect 41 0 67 0;
#X connect 42 0 38 0;
#X connect 44 0 28 2;
#X connect 45 0 29 2;
#X connect 46 0 39 0;
#X connect 49 0 70 0;
#X connect 50 0 29 1;
#X connect 50 0 28 1;
#X connect 50 0 60 1;
#X connect 52 0 43 0;
#X connect 53 0 43 0;
#X connect 55 0 68 0;
#X connect 61 0 60 0;
#X connect 62 0 65 0;
#X connect 63 0 62 0;
#X connect 64 0 60 2;
#X connect 65 0 61 0;
#X connect 66 0 41 0;
#X connect 67 0 40 0;
#X connect 73 0 60 1;
