#N canvas 507 22 1056 512 12;
#X obj -60 6 OSCrx 18032;
#X obj 99 37 tgl 50 0 empty empty success 17 -7 0 10 -258113 -1 -1
1 1;
#X obj 99 5 spatosc SpatdifTranslator 18032 localhost;
#X msg -37 290 \; ear.patch vis 1;
#X msg 90 290 \; ear.plugin.patch vis 1;
#X obj 99 -21 r to_spatosc;
#X msg 98 249 \; src1.plugin.patch vis 1;
#X msg -37 248 \; src1.patch vis 1;
#X msg -38 332 \; src1-ear.conn.patch vis 1;
#X msg 155 331 \; src1-ear.conn.plugin.patch vis 1;
#X obj 443 10 grid grid1 100 0 199 100 0 199 0 1 1 10 10 477 60;
#X obj 560 9 grid grid1 100 0 199 100 0 199 0 1 1 10 10 618 81;
#X text 446 -17 source;
#X text 566 -15 listener;
#N canvas 184 210 1250 818 RX-from-spatOSC 0;
#X obj 95 277 list split 1;
#X obj 95 303 symbol2list /;
#X obj 94 331 unpack s s;
#X obj 95 217 OSCparse /spatosc/core;
#X obj 95 248 OSCparse /connection;
#X obj 151 365 list append;
#X obj 93 357 t b s;
#X obj 151 391 anyreg \$0-list;
#X obj 154 450 s;
#X obj 152 417 list trim;
#X obj 213 306 s createNode;
#X obj 496 326 s connectListener;
#X obj 295 307 symbol;
#X obj 727 350 OSCroute /listener /source;
#X obj 804 404 t a a;
#X obj 833 555 anyreg \$0-mess;
#X obj 834 584 list split 1;
#X obj 834 609 symbol2list /;
#X obj 834 635 list split 1;
#X obj 834 661 list trim;
#X obj 709 481 OSCparse /*/prop;
#X obj 710 560 list trim;
#X obj 710 720 send;
#X obj 709 531 t l b;
#X obj 835 684 symbol;
#X obj 710 509 list prepend prop;
#X msg 294 362 \; createNode \$1 \; \$1 prop setPlugin ar.listener-stereo~
;
#X obj 96 72 inlet rx mess from spatOSC;
#X text 853 404 property messages parsed out and forwarded to node
;
#X text 708 738 prop keyword value;
#X obj 391 325 s deleteNode;
#X obj 257 244 route createSoundSource createListener deleteNode connect
disconnect;
#X obj 510 300 s disconnectListener;
#X connect 0 0 1 0;
#X connect 0 1 5 1;
#X connect 1 0 2 0;
#X connect 2 0 6 0;
#X connect 2 1 5 0;
#X connect 3 0 4 0;
#X connect 4 0 0 0;
#X connect 4 1 31 0;
#X connect 5 0 7 0;
#X connect 6 0 7 0;
#X connect 6 1 8 1;
#X connect 7 0 9 0;
#X connect 9 0 8 0;
#X connect 12 0 26 0;
#X connect 13 0 14 0;
#X connect 13 1 14 0;
#X connect 14 0 20 0;
#X connect 14 1 15 0;
#X connect 15 0 16 0;
#X connect 16 0 17 0;
#X connect 17 0 18 0;
#X connect 18 0 19 0;
#X connect 19 0 24 0;
#X connect 20 0 25 0;
#X connect 21 0 22 0;
#X connect 23 0 21 0;
#X connect 23 1 15 0;
#X connect 24 0 22 1;
#X connect 25 0 23 0;
#X connect 27 0 3 0;
#X connect 31 0 10 0;
#X connect 31 1 12 0;
#X connect 31 2 30 0;
#X connect 31 3 11 0;
#X connect 31 4 32 0;
#X connect 31 5 13 0;
#X restore -60 33 pd RX-from-spatOSC;
#N canvas 0 104 970 655 DSP-GRAPH 0;
#X obj 51 93 symbol;
#X msg 288 165 \$1 \$2 \$1-\$2.conn;
#X obj 421 306 bng 15 250 50 0 empty see-nodes see-nodes 17 7 0 10
-262144 -1 -1;
#X obj 51 123 list prepend ar.SoundNode \$0;
#X obj 373 268 r clear-all;
#X msg 622 148 \$1 \$2 \$1-\$2.conn;
#X obj 621 177 list prepend ar.SoundConnection \$0;
#X obj 288 194 list prepend ar.ListenerConnection \$0;
#X obj 51 66 r createNode;
#X obj 288 115 r connectListener;
#X obj 288 139 pack s s;
#X msg 51 151 \$3 \$1 \$2 \$3;
#X obj 343 498 ar.dspGen;
#X msg 288 223 \$5 \$1 \$2 \$3 \$4 \$5;
#X obj 623 121 r connectNode;
#X msg 621 206 \$5 \$1 \$2 \$3 \$4 \$5;
#X obj 585 407 symbol;
#X obj 659 291 r deleteNode;
#X obj 660 341 pack s s;
#X obj 660 317 r disconnectListener;
#X msg 660 367 \$1-\$2.conn;
#X connect 0 0 3 0;
#X connect 1 0 7 0;
#X connect 2 0 12 2;
#X connect 3 0 11 0;
#X connect 4 0 12 1;
#X connect 5 0 6 0;
#X connect 6 0 15 0;
#X connect 7 0 13 0;
#X connect 8 0 0 0;
#X connect 9 0 10 0;
#X connect 10 0 1 0;
#X connect 11 0 12 0;
#X connect 13 0 12 0;
#X connect 14 0 5 0;
#X connect 15 0 12 0;
#X connect 16 0 12 3;
#X connect 17 0 16 0;
#X connect 18 0 20 0;
#X connect 19 0 18 0;
#X connect 20 0 16 0;
#X restore -61 61 pd DSP-GRAPH;
#X msg 174 33 \; to_spatosc clearScene \; clear-all bang;
#N canvas 715 22 917 639 SPIN_INTEGRATION 0;
#X text 26 -48 ListenerNode: setType is ignored \, since the setPlugin
"listener-type~" automatically generates the proper "type" state for
its connections;
#X text 26 6 SoundNodes and ListenerNodes: setParam should be translated
as follows:;
#X text 32 -117 SPIN MESSAGES ---> OSCSPAT;
#X text 33 57 setParam keyword valaue -----> prop keyword value;
#X text 35 97 setVUmeterFlag value -----> prop setVUmeterFlag value
;
#X text 35 123 setPlugin name -----> prop setPlugin value;
#X text 36 154 setActive value -----> prop setActive value;
#X text 28 205 createNode name ListenerNode -----> createListener name
;
#X text 27 226 createNode name SoundNode -----> createSource name;
#X text 26 253 /src-node connect sink-node -----> connect src-node
sink-node;
#X text 36 396 NOTE: spatOSC "auto-connect" feature must be disabled
;
#X text 30 307 /node setTranslation x y z -----> setPosition node x
y z (note: global x y z);
#X text 38 422 NOTE: spatOSC has only one "connect" message--- what
about connecting sources to sinks which are not listeners ???;
#X restore -59 -23 pd SPIN_INTEGRATION;
#X obj -63 151 cnv 15 24 24 empty empty 1 4 12 1 24 -99865 -262144
0;
#N canvas 0 22 584 459 dynamic 0;
#X obj 40 36 inlet;
#X obj 102 38 inlet;
#X obj 283 43 inlet;
#X obj 345 45 inlet;
#X floatatom 43 164 5 0 0 0 - - -;
#X floatatom 82 164 5 0 0 0 - - -;
#X floatatom 121 164 5 0 0 0 - - -;
#N canvas 0 22 290 211 pack3f 0;
#X obj 79 103 pack f f f;
#X obj 99 73 t b f;
#X obj 144 71 t b f;
#X obj 63 44 inlet;
#X obj 110 41 inlet;
#X obj 162 45 inlet;
#X obj 80 137 outlet;
#X connect 0 0 6 0;
#X connect 1 0 0 0;
#X connect 1 1 0 1;
#X connect 2 0 0 0;
#X connect 2 1 0 2;
#X connect 3 0 0 0;
#X connect 4 0 1 0;
#X connect 5 0 2 0;
#X restore 43 184 pd pack3f;
#X msg 325 196 \; to_spatosc setPosition ear \$1 \$2 \$3;
#X msg 42 221 \; to_spatosc setPosition src1 \$1 \$2 \$3;
#X obj 45 129 - 100;
#X obj 132 136 - 100;
#X floatatom 327 142 5 0 0 0 - - -;
#X floatatom 366 142 5 0 0 0 - - -;
#X floatatom 411 141 5 0 0 0 - - -;
#N canvas 0 22 290 211 pack3f 0;
#X obj 79 103 pack f f f;
#X obj 99 73 t b f;
#X obj 144 71 t b f;
#X obj 63 44 inlet;
#X obj 110 41 inlet;
#X obj 162 45 inlet;
#X obj 80 137 outlet;
#X connect 0 0 6 0;
#X connect 1 0 0 0;
#X connect 1 1 0 1;
#X connect 2 0 0 0;
#X connect 2 1 0 2;
#X connect 3 0 0 0;
#X connect 4 0 1 0;
#X connect 5 0 2 0;
#X restore 327 170 pd pack3f;
#X obj 327 101 - 100;
#X obj 414 108 - 100;
#X connect 0 0 10 0;
#X connect 1 0 11 0;
#X connect 2 0 16 0;
#X connect 3 0 17 0;
#X connect 4 0 7 0;
#X connect 5 0 7 1;
#X connect 6 0 7 2;
#X connect 7 0 9 0;
#X connect 10 0 4 0;
#X connect 11 0 5 0;
#X connect 12 0 15 0;
#X connect 13 0 15 1;
#X connect 14 0 15 2;
#X connect 15 0 8 0;
#X connect 16 0 12 0;
#X connect 17 0 13 0;
#X restore 515 130 pd dynamic;
#X obj 456 211 bng 15 250 50 0 \$0-open-attenuation empty audio_I/0_attenuation
17 7 1 12 -262144 -1 -1;
#X obj 457 252 dsp.IO \$0;
#X obj 457 231 r \$0-dspCtl;
#X msg 452 165 \; see-nodes bang;
#N canvas 761 264 983 873 SPAT_OSC_MESSAGES 0;
#X floatatom 59 79 5 0 0 0 - - -;
#X msg 41 -243 \; to_spatosc setConnectFilter ear;
#X text 451 -181 <-- Add properties;
#X text 49 -8 Also need to be able to set/get/save/recall params in
spatOSC;
#X text 102 5 DELAY and AED are partially redundant;
#X msg 60 108 \; src1 setParam fq \$1;
#X msg 46 -65 \; to_spatosc connect src1 ear \;;
#X msg 46 -192 \; to_spatosc setNodeStringProperty ear vmicL.channel
"9";
#X text 381 -131 <-- Add properties;
#X msg 46 -145 \; to_spatosc setNodeStringProperty ear setPlugin ar.listener-stereo~
;
#X text 45 -85 not needed with auto-connect;
#X text 62 55 need to deal with numbers;
#X msg 60 150 \; to_spatosc setNodeFloatProperty src fq 9;
#X msg 33 263 \; to_spatosc createSource src1;
#X msg 253 343 \; to_spatosc disconnect src1 ear \;;
#X msg 35 342 \; to_spatosc connect src1 ear \;;
#X msg 242 262 \; to_spatosc deleteNode src1;
#X msg 32 299 \; to_spatosc createListener ear;
#X msg 252 302 \; to_spatosc deleteNode ear;
#X msg 33 404 \; to_spatosc clearScene \;;
#X msg 34 471 \; to_spatosc setNodeFloatProperty ear setSpread 1;
#X connect 0 0 5 0;
#X restore -60 87 pd SPAT_OSC_MESSAGES;
#N canvas 314 181 608 479 temp 0;
#X obj 20 53 iterN 20;
#X obj 20 30 bng 15 250 50 0 empty empty empty 17 7 0 10 -262144 -1
-1;
#X obj 20 81 t f b;
#X obj 109 80 random 200;
#X obj 108 107 - 100;
#X obj 194 81 random 200;
#X obj 193 108 - 100;
#X obj 6 150 pack f f f;
#X msg 22 213 \; to_spatosc createSource src-\$1 \; to_spatosc setNodeStringProperty
src-\$1 setPlugin testone~ \; to_spatosc connect src-\$1 ear \; to_spatosc
setPosition src-\$1 \$2 \$3 0;
#X msg 55 378 \; to_spatosc createListener ear \;;
#X connect 0 0 2 0;
#X connect 1 0 0 0;
#X connect 2 0 7 0;
#X connect 2 1 3 0;
#X connect 2 1 5 0;
#X connect 3 0 4 0;
#X connect 4 0 7 1;
#X connect 5 0 6 0;
#X connect 6 0 7 2;
#X connect 7 0 8 0;
#X restore -61 111 pd temp;
#X obj 459 278 OSCrx 18032;
#X obj 459 304 spigot;
#X obj 459 330 print FROM__SPATOSC;
#X obj 535 306 tgl 15 0 empty empty print-spat-mess 17 7 0 12 -262144
-1 -1 1 1;
#X msg -34 148 \; to_spatosc createSource src1 \, createSource src2
\, createListener ear \, setNodeStringProperty src1 setPlugin testone~
\, setNodeStringProperty src2 setPlugin testone~;
#X connect 0 0 14 0;
#X connect 2 0 1 0;
#X connect 5 0 2 0;
#X connect 10 0 19 0;
#X connect 10 1 19 1;
#X connect 11 0 19 2;
#X connect 11 1 19 3;
#X connect 22 0 21 0;
#X connect 26 0 27 0;
#X connect 27 0 28 0;
#X connect 29 0 27 1;
