#N canvas 145 23 865 475 12;
#X obj -60 6 OSCrx 18032;
#X obj 99 37 tgl 50 0 empty empty success 17 -7 0 10 -258113 -1 -1
1 1;
#X obj 99 5 spatosc SpatdifTranslator 18032 localhost;
#X msg -17 238 \; ear.patch vis 1;
#X msg 110 238 \; ear.plugin.patch vis 1;
#X obj 99 -21 r to_spatosc;
#X msg 118 197 \; src1.plugin.patch vis 1;
#X msg -17 196 \; src1.patch vis 1;
#X msg -18 280 \; src1-ear.conn.patch vis 1;
#X msg 175 279 \; src1-ear.conn.plugin.patch vis 1;
#X obj 443 10 grid grid1 100 0 199 100 0 199 0 1 1 10 10 507 25;
#X obj 560 9 grid grid1 100 0 199 100 0 199 0 1 1 10 10 610 98;
#X text 446 -17 source;
#X text 566 -15 listener;
#N canvas 0 22 1250 818 RX-from-spatOSC 0;
#X obj 95 277 list split 1;
#X obj 95 303 symbol2list /;
#X obj 94 331 unpack s s;
#X obj 95 217 OSCparse /spatosc/core;
#X obj 95 248 OSCparse /connection;
#X obj 151 365 list append;
#X obj 93 357 t b s;
#X obj 151 391 anyreg \$0-list;
#X obj 154 450 s;
#X obj 152 417 list trim;
#X obj 213 306 s createNode;
#X obj 468 318 s connectListener;
#X obj 212 273 route createSoundSource createListener deleteNode connect
;
#X obj 295 307 symbol;
#X obj 632 348 OSCroute /listener /source;
#X obj 709 402 t a a;
#X obj 738 553 anyreg \$0-mess;
#X obj 739 582 list split 1;
#X obj 739 607 symbol2list /;
#X obj 739 633 list split 1;
#X obj 739 659 list trim;
#X obj 614 479 OSCparse /*/prop;
#X obj 615 558 list trim;
#X obj 615 718 send;
#X obj 614 529 t l b;
#X obj 740 682 symbol;
#X obj 615 507 list prepend prop;
#X msg 294 362 \; createNode \$1 \; \$1 prop setPlugin ar.listener-stereo~
;
#X obj 96 72 inlet rx mess from spatOSC;
#X text 758 402 property messages parsed out and forwarded to node
;
#X text 613 736 prop keyword value;
#X connect 0 0 1 0;
#X connect 0 1 5 1;
#X connect 1 0 2 0;
#X connect 2 0 6 0;
#X connect 2 1 5 0;
#X connect 3 0 4 0;
#X connect 4 0 0 0;
#X connect 4 1 12 0;
#X connect 5 0 7 0;
#X connect 6 0 7 0;
#X connect 6 1 8 1;
#X connect 7 0 9 0;
#X connect 9 0 8 0;
#X connect 12 0 10 0;
#X connect 12 1 13 0;
#X connect 12 3 11 0;
#X connect 12 4 14 0;
#X connect 13 0 27 0;
#X connect 14 0 15 0;
#X connect 14 1 15 0;
#X connect 15 0 21 0;
#X connect 15 1 16 0;
#X connect 16 0 17 0;
#X connect 17 0 18 0;
#X connect 18 0 19 0;
#X connect 19 0 20 0;
#X connect 20 0 25 0;
#X connect 21 0 26 0;
#X connect 22 0 23 0;
#X connect 24 0 22 0;
#X connect 24 1 16 0;
#X connect 25 0 23 1;
#X connect 26 0 24 0;
#X connect 28 0 3 0;
#X restore -60 33 pd RX-from-spatOSC;
#N canvas -1076 82 1016 982 DSP-GRAPH 1;
#N canvas 915 146 875 865 dynload 0;
#X msg 229 66 vis 1;
#X msg 43 281 clear;
#X obj -182 147 list prepend;
#X obj -182 -8 inlet;
#X text -300 -36 list: abstract name with args to load;
#X obj 42 3 inlet;
#X text 85 5 bang to clear;
#X obj 229 35 inlet;
#X text 273 38 bang to open;
#X obj -183 31 t a b;
#X msg -100 112 obj 10 \$1;
#X obj -36 235 sel 0;
#X text -301 -104 arg1: <opt> multi-obj-flag (when non-zero \, the
object will not delete current instance before instantiating another:
;
#X text -299 -75 note: the value of the flag is used as an incremental
offset the position of each instance on the canvas;
#X msg -76 64 50;
#X obj -101 87 f 10;
#X obj -182 173 list trim;
#X obj -182 204 t b a a b;
#X obj -184 578 send;
#X msg -109 424 obj \$1 \$2 pd \$3;
#X msg -318 370 vis 0 \, loadbang;
#X obj -226 308 list split 3;
#X obj -186 491 list prepend obj 20 20;
#X obj -185 513 list trim;
#X obj -140 279 unpack s f f s;
#X msg -158 555 symbol pd-\$1;
#X obj -110 403 pack f f s;
#X obj 9 287 + 1;
#X obj -23 287 f;
#X msg -23 341 set \$1;
#X obj -23 318 makefilename %%s-\$0-%d;
#X obj -45 372 makefilename;
#X obj -136 593 anyreg __dynload_temp_parent;
#X text -197 641 points to loaded patch's parent patcher ONLY at the
exact time the patch is loaded;
#X obj -36 213 expr 1;
#X obj 42 521 send pd-\$0-SoundConnections;
#X obj -65 87 + 20;
#X connect 0 0 35 0;
#X connect 1 0 35 0;
#X connect 2 0 16 0;
#X connect 3 0 9 0;
#X connect 5 0 1 0;
#X connect 5 0 14 0;
#X connect 7 0 0 0;
#X connect 9 0 2 0;
#X connect 9 1 15 0;
#X connect 10 0 2 1;
#X connect 11 0 1 0;
#X connect 14 0 15 1;
#X connect 15 0 10 0;
#X connect 15 0 36 0;
#X connect 16 0 17 0;
#X connect 17 0 20 0;
#X connect 17 1 21 0;
#X connect 17 2 24 0;
#X connect 17 3 28 0;
#X connect 17 3 34 0;
#X connect 19 0 35 0;
#X connect 20 0 18 0;
#X connect 21 1 22 0;
#X connect 22 0 23 0;
#X connect 23 0 18 0;
#X connect 24 1 26 0;
#X connect 24 2 26 1;
#X connect 24 3 31 0;
#X connect 25 0 18 1;
#X connect 25 0 32 0;
#X connect 26 0 19 0;
#X connect 27 0 28 1;
#X connect 28 0 27 0;
#X connect 28 0 30 0;
#X connect 29 0 31 0;
#X connect 30 0 29 0;
#X connect 31 0 25 0;
#X connect 31 0 26 2;
#X connect 34 0 11 0;
#X connect 36 0 15 1;
#X restore 365 312 pd dynload SoundConnections;
#X obj 51 93 symbol;
#X obj 331 247 list trim;
#X msg 288 165 \$1 \$2 \$1-\$2.conn;
#X obj 118 185 bng 15 250 50 0 empty empty empty 17 7 0 10 -262144
-1 -1;
#X obj 410 220 bng 15 250 50 0 empty empty empty 17 7 0 10 -262144
-1 -1;
#X obj 51 123 list prepend ar.SoundNode \$0;
#X obj 244 42 r clear-all;
#N canvas 0 64 875 865 dynload 0;
#X msg 229 66 vis 1;
#X msg 43 281 clear;
#X obj -182 147 list prepend;
#X obj -182 -8 inlet;
#X text -300 -36 list: abstract name with args to load;
#X obj 42 3 inlet;
#X text 85 5 bang to clear;
#X obj 229 35 inlet;
#X text 273 38 bang to open;
#X obj -183 31 t a b;
#X msg -100 112 obj 10 \$1;
#X obj -36 235 sel 0;
#X text -301 -104 arg1: <opt> multi-obj-flag (when non-zero \, the
object will not delete current instance before instantiating another:
;
#X text -299 -75 note: the value of the flag is used as an incremental
offset the position of each instance on the canvas;
#X msg -76 64 50;
#X obj -101 87 f 10;
#X obj -182 173 list trim;
#X obj -182 204 t b a a b;
#X obj -184 578 send;
#X msg -109 424 obj \$1 \$2 pd \$3;
#X msg -318 370 vis 0 \, loadbang;
#X obj -226 308 list split 3;
#X obj -186 491 list prepend obj 20 20;
#X obj -185 513 list trim;
#X obj -140 279 unpack s f f s;
#X msg -158 555 symbol pd-\$1;
#X obj -110 403 pack f f s;
#X obj 9 287 + 1;
#X obj -23 287 f;
#X msg -23 341 set \$1;
#X obj -23 318 makefilename %%s-\$0-%d;
#X obj -45 372 makefilename;
#X obj -136 593 anyreg __dynload_temp_parent;
#X text -197 641 points to loaded patch's parent patcher ONLY at the
exact time the patch is loaded;
#X obj -36 213 expr 1;
#X obj 42 521 send pd-\$0-SoundConnections;
#X obj -65 87 + 20;
#X connect 0 0 35 0;
#X connect 1 0 35 0;
#X connect 2 0 16 0;
#X connect 3 0 9 0;
#X connect 5 0 1 0;
#X connect 5 0 14 0;
#X connect 7 0 0 0;
#X connect 9 0 2 0;
#X connect 9 1 15 0;
#X connect 10 0 2 1;
#X connect 11 0 1 0;
#X connect 14 0 15 1;
#X connect 15 0 10 0;
#X connect 15 0 36 0;
#X connect 16 0 17 0;
#X connect 17 0 20 0;
#X connect 17 1 21 0;
#X connect 17 2 24 0;
#X connect 17 3 28 0;
#X connect 17 3 34 0;
#X connect 19 0 35 0;
#X connect 20 0 18 0;
#X connect 21 1 22 0;
#X connect 22 0 23 0;
#X connect 23 0 18 0;
#X connect 24 1 26 0;
#X connect 24 2 26 1;
#X connect 24 3 31 0;
#X connect 25 0 18 1;
#X connect 25 0 32 0;
#X connect 26 0 19 0;
#X connect 27 0 28 1;
#X connect 28 0 27 0;
#X connect 28 0 30 0;
#X connect 29 0 31 0;
#X connect 30 0 29 0;
#X connect 31 0 25 0;
#X connect 31 0 26 2;
#X connect 34 0 11 0;
#X connect 36 0 15 1;
#X restore 122 619 pd dynload SoundConnections;
#X obj 122 584 list trim;
#X msg 124 531 \$1 \$2 \$1-\$2.conn;
#X obj 125 504 r \$0-connect;
#X obj 246 586 bng 15 250 50 0 empty empty empty 17 7 0 10 -262144
-1 -1;
#X obj 123 560 list prepend ar.SoundConnection \$0;
#X obj 287 194 list prepend ar.ListenerConnection \$0;
#X obj 222 597 bng 15 250 50 0 empty empty empty 17 7 0 10 -262144
-1 -1;
#X obj 103 677 DynamicPatchHolder \$0-SoundConnections;
#X obj 51 66 r createNode;
#X obj 288 115 r connectListener;
#X obj 288 139 pack s s;
#X msg 51 151 \$3 \$1 \$2 \$3;
#X obj 51 208 ar.dspGen;
#X obj 29 364 p;
#X msg 167 289 \$5 \$1 \$2 \$3 \$4 \$5;
#X connect 1 0 6 0;
#X connect 2 0 0 0;
#X connect 3 0 14 0;
#X connect 4 0 21 2;
#X connect 5 0 0 2;
#X connect 6 0 20 0;
#X connect 7 0 0 1;
#X connect 7 0 8 1;
#X connect 7 0 21 1;
#X connect 9 0 8 0;
#X connect 10 0 13 0;
#X connect 11 0 10 0;
#X connect 12 0 8 2;
#X connect 13 0 9 0;
#X connect 14 0 23 0;
#X connect 15 0 8 1;
#X connect 17 0 1 0;
#X connect 18 0 19 0;
#X connect 19 0 3 0;
#X connect 20 0 21 0;
#X connect 23 0 21 0;
#X restore -61 61 pd DSP-GRAPH;
#X msg 174 33 \; to_spatosc clearScene \; clear-all bang;
#N canvas -1018 432 917 639 SPIN_INTEGRATION 0;
#X text 26 -48 ListenerNode: setType is ignored \, since the setPlugin
"listener-type~" automatically generates the proper "type" state for
its connections;
#X text 26 6 SoundNodes and ListenerNodes: setParam should be translated
as follows:;
#X text 32 -117 SPIN MESSAGES ---> OSCSPAT;
#X text 33 57 setParam keyword valaue -----> prop keyword value;
#X text 35 97 setVUmeterFlag value -----> prop setVUmeterFlag value
;
#X text 35 123 setPlugin name -----> prop setPlugin value;
#X text 36 154 setActive value -----> prop setActive value;
#X text 28 205 createNode name ListenerNode -----> createListener name
;
#X text 27 226 createNode name SoundNode -----> createSource name;
#X text 26 253 /src-node connect sink-node -----> connect src-node
sink-node;
#X text 36 396 NOTE: spatOSC "auto-connect" feature must be disabled
;
#X text 30 307 /node setTranslation x y z -----> setPosition node x
y z (note: global x y z);
#X restore -59 -23 pd SPIN_INTEGRATION;
#X obj -56 136 cnv 15 24 24 empty empty 1 4 12 1 24 -99865 -262144
0;
#X msg -23 125 \; to_spatosc createSource src1 \, createListener ear
\; to_spatosc setNodeStringProperty src1 setPlugin testone~;
#N canvas 0 22 584 459 dynamic 0;
#X obj 40 36 inlet;
#X obj 102 38 inlet;
#X obj 283 43 inlet;
#X obj 345 45 inlet;
#X floatatom 43 164 5 0 0 0 - - -;
#X floatatom 82 164 5 0 0 0 - - -;
#X floatatom 121 164 5 0 0 0 - - -;
#N canvas 0 22 290 211 pack3f 0;
#X obj 79 103 pack f f f;
#X obj 99 73 t b f;
#X obj 144 71 t b f;
#X obj 63 44 inlet;
#X obj 110 41 inlet;
#X obj 162 45 inlet;
#X obj 80 137 outlet;
#X connect 0 0 6 0;
#X connect 1 0 0 0;
#X connect 1 1 0 1;
#X connect 2 0 0 0;
#X connect 2 1 0 2;
#X connect 3 0 0 0;
#X connect 4 0 1 0;
#X connect 5 0 2 0;
#X restore 43 184 pd pack3f;
#X msg 325 196 \; to_spatosc setPosition ear \$1 \$2 \$3;
#X msg 42 221 \; to_spatosc setPosition src1 \$1 \$2 \$3;
#X obj 45 129 - 100;
#X obj 132 136 - 100;
#X floatatom 327 142 5 0 0 0 - - -;
#X floatatom 366 142 5 0 0 0 - - -;
#X floatatom 411 141 5 0 0 0 - - -;
#N canvas 0 22 290 211 pack3f 0;
#X obj 79 103 pack f f f;
#X obj 99 73 t b f;
#X obj 144 71 t b f;
#X obj 63 44 inlet;
#X obj 110 41 inlet;
#X obj 162 45 inlet;
#X obj 80 137 outlet;
#X connect 0 0 6 0;
#X connect 1 0 0 0;
#X connect 1 1 0 1;
#X connect 2 0 0 0;
#X connect 2 1 0 2;
#X connect 3 0 0 0;
#X connect 4 0 1 0;
#X connect 5 0 2 0;
#X restore 327 170 pd pack3f;
#X obj 327 101 - 100;
#X obj 414 108 - 100;
#X connect 0 0 10 0;
#X connect 1 0 11 0;
#X connect 2 0 16 0;
#X connect 3 0 17 0;
#X connect 4 0 7 0;
#X connect 5 0 7 1;
#X connect 6 0 7 2;
#X connect 7 0 9 0;
#X connect 10 0 4 0;
#X connect 11 0 5 0;
#X connect 12 0 15 0;
#X connect 13 0 15 1;
#X connect 14 0 15 2;
#X connect 15 0 8 0;
#X connect 16 0 12 0;
#X connect 17 0 13 0;
#X restore 515 130 pd dynamic;
#N canvas 0 22 663 498 OTHER-SPAT_OSC_MESSAGES 0;
#X floatatom 59 79 5 0 0 0 - - -;
#X msg 41 -243 \; to_spatosc setConnectFilter ear;
#X text 451 -181 <-- Add properties;
#X text 49 -8 Also need to be able to set/get/save/recall params in
spatOSC;
#X text 102 5 DELAY and AED are partially redundant;
#X msg 60 108 \; src1 setParam fq \$1;
#X msg 46 -65 \; to_spatosc connect src1 ear \;;
#X msg 46 -192 \; to_spatosc setNodeStringProperty ear vmicL.channel
"9";
#X text 381 -131 <-- Add properties;
#X msg 46 -145 \; to_spatosc setNodeStringProperty ear setPlugin ar.listener-stereo~
;
#X text 45 -85 not needed with auto-connect;
#X text 62 55 need to deal with numbers;
#X msg 60 150 \; to_spatosc setNodeFloatProperty src fq 9;
#X connect 0 0 5 0;
#X restore -50 337 pd OTHER-SPAT_OSC_MESSAGES;
#X msg 256 363 \; to_spatosc createSource src1;
#X obj 550 327 bng 15 250 50 0 \$0-open-attenuation empty audio_I/0_attenuation
17 7 1 12 -262144 -1 -1;
#X obj 551 368 dsp.IO \$0;
#X obj 551 347 r \$0-dspCtl;
#X connect 0 0 14 0;
#X connect 2 0 1 0;
#X connect 5 0 2 0;
#X connect 10 0 20 0;
#X connect 10 1 20 1;
#X connect 11 0 20 2;
#X connect 11 1 20 3;
#X connect 25 0 24 0;
