#N canvas 129 22 1352 1076 10;
#X floatatom 406 953 5 0 0 0 - - -;
#X floatatom 445 953 5 0 0 0 - - -;
#X floatatom 484 953 5 0 0 0 - - -;
#N canvas 0 22 290 211 pack3f 0;
#X obj 79 103 pack f f f;
#X obj 99 73 t b f;
#X obj 144 71 t b f;
#X obj 63 44 inlet;
#X obj 110 41 inlet;
#X obj 162 45 inlet;
#X obj 80 137 outlet;
#X connect 0 0 6 0;
#X connect 1 0 0 0;
#X connect 1 1 0 1;
#X connect 2 0 0 0;
#X connect 2 1 0 2;
#X connect 3 0 0 0;
#X connect 4 0 1 0;
#X connect 5 0 2 0;
#X restore 406 973 pd pack3f;
#X text 666 -41 <-- Create a sound source;
#X obj 401 221 OSCrx 18032;
#N canvas 0 64 887 877 dynload 0;
#X msg 229 66 vis 1;
#X msg 43 281 clear;
#X obj -182 147 list prepend;
#X obj -182 -8 inlet;
#X text -300 -36 list: abstract name with args to load;
#X obj 42 3 inlet;
#X text 85 5 bang to clear;
#X obj 229 35 inlet;
#X text 273 38 bang to open;
#X obj -183 31 t a b;
#X msg -100 112 obj 10 \$1;
#X obj -36 235 sel 0;
#X text -301 -104 arg1: <opt> multi-obj-flag (when non-zero \, the
object will not delete current instance before instantiating another:
;
#X text -299 -75 note: the value of the flag is used as an incremental
offset the position of each instance on the canvas;
#X msg -76 64 50;
#X obj -101 87 f 10;
#X obj -182 173 list trim;
#X obj -182 204 t b a a b;
#X obj -184 578 send;
#X msg -109 424 obj \$1 \$2 pd \$3;
#X msg -318 370 vis 0 \, loadbang;
#X obj -226 308 list split 3;
#X obj -186 491 list prepend obj 20 20;
#X obj -185 513 list trim;
#X obj -140 279 unpack s f f s;
#X msg -158 555 symbol pd-\$1;
#X obj -110 403 pack f f s;
#X obj 9 287 + 1;
#X obj -23 287 f;
#X msg -23 341 set \$1;
#X obj -23 318 makefilename %%s-\$0-%d;
#X obj -45 372 makefilename;
#X obj -136 593 anyreg __dynload_temp_parent;
#X text -211 653 points to loaded patch's parent patcher ONLY at the
exact time the patch is loaded;
#X obj 42 521 send pd-\$0-SoundNodes;
#X obj -36 213 expr 1;
#X obj -66 87 + 20;
#X connect 0 0 34 0;
#X connect 1 0 34 0;
#X connect 2 0 16 0;
#X connect 3 0 9 0;
#X connect 5 0 1 0;
#X connect 5 0 14 0;
#X connect 7 0 0 0;
#X connect 9 0 2 0;
#X connect 9 1 15 0;
#X connect 10 0 2 1;
#X connect 11 0 1 0;
#X connect 14 0 15 1;
#X connect 15 0 10 0;
#X connect 15 0 36 0;
#X connect 16 0 17 0;
#X connect 17 0 20 0;
#X connect 17 1 21 0;
#X connect 17 2 24 0;
#X connect 17 3 28 0;
#X connect 17 3 35 0;
#X connect 19 0 34 0;
#X connect 20 0 18 0;
#X connect 21 1 22 0;
#X connect 22 0 23 0;
#X connect 23 0 18 0;
#X connect 24 1 26 0;
#X connect 24 2 26 1;
#X connect 24 3 31 0;
#X connect 25 0 18 1;
#X connect 25 0 32 0;
#X connect 26 0 19 0;
#X connect 27 0 28 1;
#X connect 28 0 27 0;
#X connect 28 0 30 0;
#X connect 29 0 31 0;
#X connect 30 0 29 0;
#X connect 31 0 25 0;
#X connect 31 0 26 2;
#X connect 35 0 11 0;
#X connect 36 0 15 1;
#X restore -89 649 pd dynload SoundNodes;
#N canvas 0 64 875 865 dynload 0;
#X msg 229 66 vis 1;
#X msg 43 281 clear;
#X obj -182 147 list prepend;
#X obj -182 -8 inlet;
#X text -300 -36 list: abstract name with args to load;
#X obj 42 3 inlet;
#X text 85 5 bang to clear;
#X obj 229 35 inlet;
#X text 273 38 bang to open;
#X obj -183 31 t a b;
#X msg -100 112 obj 10 \$1;
#X obj -36 235 sel 0;
#X text -301 -104 arg1: <opt> multi-obj-flag (when non-zero \, the
object will not delete current instance before instantiating another:
;
#X text -299 -75 note: the value of the flag is used as an incremental
offset the position of each instance on the canvas;
#X msg -76 64 50;
#X obj -101 87 f 10;
#X obj -182 173 list trim;
#X obj -182 204 t b a a b;
#X obj -184 578 send;
#X msg -109 424 obj \$1 \$2 pd \$3;
#X msg -318 370 vis 0 \, loadbang;
#X obj -226 308 list split 3;
#X obj -186 491 list prepend obj 20 20;
#X obj -185 513 list trim;
#X obj -140 279 unpack s f f s;
#X msg -158 555 symbol pd-\$1;
#X obj -110 403 pack f f s;
#X obj 9 287 + 1;
#X obj -23 287 f;
#X msg -23 341 set \$1;
#X obj -23 318 makefilename %%s-\$0-%d;
#X obj -45 372 makefilename;
#X obj -136 593 anyreg __dynload_temp_parent;
#X text -197 641 points to loaded patch's parent patcher ONLY at the
exact time the patch is loaded;
#X obj -36 213 expr 1;
#X obj 42 521 send pd-\$0-SoundConnections;
#X obj -65 87 + 20;
#X connect 0 0 35 0;
#X connect 1 0 35 0;
#X connect 2 0 16 0;
#X connect 3 0 9 0;
#X connect 5 0 1 0;
#X connect 5 0 14 0;
#X connect 7 0 0 0;
#X connect 9 0 2 0;
#X connect 9 1 15 0;
#X connect 10 0 2 1;
#X connect 11 0 1 0;
#X connect 14 0 15 1;
#X connect 15 0 10 0;
#X connect 15 0 36 0;
#X connect 16 0 17 0;
#X connect 17 0 20 0;
#X connect 17 1 21 0;
#X connect 17 2 24 0;
#X connect 17 3 28 0;
#X connect 17 3 34 0;
#X connect 19 0 35 0;
#X connect 20 0 18 0;
#X connect 21 1 22 0;
#X connect 22 0 23 0;
#X connect 23 0 18 0;
#X connect 24 1 26 0;
#X connect 24 2 26 1;
#X connect 24 3 31 0;
#X connect 25 0 18 1;
#X connect 25 0 32 0;
#X connect 26 0 19 0;
#X connect 27 0 28 1;
#X connect 28 0 27 0;
#X connect 28 0 30 0;
#X connect 29 0 31 0;
#X connect 30 0 29 0;
#X connect 31 0 25 0;
#X connect 31 0 26 2;
#X connect 34 0 11 0;
#X connect 36 0 15 1;
#X restore 128 695 pd dynload SoundConnections;
#X obj 399 634 tgl 50 0 empty empty success 17 -7 0 10 -258113 -1 -1
1 1;
#X obj 399 602 spatosc SpatdifTranslator 18032 localhost;
#X obj 767 544 r to_spatosc;
#X obj -86 565 symbol;
#X obj -88 608 list trim;
#X obj 128 660 list trim;
#X msg 130 607 \$1 \$2 \$1-\$2.conn;
#X obj 52 617 bng 15 250 50 0 empty empty empty 17 7 0 10 -262144 -1
-1;
#X obj 252 662 bng 15 250 50 0 empty empty empty 17 7 0 10 -262144
-1 -1;
#X obj -87 584 list prepend ar.SoundNode \$0;
#X obj 479 220 cnv 20 20 20 empty empty \$0=$zero 0 12 1 14 -262144
-66577 0;
#X floatatom 327 114 5 0 0 0 - - -;
#X obj 91 505 r clear-all;
#X msg -77 17 \; ear.patch vis 1;
#N canvas 0 64 875 865 dynload 0;
#X msg 229 66 vis 1;
#X msg 43 281 clear;
#X obj -182 147 list prepend;
#X obj -182 -8 inlet;
#X text -300 -36 list: abstract name with args to load;
#X obj 42 3 inlet;
#X text 85 5 bang to clear;
#X obj 229 35 inlet;
#X text 273 38 bang to open;
#X obj -183 31 t a b;
#X msg -100 112 obj 10 \$1;
#X obj -36 235 sel 0;
#X text -301 -104 arg1: <opt> multi-obj-flag (when non-zero \, the
object will not delete current instance before instantiating another:
;
#X text -299 -75 note: the value of the flag is used as an incremental
offset the position of each instance on the canvas;
#X msg -76 64 50;
#X obj -101 87 f 10;
#X obj -182 173 list trim;
#X obj -182 204 t b a a b;
#X obj -184 578 send;
#X msg -109 424 obj \$1 \$2 pd \$3;
#X msg -318 370 vis 0 \, loadbang;
#X obj -226 308 list split 3;
#X obj -186 491 list prepend obj 20 20;
#X obj -185 513 list trim;
#X obj -140 279 unpack s f f s;
#X msg -158 555 symbol pd-\$1;
#X obj -110 403 pack f f s;
#X obj 9 287 + 1;
#X obj -23 287 f;
#X msg -23 341 set \$1;
#X obj -23 318 makefilename %%s-\$0-%d;
#X obj -45 372 makefilename;
#X obj -136 593 anyreg __dynload_temp_parent;
#X text -197 641 points to loaded patch's parent patcher ONLY at the
exact time the patch is loaded;
#X obj -36 213 expr 1;
#X obj 42 521 send pd-\$0-SoundConnections;
#X obj -65 87 + 20;
#X connect 0 0 35 0;
#X connect 1 0 35 0;
#X connect 2 0 16 0;
#X connect 3 0 9 0;
#X connect 5 0 1 0;
#X connect 5 0 14 0;
#X connect 7 0 0 0;
#X connect 9 0 2 0;
#X connect 9 1 15 0;
#X connect 10 0 2 1;
#X connect 11 0 1 0;
#X connect 14 0 15 1;
#X connect 15 0 10 0;
#X connect 15 0 36 0;
#X connect 16 0 17 0;
#X connect 17 0 20 0;
#X connect 17 1 21 0;
#X connect 17 2 24 0;
#X connect 17 3 28 0;
#X connect 17 3 34 0;
#X connect 19 0 35 0;
#X connect 20 0 18 0;
#X connect 21 1 22 0;
#X connect 22 0 23 0;
#X connect 23 0 18 0;
#X connect 24 1 26 0;
#X connect 24 2 26 1;
#X connect 24 3 31 0;
#X connect 25 0 18 1;
#X connect 25 0 32 0;
#X connect 26 0 19 0;
#X connect 27 0 28 1;
#X connect 28 0 27 0;
#X connect 28 0 30 0;
#X connect 29 0 31 0;
#X connect 30 0 29 0;
#X connect 31 0 25 0;
#X connect 31 0 26 2;
#X connect 34 0 11 0;
#X connect 36 0 15 1;
#X restore -59 836 pd dynload SoundConnections;
#X obj -59 801 list trim;
#X msg -57 748 \$1 \$2 \$1-\$2.conn;
#X obj -56 721 r \$0-connect;
#X obj 65 803 bng 15 250 50 0 empty empty empty 17 7 0 10 -262144 -1
-1;
#X obj -58 777 list prepend ar.SoundConnection \$0;
#X obj 129 636 list prepend ar.ListenerConnection \$0;
#X msg 34 18 \; ear.plugin.patch vis 1;
#X obj 41 814 bng 15 250 50 0 empty empty empty 17 7 0 10 -262144 -1
-1;
#X obj -78 874 DynamicPatchHolder \$0-SoundNodes;
#X obj -78 894 DynamicPatchHolder \$0-SoundConnections;
#X obj -86 532 r createNode;
#X obj 130 557 r connectListener;
#X obj 766 630 s createNode;
#X obj 852 631 s createNode;
#X msg 651 989 \; to_spatosc setPosition ear \$1 \$2 \$3;
#X obj 940 632 s clear-all;
#X obj 398 564 r to_spatosc;
#X obj 767 571 route createSource createListener clearScene connect
disconnect;
#X obj 1020 632 s connectListener;
#X msg 784 42 \; to_spatosc clearScene;
#X msg 790 186 \; to_spatosc createSource src1 \, createListener ear
;
#X msg 35 -25 \; src1.plugin.patch vis 1;
#X msg -84 -27 \; src1.patch vis 1;
#X msg -88 64 \; src1-ear.conn.patch vis 1;
#X obj 130 581 pack s s;
#X msg 764 455 \; to_spatosc setConnectFilter ear;
#X msg 75 62 \; src1-ear.conn.plugin.patch vis 1;
#X text 1069 496 <-- Add properties;
#X msg 766 494 \; to_spatosc setNodeStringProperty ear type stereo
;
#X msg 765 519 \; to_spatosc setNodeStringProperty ear type stereo
;
#X msg 406 993 \; to_spatosc setPosition src1 \$1 \$2 \$3;
#X msg 338 39 \; to_spatosc connect src1 ear \;;
#X obj 359 535 r \$0-to_spatOSC;
#X text 355 513 from DSP_GRAPH (vmic params etc);
#X obj 401 314 list split 1;
#X obj 401 340 symbol2list /;
#X obj 400 368 unpack s s;
#X obj 401 254 OSCparse /spatosc/core;
#X obj 401 285 OSCparse /connection;
#X obj 457 402 list append;
#X obj 399 394 t b s;
#X obj 457 428 anyreg \$0-list;
#X obj 460 487 s;
#X obj 458 454 list trim;
#X text 547 246 need messages to audio-renderer such as "createListener
\, creeateNode \, connect \, disconnect.;
#X text 549 276 Also need to be able to set/get/save/recall params
in spatOSC;
#X text 551 317 DELAY and AED are partially redundant;
#X msg 336 -33 \; to_spatosc createSource src1 \, createListener ear
\; ear setPlugin ar.listener-stereo~ \; src1 setPlugin testTone~;
#X obj 166 780 bng 15 250 50 0 \$0-open-attenuation empty audio_I/0_attenuation
17 7 1 12 -262144 -1 -1;
#X obj 167 821 dsp.IO \$0;
#X obj 167 800 r \$0-dspCtl;
#X msg 365 107 \; src1 setParam fq \$1;
#X obj 415 757 grid grid1 100 0 199 100 0 199 0 1 1 10 10 454 779;
#X obj 415 869 - 100;
#X obj 502 876 - 100;
#X floatatom 653 935 5 0 0 0 - - -;
#X floatatom 692 935 5 0 0 0 - - -;
#X floatatom 731 935 5 0 0 0 - - -;
#N canvas 0 22 290 211 pack3f 0;
#X obj 79 103 pack f f f;
#X obj 99 73 t b f;
#X obj 144 71 t b f;
#X obj 63 44 inlet;
#X obj 110 41 inlet;
#X obj 162 45 inlet;
#X obj 80 137 outlet;
#X connect 0 0 6 0;
#X connect 1 0 0 0;
#X connect 1 1 0 1;
#X connect 2 0 0 0;
#X connect 2 1 0 2;
#X connect 3 0 0 0;
#X connect 4 0 1 0;
#X connect 5 0 2 0;
#X restore 653 955 pd pack3f;
#X obj 662 739 grid grid1 100 0 199 100 0 199 0 1 1 10 10 717 797;
#X obj 662 851 - 100;
#X obj 749 858 - 100;
#X text 432 717 source;
#X text 684 711 listener;
#X connect 0 0 3 0;
#X connect 1 0 3 1;
#X connect 2 0 3 2;
#X connect 3 0 53 0;
#X connect 5 0 60 0;
#X connect 9 0 8 0;
#X connect 10 0 40 0;
#X connect 11 0 17 0;
#X connect 12 0 6 0;
#X connect 13 0 7 0;
#X connect 14 0 28 0;
#X connect 15 0 6 2;
#X connect 16 0 7 2;
#X connect 17 0 12 0;
#X connect 19 0 74 0;
#X connect 20 0 7 1;
#X connect 20 0 6 1;
#X connect 20 0 22 1;
#X connect 23 0 22 0;
#X connect 24 0 27 0;
#X connect 25 0 24 0;
#X connect 26 0 22 2;
#X connect 27 0 23 0;
#X connect 28 0 13 0;
#X connect 30 0 22 1;
#X connect 33 0 11 0;
#X connect 34 0 47 0;
#X connect 39 0 9 0;
#X connect 40 0 35 0;
#X connect 40 1 36 0;
#X connect 40 2 38 0;
#X connect 40 3 41 0;
#X connect 47 0 14 0;
#X connect 55 0 9 0;
#X connect 57 0 58 0;
#X connect 57 1 62 1;
#X connect 58 0 59 0;
#X connect 59 0 63 0;
#X connect 59 1 62 0;
#X connect 60 0 61 0;
#X connect 61 0 57 0;
#X connect 62 0 64 0;
#X connect 63 0 64 0;
#X connect 63 1 65 1;
#X connect 64 0 66 0;
#X connect 66 0 65 0;
#X connect 73 0 72 0;
#X connect 75 0 76 0;
#X connect 75 1 77 0;
#X connect 76 0 0 0;
#X connect 77 0 1 0;
#X connect 78 0 81 0;
#X connect 79 0 81 1;
#X connect 80 0 81 2;
#X connect 81 0 37 0;
#X connect 82 0 83 0;
#X connect 82 1 84 0;
#X connect 83 0 78 0;
#X connect 84 0 79 0;
