#N canvas 605 55 763 669 10;
#X obj -40 85 tgl 50 0 empty empty success 17 -7 0 10 -258113 -1 -1
1 1;
#X obj -40 27 r to_spatosc;
#X obj 415 50 grid grid1 100 0 199 100 0 199 0 1 1 10 10 471 113;
#X obj 532 49 grid grid1 100 0 199 100 0 199 0 1 1 10 10 572 153;
#X text 418 23 source;
#X text 538 25 listener;
#N canvas 715 22 917 639 SPIN_INTEGRATION 0;
#X text 26 -48 ListenerNode: setType is ignored \, since the setPlugin
"listener-type~" automatically generates the proper "type" state for
its connections;
#X text 26 6 SoundNodes and ListenerNodes: setParam should be translated
as follows:;
#X text 32 -117 SPIN MESSAGES ---> OSCSPAT;
#X text 33 57 setParam keyword valaue -----> prop keyword value;
#X text 35 97 setVUmeterFlag value -----> prop setVUmeterFlag value
;
#X text 35 123 setPlugin name -----> prop setPlugin value;
#X text 36 154 setActive value -----> prop setActive value;
#X text 28 205 createNode name ListenerNode -----> createListener name
;
#X text 27 226 createNode name SoundNode -----> createSource name;
#X text 26 253 /src-node connect sink-node -----> connect src-node
sink-node;
#X text 36 396 NOTE: spatOSC "auto-connect" feature must be disabled
;
#X text 30 307 /node setTranslation x y z -----> setPosition node x
y z (note: global x y z);
#X text 38 422 NOTE: spatOSC has only one "connect" message--- what
about connecting sources to sinks which are not listeners ???;
#X restore -33 209 pd SPIN_INTEGRATION;
#X obj -33 241 cnv 15 24 24 empty empty 1 4 12 1 24 -99865 -262144
0;
#N canvas 0 351 584 459 dynamic 0;
#X obj 40 36 inlet;
#X obj 102 38 inlet;
#X obj 283 43 inlet;
#X obj 345 45 inlet;
#X floatatom 43 164 5 0 0 0 - - -;
#X floatatom 82 164 5 0 0 0 - - -;
#X floatatom 121 164 5 0 0 0 - - -;
#N canvas 0 22 290 211 pack3f 0;
#X obj 79 103 pack f f f;
#X obj 99 73 t b f;
#X obj 144 71 t b f;
#X obj 63 44 inlet;
#X obj 110 41 inlet;
#X obj 162 45 inlet;
#X obj 80 137 outlet;
#X connect 0 0 6 0;
#X connect 1 0 0 0;
#X connect 1 1 0 1;
#X connect 2 0 0 0;
#X connect 2 1 0 2;
#X connect 3 0 0 0;
#X connect 4 0 1 0;
#X connect 5 0 2 0;
#X restore 43 184 pd pack3f;
#X msg 325 196 \; to_spatosc setPosition ear \$1 \$2 \$3;
#X msg 42 221 \; to_spatosc setPosition src1 \$1 \$2 \$3;
#X obj 45 129 - 100;
#X obj 132 136 - 100;
#X floatatom 327 142 5 0 0 0 - - -;
#X floatatom 366 142 5 0 0 0 - - -;
#X floatatom 411 141 5 0 0 0 - - -;
#N canvas 0 22 290 211 pack3f 0;
#X obj 79 103 pack f f f;
#X obj 99 73 t b f;
#X obj 144 71 t b f;
#X obj 63 44 inlet;
#X obj 110 41 inlet;
#X obj 162 45 inlet;
#X obj 80 137 outlet;
#X connect 0 0 6 0;
#X connect 1 0 0 0;
#X connect 1 1 0 1;
#X connect 2 0 0 0;
#X connect 2 1 0 2;
#X connect 3 0 0 0;
#X connect 4 0 1 0;
#X connect 5 0 2 0;
#X restore 327 170 pd pack3f;
#X obj 327 101 - 100;
#X obj 414 108 - 100;
#X connect 0 0 10 0;
#X connect 1 0 11 0;
#X connect 2 0 16 0;
#X connect 3 0 17 0;
#X connect 4 0 7 0;
#X connect 5 0 7 1;
#X connect 6 0 7 2;
#X connect 7 0 9 0;
#X connect 10 0 4 0;
#X connect 11 0 5 0;
#X connect 12 0 15 0;
#X connect 13 0 15 1;
#X connect 14 0 15 2;
#X connect 15 0 8 0;
#X connect 16 0 12 0;
#X connect 17 0 13 0;
#X restore 487 170 pd dynamic;
#N canvas 761 264 983 873 SPAT_OSC_MESSAGES 0;
#X floatatom 59 79 5 0 0 0 - - -;
#X msg 41 -243 \; to_spatosc setConnectFilter ear;
#X text 451 -181 <-- Add properties;
#X text 49 -8 Also need to be able to set/get/save/recall params in
spatOSC;
#X text 102 5 DELAY and AED are partially redundant;
#X msg 60 108 \; src1 setParam fq \$1;
#X msg 46 -65 \; to_spatosc connect src1 ear \;;
#X msg 46 -192 \; to_spatosc setNodeStringProperty ear vmicL.channel
"9";
#X text 381 -131 <-- Add properties;
#X msg 46 -145 \; to_spatosc setNodeStringProperty ear setPlugin ar.listener-stereo~
;
#X text 45 -85 not needed with auto-connect;
#X text 62 55 need to deal with numbers;
#X msg 60 150 \; to_spatosc setNodeFloatProperty src fq 9;
#X msg 33 263 \; to_spatosc createSource src1;
#X msg 253 343 \; to_spatosc disconnect src1 ear \;;
#X msg 35 342 \; to_spatosc connect src1 ear \;;
#X msg 242 262 \; to_spatosc deleteNode src1;
#X msg 32 299 \; to_spatosc createListener ear;
#X msg 252 302 \; to_spatosc deleteNode ear;
#X msg 33 404 \; to_spatosc clearScene \;;
#X msg 34 471 \; to_spatosc setNodeFloatProperty ear setSpread 1;
#X connect 0 0 5 0;
#X restore -34 187 pd SPAT_OSC_MESSAGES;
#N canvas 314 181 608 479 temp 0;
#X obj 20 53 iterN 20;
#X obj 20 30 bng 15 250 50 0 empty empty empty 17 7 0 10 -262144 -1
-1;
#X obj 20 81 t f b;
#X obj 109 80 random 200;
#X obj 108 107 - 100;
#X obj 194 81 random 200;
#X obj 193 108 - 100;
#X obj 6 150 pack f f f;
#X msg 22 213 \; to_spatosc createSource src-\$1 \; to_spatosc setNodeStringProperty
src-\$1 setPlugin testone~ \; to_spatosc connect src-\$1 ear \; to_spatosc
setPosition src-\$1 \$2 \$3 0;
#X msg 55 378 \; to_spatosc createListener ear \;;
#X connect 0 0 2 0;
#X connect 1 0 0 0;
#X connect 2 0 7 0;
#X connect 2 1 3 0;
#X connect 2 1 5 0;
#X connect 3 0 4 0;
#X connect 4 0 7 1;
#X connect 5 0 6 0;
#X connect 6 0 7 2;
#X connect 7 0 8 0;
#X restore 0 358 pd temp;
#X msg -1 291 \; to_spatosc createSource src1 \, createSource src2
\, createListener ear \, setNodeStringProperty src1 setPlugin testone~
\, setNodeStringProperty src2 setPlugin testone~;
#X msg 2 239 \; to_spatosc createSource src1 \, createListener ear
\, setNodeStringProperty src1 setPlugin testnoise~;
#X msg 184 461 \; to_renderer src1.plugin.patch vis 1;
#X msg 182 503 \; to_renderer ear.plugin.patch vis 1;
#X msg 228 541 \; to_renderer src1-ear.conn.plugin.patch vis 1;
#X msg -12 542 \; to_renderer src1-ear.conn.patch vis 1;
#X msg -11 458 \; to_renderer src1.patch vis 1;
#X msg -11 500 \; to_renderer ear.patch vis 1;
#X obj -40 53 spatosc;
#X obj 158 13 loadbang;
#X msg 50 78 \; to_spatosc addTranslator spatdif SpatdifTranslator
localhost \$1;
#X msg 51 130 \; to_spatosc clearScene \; to_renderer clear-all bang
;
#N canvas 0 22 450 300 debug 0;
#X obj 102 154 OSCtx;
#X obj 83 54 r to_renderer;
#X obj 84 83 OSCprepend /spatosc/debug;
#X msg 101 129 setAddress localhost \$1;
#X obj 100 104 r spatOSC-port;
#X msg 52 178 port \$1;
#X obj 52 200 print spatOSC-tx;
#X connect 1 0 2 0;
#X connect 2 0 0 0;
#X connect 3 0 0 0;
#X connect 4 0 3 0;
#X connect 4 0 5 0;
#X connect 5 0 6 0;
#X restore 260 161 pd debug;
#X obj 50 17 r spatOSC-port;
#X msg 158 35 \; spatOSC-port 18032;
#X connect 1 0 19 0;
#X connect 2 0 8 0;
#X connect 2 1 8 1;
#X connect 3 0 8 2;
#X connect 3 1 8 3;
#X connect 19 0 0 0;
#X connect 20 0 25 0;
#X connect 24 0 21 0;
