#N canvas -465 48 416 226 12;
#X obj 96 81 bng 15 250 50 0 \$0-open-attenuation empty audio_I/0_attenuation
17 7 1 12 -262144 -1 -1;
#X msg 95 29 \; see-nodes bang;
#X floatatom -48 97 7 0 0 3 spatOSCrx-port spatOSC-port-set spatOSC-port
;
#N canvas 0 256 1166 821 RX-from-spatOSC 0;
#X obj -2 202 list split 1;
#X obj -2 228 symbol2list /;
#X obj -3 256 unpack s s;
#X obj -1 59 OSCparse /spatosc/core;
#X obj -2 173 OSCparse /connection;
#X obj 54 290 list append;
#X obj -3 224 t b s;
#X obj 54 316 anyreg \$0-list;
#X obj 57 375 s;
#X obj 55 342 list trim;
#X obj 116 231 s createNode;
#X obj 399 251 s connectListener;
#X obj 198 232 symbol;
#X obj 630 250 OSCroute /listener /source;
#X obj 707 304 t a a;
#X obj 736 455 anyreg \$0-mess;
#X obj 737 484 list split 1;
#X obj 737 509 symbol2list /;
#X obj 737 535 list split 1;
#X obj 737 561 list trim;
#X obj 612 381 OSCparse /*/prop;
#X obj 613 460 list trim;
#X obj 613 620 send;
#X obj 612 431 t l b;
#X obj 738 584 symbol;
#X obj 613 409 list prepend prop;
#X text 756 304 property messages parsed out and forwarded to node
;
#X text 611 638 prop keyword value;
#X obj 294 250 s deleteNode;
#X obj 160 169 route createSoundSource createListener deleteNode connect
disconnect;
#X obj 413 225 s disconnectListener;
#X obj 0 21 r from_spatosc;
#X obj 32 93 route clear;
#X msg 32 120 \; clear bang;
#X obj 238 289 t b s;
#X obj 236 648 send;
#X msg 18 540 prop setPlugin ar.listener-\$1~;
#X obj 69 475 r \$0-update-output-format!;
#X obj 18 509 anyreg \$0-output-format stereo;
#X obj 288 333 s createNode;
#X connect 0 0 1 0;
#X connect 0 1 5 1;
#X connect 1 0 2 0;
#X connect 2 0 6 0;
#X connect 2 1 5 0;
#X connect 3 0 4 0;
#X connect 3 0 32 0;
#X connect 4 0 0 0;
#X connect 4 1 29 0;
#X connect 5 0 7 0;
#X connect 6 0 7 0;
#X connect 6 1 8 1;
#X connect 7 0 9 0;
#X connect 9 0 8 0;
#X connect 12 0 34 0;
#X connect 13 0 14 0;
#X connect 13 1 14 0;
#X connect 14 0 20 0;
#X connect 14 1 15 0;
#X connect 15 0 16 0;
#X connect 16 0 17 0;
#X connect 17 0 18 0;
#X connect 18 0 19 0;
#X connect 19 0 24 0;
#X connect 20 0 25 0;
#X connect 21 0 22 0;
#X connect 23 0 21 0;
#X connect 23 1 15 0;
#X connect 24 0 22 1;
#X connect 25 0 23 0;
#X connect 29 0 10 0;
#X connect 29 1 12 0;
#X connect 29 2 28 0;
#X connect 29 3 11 0;
#X connect 29 4 30 0;
#X connect 29 5 13 0;
#X connect 31 0 3 0;
#X connect 32 0 33 0;
#X connect 34 0 38 0;
#X connect 34 1 35 1;
#X connect 34 1 39 0;
#X connect 36 0 35 0;
#X connect 37 0 38 0;
#X connect 38 0 36 0;
#X restore -51 -12 pd RX-from-spatOSC;
#N canvas 361 98 1021 802 DSP-GRAPH 0;
#X obj 51 93 symbol;
#X msg 288 165 \$1 \$2 \$1-\$2.conn;
#X obj 421 306 bng 15 250 50 0 empty see-nodes see-nodes 17 7 0 10
-262144 -1 -1;
#X obj 51 123 list prepend ar.SoundNode \$0;
#X msg 622 148 \$1 \$2 \$1-\$2.conn;
#X obj 621 177 list prepend ar.SoundConnection \$0;
#X obj 288 194 list prepend ar.ListenerConnection \$0;
#X obj 51 66 r createNode;
#X obj 288 115 r connectListener;
#X obj 288 139 pack s s;
#X msg 51 151 \$3 \$1 \$2 \$3;
#X obj 343 498 ar.dspGen;
#X msg 288 223 \$5 \$1 \$2 \$3 \$4 \$5;
#X obj 623 121 r connectNode;
#X msg 621 206 \$5 \$1 \$2 \$3 \$4 \$5;
#X obj 585 407 symbol;
#X obj 659 291 r deleteNode;
#X obj 660 341 pack s s;
#X obj 660 317 r disconnectListener;
#X msg 660 367 \$1-\$2.conn;
#X obj 587 514 r \$0-to-SPIN;
#X obj 588 578 OSCroute /*;
#X obj 588 611 route setParam;
#X obj 751 579 list split 1;
#X obj 587 542 t a a;
#X obj 752 611 symbol2list /;
#X obj 728 733 send;
#X obj 589 648 list prepend setParam;
#X obj 589 677 list trim;
#X text 582 462 this temporary short-cut eliminates routing params
thru spin (could always update the param-declare abstraction instead)
;
#X obj 149 524 dsp.IO \$0;
#X obj 149 503 r \$0-dspCtl;
#X obj 373 268 r clear;
#X obj 465 261 print \$0-renderer;
#X msg 465 234 "clearing scene";
#X connect 0 0 3 0;
#X connect 1 0 6 0;
#X connect 2 0 11 2;
#X connect 3 0 10 0;
#X connect 4 0 5 0;
#X connect 5 0 14 0;
#X connect 6 0 12 0;
#X connect 7 0 0 0;
#X connect 8 0 9 0;
#X connect 9 0 1 0;
#X connect 10 0 11 0;
#X connect 12 0 11 0;
#X connect 13 0 4 0;
#X connect 14 0 11 0;
#X connect 15 0 11 3;
#X connect 16 0 15 0;
#X connect 17 0 19 0;
#X connect 18 0 17 0;
#X connect 19 0 15 0;
#X connect 20 0 24 0;
#X connect 21 0 22 0;
#X connect 22 0 27 0;
#X connect 23 0 25 0;
#X connect 24 0 21 0;
#X connect 24 1 23 0;
#X connect 25 0 26 1;
#X connect 27 0 28 0;
#X connect 28 0 26 0;
#X connect 31 0 30 0;
#X connect 32 0 11 1;
#X connect 32 0 34 0;
#X connect 34 0 33 0;
#X restore -49 40 pd DSP-GRAPH;
#N canvas 18 347 925 480 misc 0;
#X msg 45 247 clear \, obj 161 49 OSCrx \$1 \, obj 161 77 s from_spatosc
\, connect 0 0 1 0;
#X obj 49 23 loadbang;
#X msg 49 50 18032;
#X obj 74 205 print spatOSC-rx;
#X msg 74 173 port \$1;
#X obj 208 55 spigot;
#X obj 208 81 print FROM__SPATOSC;
#X obj 208 29 r from_spatosc;
#X obj 261 56 r \$0-print-mess;
#X obj 44 143 r spatOSC-port;
#X obj 49 80 s spatOSC-port;
#X msg 199 177 set \$1;
#X obj 199 204 s spatOSC-port-set;
#X obj 45 294 s pd-spatOSC-RX;
#N canvas 0 630 450 300 spatOSC-RX 0;
#X obj 161 49 OSCrx 18032;
#X obj 161 77 s from_spatosc;
#X connect 0 0 1 0;
#X restore 44 318 pd spatOSC-RX;
#X msg 495 176 port \$1;
#X msg 630 180 set \$1;
#X obj 495 208 print renderer-rx;
#X obj 630 207 s renderer-port-set;
#X obj 466 297 s pd-renderer-RX;
#N canvas 0 630 450 300 renderer-RX 0;
#X obj 161 49 OSCrx 18222;
#X obj 161 77 s renderer-RX;
#X connect 0 0 1 0;
#X restore 465 321 pd renderer-RX;
#X obj 420 30 loadbang;
#X msg 420 57 18111;
#X obj 420 87 s renderer-port;
#X obj 537 60 spigot;
#X obj 590 61 r \$0-print-mess;
#X obj 537 86 print RENDERER-RX;
#X obj 465 146 r renderer-port;
#X msg 466 250 clear \, obj 161 49 OSCrx \$1 \, obj 161 77 s renderer-RX
\, connect 0 0 1 0;
#X obj 537 34 r renderer-RX;
#X obj 668 385 print a.renderer-error;
#X obj 668 356 r printerror;
#X connect 0 0 13 0;
#X connect 1 0 2 0;
#X connect 2 0 10 0;
#X connect 4 0 3 0;
#X connect 5 0 6 0;
#X connect 7 0 5 0;
#X connect 8 0 5 1;
#X connect 9 0 0 0;
#X connect 9 0 4 0;
#X connect 9 0 11 0;
#X connect 11 0 12 0;
#X connect 15 0 17 0;
#X connect 16 0 18 0;
#X connect 21 0 22 0;
#X connect 22 0 23 0;
#X connect 24 0 26 0;
#X connect 25 0 24 1;
#X connect 27 0 28 0;
#X connect 27 0 15 0;
#X connect 27 0 16 0;
#X connect 28 0 19 0;
#X connect 29 0 24 0;
#X connect 31 0 30 0;
#X restore -50 66 pd misc;
#X obj 98 107 tgl 15 0 \$0-print-mess empty print-spat-mess 17 7 0
12 -262144 -1 -1 0 1;
#X floatatom -47 142 7 0 0 3 renderer-port renderer-port-set renderer-port
;
#N canvas 0 22 615 690 readme 0;
#X text 51 113 where spatOSC messages are received: spatOSC-port 18032
;
#X text 49 19 when launched from the commandline \, the following arguments
can set the ports for RX messages (spatOSC and render-ctl) to the renderer.
;
#X text 53 75 pd -send "spatOSC-port 18032" -send "renderer-port 18111"
....;
#X text 53 140 and control/config messages are received: renderer-port
18111;
#X text 60 197 defaults are:;
#X text 71 240 renderer-port: 18111;
#X text 48 304 recognized messages to the renderer:;
#X text 75 220 spatOSC-port 18032;
#X text 49 359 /a.renderer/nodemess "node arg1 arg2 arg3..." sends
args to node;
#X text 51 404 /a.renderer/setOutputForamt [mono \, stereo \, quad
\, five.one \, seven.one \, octo \, or dome];
#X restore 99 -5 pd readme;
#N canvas 231 357 1042 628 renderer-CTl 0;
#X obj 0 21 r renderer-RX;
#X obj 0 197 list split 1;
#X obj 1 225 list trim;
#X obj 2 283 t b s;
#X obj 2 308 list append;
#X obj 1 252 symbol;
#X obj 2 335 list trim;
#X obj 78 337 send;
#X obj 0 109 OSCparse /a.renderer;
#X obj 186 205 OSCparse /setOutputFormat;
#X obj 257 382 route stereo quad five.one seven.one octo dome;
#X msg 317 426 quad;
#X msg 257 426 stereo;
#X msg 364 425 five.one;
#X msg 453 427 seven.one;
#X msg 533 429 octo;
#X msg 587 431 dome;
#X obj 643 457 s printerror;
#X msg 642 429 outputFormat \$1 not recognized;
#X obj 193 562 s \$0-update-output-format!;
#X obj 257 519 anyreg \$0-output-format;
#X obj 186 260 t b a;
#X obj 0 169 OSCparse /nodemess;
#X connect 0 0 8 0;
#X connect 1 0 2 0;
#X connect 1 1 4 1;
#X connect 2 0 5 0;
#X connect 3 0 4 0;
#X connect 3 1 7 1;
#X connect 4 0 6 0;
#X connect 5 0 3 0;
#X connect 6 0 7 0;
#X connect 8 0 22 0;
#X connect 9 0 21 0;
#X connect 10 0 12 0;
#X connect 10 1 11 0;
#X connect 10 2 13 0;
#X connect 10 3 14 0;
#X connect 10 4 15 0;
#X connect 10 5 16 0;
#X connect 10 6 18 0;
#X connect 11 0 20 0;
#X connect 12 0 20 0;
#X connect 13 0 20 0;
#X connect 14 0 20 0;
#X connect 15 0 20 0;
#X connect 16 0 20 0;
#X connect 18 0 17 0;
#X connect 21 0 19 0;
#X connect 21 1 10 0;
#X connect 22 0 1 0;
#X connect 22 1 9 0;
#X restore -51 12 pd renderer-CTl;
