#N canvas 545 38 1255 836 10;
#X obj 18 9 widget-spinConnect \$0;
#X obj 351 9 cnv 20 20 20 empty empty \$0=$zero 0 12 1 14 -262144 -66577
0;
#X obj 25 157 tgl 50 0 empty empty success 17 -7 0 10 -258113 -1 -1
1 1;
#X obj 25 99 r to_spatosc;
#X obj 25 125 spatosc;
#N canvas 506 498 1045 564 OSC-messaging 0;
#X obj 105 218 OSCtx;
#X msg 104 193 setAddress localhost \$1;
#X obj 104 165 r renderer-port;
#X msg 381 142 port \$1;
#X obj 381 164 print spatOSC-tx;
#X obj 381 112 r spatOSC-port;
#X msg 381 61 port \$1;
#X obj 381 83 print renderer-port;
#X obj 15 39 r to_renderer-db;
#X obj 217 37 r to_renderer;
#X obj 216 67 OSCprepend /a.renderer;
#X obj 381 38 r renderer-port;
#X obj 652 59 loadbang;
#X obj 534 80 r spatOSC-port;
#X msg 652 81 \; spatOSC-port 18032 \; renderer-port 18111;
#X obj 14 72 OSCprepend /a.renderer/nodemess;
#X obj 616 312 s renderer-port-set;
#X msg 616 287 set \$1;
#X obj 616 261 r renderer-port;
#X msg 759 289 set \$1;
#X obj 759 263 r spatOSC-port;
#X obj 759 314 s spatOSC-port-set;
#X msg 534 141 \; to_spatosc addTranslator spatdif SpatdifTranslator
localhost \$1 \, setAutoConnect 0;
#X connect 1 0 0 0;
#X connect 2 0 1 0;
#X connect 3 0 4 0;
#X connect 5 0 3 0;
#X connect 6 0 7 0;
#X connect 8 0 15 0;
#X connect 9 0 10 0;
#X connect 9 0 0 0;
#X connect 11 0 6 0;
#X connect 12 0 14 0;
#X connect 13 0 22 0;
#X connect 15 0 0 0;
#X connect 17 0 16 0;
#X connect 18 0 17 0;
#X connect 19 0 21 0;
#X connect 20 0 19 0;
#X restore 22 233 pd OSC-messaging;
#N canvas 112 273 983 873 SPAT_OSC_MESSAGES 0;
#X floatatom 59 79 5 0 0 0 - - -;
#X msg 41 -243 \; to_spatosc setConnectFilter ear;
#X text 451 -181 <-- Add properties;
#X text 49 -8 Also need to be able to set/get/save/recall params in
spatOSC;
#X text 102 5 DELAY and AED are partially redundant;
#X msg 46 -192 \; to_spatosc setNodeStringProperty ear vmicL.channel
"9";
#X text 381 -131 <-- Add properties;
#X msg 46 -145 \; to_spatosc setNodeStringProperty ear setPlugin ar.listener-stereo~
;
#X text 45 -85 not needed with auto-connect;
#X text 62 55 need to deal with numbers;
#X msg 32 299 \; to_spatosc createListener ear;
#X msg 252 302 \; to_spatosc deleteNode ear;
#X msg 33 404 \; to_spatosc clearScene \;;
#X msg 34 471 \; to_spatosc setNodeFloatProperty ear setSpread 1;
#X msg 60 107 \; src-0 setParam fq \$1;
#X msg 46 -65 \; to_spatosc connect src-0 ear \;;
#X msg 242 262 \; to_spatosc deleteNode src-0;
#X msg 253 343 \; to_spatosc disconnect src-0 ear \;;
#X msg 35 342 \; to_spatosc connect src-0 ear \;;
#X msg 33 263 \; to_spatosc createSource src-0;
#X msg 60 150 \; to_spatosc setNodeFloatProperty src-0 fq 9.1;
#X text 457 38 setDistanceFactor srcNode listenerNode factor;
#X connect 0 0 14 0;
#X restore 25 266 pd SPAT_OSC_MESSAGES;
#X obj 20 590 cnv 15 380 160 empty empty RENDERER_MESSAGES 4 12 0 16
-191407 -1 0;
#X floatatom 55 659 5 0 0 0 - - -;
#X obj 103 680 tgl 15 0 empty empty empty 17 7 0 10 -262144 -1 -1 1
1;
#X obj 38 732 s to_renderer;
#X msg 118 681 /a.renderer/nodemess pd dsp \$1;
#X msg 89 659 /a.renderer/nodemess src-0 setParam fq \$1;
#X msg 40 635 /a.renderer/setOutputFormat stereo;
#X msg 26 612 /a.renderer/setOutputFormat quad;
#X floatatom 127 707 5 -60 6 1 _db - -;
#X msg 128 728 /a.renderer/setOutputDB \$1;
#X floatatom 130 148 7 0 0 3 spatOSCrx-port spatOSC-port-set spatOSC-port
;
#X floatatom 128 104 7 0 0 3 renderer-port renderer-port-set renderer-port
;
#X obj 375 247 s \$0-to-SPIN;
#N canvas 181 147 1340 778 Spin->spatOSC_message-mapper 0;
#X obj 27 -383 r \$0-from-SPIN;
#X obj 26 -313 list;
#X msg 26 -288 \$2 \$1;
#X msg 23 -133 \; to_spatosc createSource \$1;
#X obj 25 -232 symbol;
#X obj 26 -258 route SoundNode Listener;
#X obj 96 -227 symbol;
#X msg 48 -179 \; to_spatosc createListener \$1;
#X obj 26 -349 route createNode clear;
#X msg 89 -315 \; to_spatosc clearScene \;;
#X obj 290 -211 OSCparse /*;
#X obj 291 -302 t a a;
#X obj 316 -256 OSCsplit;
#X obj 244 -19 pack s s;
#X obj 372 -231 symbol;
#X msg 245 12 \; to_spatosc connect \$2 \$1;
#X obj 320 -64 pack s s;
#X msg 321 -33 \; to_spatosc disconnect \$2 \$1;
#X obj 422 129 pack s s;
#X obj 419 27 symbol;
#X obj 419 51 symbol2list -;
#X obj 419 101 route listener;
#X obj 419 76 list trim;
#X msg 422 160 \; to_spatosc setNodeStringProperty \$2 setPlugin \$1
;
#X text 496 75 ignore listener plugins;
#X obj 656 6 pack f s;
#X msg 241 82 store \$2-\$1.conn \$2 \$1;
#X msg 238 56 remove \$2-\$1.conn;
#X obj 241 108 coll \$0-connectionNodes;
#C restore;
#X obj 712 67 coll \$0-connectionNodes;
#C restore;
#X obj 655 35 unpack f s;
#X obj 657 93 list append;
#X msg 657 121 \; to_spatosc setDistanceFactor \$2 \$3 \$1;
#X obj 889 38 pack f s;
#X obj 945 99 coll \$0-connectionNodes;
#C restore;
#X obj 888 67 unpack f s;
#X obj 890 134 list append;
#X msg 890 162 \; to_spatosc setDopplerFactor \$2 \$3 \$1;
#X obj 290 -173 route connect disconnect setPlugin setDistanceEffect
setDopplerEffect;
#X obj 478 128 r \$0-node;
#X obj 814 -20 r \$0-node;
#X obj 421 -210 s \$0-node;
#X obj 300 -108 r \$0-node;
#X obj 841 -104 list append;
#X obj 788 -219 route global6DOF;
#X obj 900 -201 r \$0-node;
#X obj 788 -194 list split 3;
#X obj 959 -138 list append;
#X msg 841 -76 \; to_spatosc setPosition \$4 \$1 \$2 \$3;
#X msg 959 -110 \; to_spatosc setOrientation \$4 \$1 \$2 \$3;
#X connect 0 0 8 0;
#X connect 1 0 2 0;
#X connect 2 0 5 0;
#X connect 4 0 3 0;
#X connect 5 0 4 0;
#X connect 5 1 6 0;
#X connect 6 0 7 0;
#X connect 8 0 1 0;
#X connect 8 1 9 0;
#X connect 8 2 11 0;
#X connect 10 0 38 0;
#X connect 11 0 10 0;
#X connect 11 1 12 0;
#X connect 12 1 14 0;
#X connect 13 0 15 0;
#X connect 13 0 26 0;
#X connect 14 0 41 0;
#X connect 16 0 17 0;
#X connect 16 0 27 0;
#X connect 18 0 23 0;
#X connect 19 0 20 0;
#X connect 20 0 22 0;
#X connect 21 1 18 0;
#X connect 22 0 21 0;
#X connect 25 0 30 0;
#X connect 26 0 28 0;
#X connect 27 0 28 0;
#X connect 29 0 31 1;
#X connect 30 0 31 0;
#X connect 30 1 29 0;
#X connect 31 0 32 0;
#X connect 33 0 35 0;
#X connect 34 0 36 1;
#X connect 35 0 36 0;
#X connect 35 1 34 0;
#X connect 36 0 37 0;
#X connect 38 0 13 0;
#X connect 38 1 16 0;
#X connect 38 2 19 0;
#X connect 38 3 25 0;
#X connect 38 4 33 0;
#X connect 38 5 44 0;
#X connect 39 0 18 1;
#X connect 40 0 25 1;
#X connect 40 0 33 1;
#X connect 42 0 13 1;
#X connect 42 0 16 1;
#X connect 43 0 48 0;
#X connect 44 0 46 0;
#X connect 45 0 43 1;
#X connect 45 0 47 1;
#X connect 46 0 43 0;
#X connect 46 1 47 0;
#X connect 47 0 49 0;
#X restore 377 77 pd Spin->spatOSC_message-mapper;
#X msg 317 252 clear;
#X obj 15 334 cnv 15 700 240 empty empty debug 4 12 0 14 -233017 -1
0;
#X msg 27 420 \; to_renderer-db ear.patch vis 1;
#X msg 26 462 \; to_renderer-db src-0-ear.conn.patch vis 1;
#X msg 291 383 \; to_renderer-db src-0.plugin.patch vis 1;
#X msg 289 425 \; to_renderer-db ear.plugin.patch vis 1;
#X msg 291 464 \; to_renderer-db src-0-ear.conn.plugin.patch vis 1
;
#X text 65 358 nodes;
#X text 349 360 plugins;
#X msg 27 378 \; to_renderer-db src-0.patch vis 1;
#X msg 567 230 /src-0-ear.conn setDistanceEffect \$1;
#X msg 522 287 /src-0-ear.conn setDopplerEffect \$1;
#X floatatom 522 264 5 0 0 0 - - -;
#X floatatom 567 208 5 0 0 0 - - -;
#X obj 866 61 grid grid1 100 0 199 100 0 199 0 1 1 10 10 921 104;
#X obj 982 61 grid grid1 100 0 199 100 0 199 0 1 1 10 10 1033 108;
#X text 871 36 source;
#X text 974 34 listener;
#N canvas 0 351 856 474 dynamic 0;
#X obj 40 36 inlet;
#X obj 102 38 inlet;
#X obj 283 43 inlet;
#X obj 345 45 inlet;
#X floatatom 43 164 5 0 0 0 - - -;
#X floatatom 82 164 5 0 0 0 - - -;
#X floatatom 121 164 5 0 0 0 - - -;
#N canvas 0 22 290 211 pack3f 0;
#X obj 79 103 pack f f f;
#X obj 99 73 t b f;
#X obj 144 71 t b f;
#X obj 63 44 inlet;
#X obj 110 41 inlet;
#X obj 162 45 inlet;
#X obj 80 137 outlet;
#X connect 0 0 6 0;
#X connect 1 0 0 0;
#X connect 1 1 0 1;
#X connect 2 0 0 0;
#X connect 2 1 0 2;
#X connect 3 0 0 0;
#X connect 4 0 1 0;
#X connect 5 0 2 0;
#X restore 43 184 pd pack3f;
#X obj 45 129 - 100;
#X obj 132 136 - 100;
#X floatatom 327 142 5 0 0 0 - - -;
#X floatatom 366 142 5 0 0 0 - - -;
#X floatatom 411 141 5 0 0 0 - - -;
#N canvas 0 22 290 211 pack3f 0;
#X obj 79 103 pack f f f;
#X obj 99 73 t b f;
#X obj 144 71 t b f;
#X obj 63 44 inlet;
#X obj 110 41 inlet;
#X obj 162 45 inlet;
#X obj 80 137 outlet;
#X connect 0 0 6 0;
#X connect 1 0 0 0;
#X connect 1 1 0 1;
#X connect 2 0 0 0;
#X connect 2 1 0 2;
#X connect 3 0 0 0;
#X connect 4 0 1 0;
#X connect 5 0 2 0;
#X restore 327 170 pd pack3f;
#X obj 327 101 - 100;
#X obj 414 108 - 100;
#X obj 488 33 inlet;
#X obj 308 360 s \$0-to-SPIN;
#X msg 42 221 /src-0 setTranslation \$1 \$2 \$3;
#X msg 326 231 /ear setTranslation \$1 \$2 \$3;
#X msg 512 117 /ear setOrientation 0 0 \$1;
#X connect 0 0 8 0;
#X connect 1 0 9 0;
#X connect 2 0 14 0;
#X connect 3 0 15 0;
#X connect 4 0 7 0;
#X connect 5 0 7 1;
#X connect 6 0 7 2;
#X connect 7 0 18 0;
#X connect 8 0 4 0;
#X connect 9 0 5 0;
#X connect 10 0 13 0;
#X connect 11 0 13 1;
#X connect 12 0 13 2;
#X connect 13 0 19 0;
#X connect 14 0 10 0;
#X connect 15 0 11 0;
#X connect 16 0 20 0;
#X connect 18 0 17 0;
#X connect 19 0 17 0;
#X connect 20 0 17 0;
#X restore 938 172 pd dynamic;
#X floatatom 1036 34 5 0 0 1 orientation - -;
#X msg 588 64 /src-0 setPlugin testnoise~;
#X obj 587 91 s \$0-to-SPIN;
#X obj 345 149 bng 15 250 50 0 empty empty empty 17 7 0 10 -262144
-1 -1;
#X msg 377 129 createNode src-0 SoundNode \, createNode ear Listener
\, /src-0 connect ear \, /src-0 setPlugin testone~ \, createNode src-0-shp
ShapeNode \, createNode ear-shp ShapeNode \, /src-0-shp setShape 1
\, /ear-shp setShape 2 \, /src-0-shp setParent src-0 \, /ear-shp setParent
ear;
#X connect 3 0 4 0;
#X connect 4 0 2 0;
#X connect 8 0 12 0;
#X connect 9 0 11 0;
#X connect 11 0 10 0;
#X connect 12 0 10 0;
#X connect 13 0 10 0;
#X connect 14 0 10 0;
#X connect 15 0 16 0;
#X connect 16 0 10 0;
#X connect 21 0 19 0;
#X connect 31 0 19 0;
#X connect 32 0 19 0;
#X connect 33 0 32 0;
#X connect 34 0 31 0;
#X connect 35 0 39 0;
#X connect 35 1 39 1;
#X connect 36 0 39 2;
#X connect 36 1 39 3;
#X connect 40 0 39 4;
#X connect 41 0 42 0;
#X connect 43 0 44 0;
#X connect 44 0 19 0;
