#N canvas 24 38 329 176 12;
#X obj 97 47 bng 15 250 50 0 \$0-open-attenuation empty audio_I/0_attenuation
17 7 1 12 -262144 -1 -1;
#X msg 99 -9 \; see-nodes bang;
#X floatatom -50 70 7 0 0 3 spatOSCrx-port spatOSC-port-set spatOSC-port
;
#N canvas 184 210 1203 717 RX-from-spatOSC 0;
#X obj -2 177 list split 1;
#X obj -2 203 symbol2list /;
#X obj -3 231 unpack s s;
#X obj -1 59 OSCparse /spatosc/core;
#X obj -2 148 OSCparse /connection;
#X obj 54 265 list append;
#X obj -3 199 t b s;
#X obj 54 291 anyreg \$0-list;
#X obj 57 350 s;
#X obj 55 317 list trim;
#X obj 116 206 s createNode;
#X obj 399 226 s connectListener;
#X obj 198 207 symbol;
#X obj 630 250 OSCroute /listener /source;
#X obj 707 304 t a a;
#X obj 736 455 anyreg \$0-mess;
#X obj 737 484 list split 1;
#X obj 737 509 symbol2list /;
#X obj 737 535 list split 1;
#X obj 737 561 list trim;
#X obj 612 381 OSCparse /*/prop;
#X obj 613 460 list trim;
#X obj 613 620 send;
#X obj 612 431 t l b;
#X obj 738 584 symbol;
#X obj 613 409 list prepend prop;
#X msg 197 262 \; createNode \$1 \; \$1 prop setPlugin ar.listener-stereo~
;
#X text 756 304 property messages parsed out and forwarded to node
;
#X text 611 638 prop keyword value;
#X obj 294 225 s deleteNode;
#X obj 160 144 route createSoundSource createListener deleteNode connect
disconnect;
#X obj 413 200 s disconnectListener;
#X obj 0 21 r from_spatosc;
#X obj 633 38 OSCparse /spatosc/debug;
#X obj 633 66 list split 1;
#X obj 634 94 list trim;
#X obj 635 152 t b s;
#X obj 635 177 list append;
#X obj 634 121 symbol;
#X obj 635 204 list trim;
#X obj 711 206 send;
#X connect 0 0 1 0;
#X connect 0 1 5 1;
#X connect 1 0 2 0;
#X connect 2 0 6 0;
#X connect 2 1 5 0;
#X connect 3 0 4 0;
#X connect 3 1 33 0;
#X connect 4 0 0 0;
#X connect 4 1 30 0;
#X connect 5 0 7 0;
#X connect 6 0 7 0;
#X connect 6 1 8 1;
#X connect 7 0 9 0;
#X connect 9 0 8 0;
#X connect 12 0 26 0;
#X connect 13 0 14 0;
#X connect 13 1 14 0;
#X connect 14 0 20 0;
#X connect 14 1 15 0;
#X connect 15 0 16 0;
#X connect 16 0 17 0;
#X connect 17 0 18 0;
#X connect 18 0 19 0;
#X connect 19 0 24 0;
#X connect 20 0 25 0;
#X connect 21 0 22 0;
#X connect 23 0 21 0;
#X connect 23 1 15 0;
#X connect 24 0 22 1;
#X connect 25 0 23 0;
#X connect 30 0 10 0;
#X connect 30 1 12 0;
#X connect 30 2 29 0;
#X connect 30 3 11 0;
#X connect 30 4 31 0;
#X connect 30 5 13 0;
#X connect 32 0 3 0;
#X connect 33 0 34 0;
#X connect 34 0 35 0;
#X connect 34 1 37 1;
#X connect 35 0 38 0;
#X connect 36 0 37 0;
#X connect 36 1 40 1;
#X connect 37 0 39 0;
#X connect 38 0 36 0;
#X connect 39 0 40 0;
#X restore -51 -12 pd RX-from-spatOSC;
#N canvas 0 104 1021 802 DSP-GRAPH 0;
#X obj 51 93 symbol;
#X msg 288 165 \$1 \$2 \$1-\$2.conn;
#X obj 421 306 bng 15 250 50 0 empty see-nodes see-nodes 17 7 0 10
-262144 -1 -1;
#X obj 51 123 list prepend ar.SoundNode \$0;
#X obj 373 268 r clear-all;
#X msg 622 148 \$1 \$2 \$1-\$2.conn;
#X obj 621 177 list prepend ar.SoundConnection \$0;
#X obj 288 194 list prepend ar.ListenerConnection \$0;
#X obj 51 66 r createNode;
#X obj 288 115 r connectListener;
#X obj 288 139 pack s s;
#X msg 51 151 \$3 \$1 \$2 \$3;
#X obj 343 498 ar.dspGen;
#X msg 288 223 \$5 \$1 \$2 \$3 \$4 \$5;
#X obj 623 121 r connectNode;
#X msg 621 206 \$5 \$1 \$2 \$3 \$4 \$5;
#X obj 585 407 symbol;
#X obj 659 291 r deleteNode;
#X obj 660 341 pack s s;
#X obj 660 317 r disconnectListener;
#X msg 660 367 \$1-\$2.conn;
#X obj 587 514 r \$0-to-SPIN;
#X obj 588 578 OSCroute /*;
#X obj 588 611 route setParam;
#X obj 751 579 list split 1;
#X obj 587 542 t a a;
#X obj 752 611 symbol2list /;
#X obj 728 733 send;
#X obj 589 648 list prepend setParam;
#X obj 589 677 list trim;
#X text 582 462 this temporary short-cut eliminates routing params
thru spin (could always update the param-declare abstraction instead)
;
#X obj 149 524 dsp.IO \$0;
#X obj 149 503 r \$0-dspCtl;
#X connect 0 0 3 0;
#X connect 1 0 7 0;
#X connect 2 0 12 2;
#X connect 3 0 11 0;
#X connect 4 0 12 1;
#X connect 5 0 6 0;
#X connect 6 0 15 0;
#X connect 7 0 13 0;
#X connect 8 0 0 0;
#X connect 9 0 10 0;
#X connect 10 0 1 0;
#X connect 11 0 12 0;
#X connect 13 0 12 0;
#X connect 14 0 5 0;
#X connect 15 0 12 0;
#X connect 16 0 12 3;
#X connect 17 0 16 0;
#X connect 18 0 20 0;
#X connect 19 0 18 0;
#X connect 20 0 16 0;
#X connect 21 0 25 0;
#X connect 22 0 23 0;
#X connect 23 0 28 0;
#X connect 24 0 26 0;
#X connect 25 0 22 0;
#X connect 25 1 24 0;
#X connect 26 0 27 1;
#X connect 28 0 29 0;
#X connect 29 0 27 0;
#X connect 32 0 31 0;
#X restore -51 13 pd DSP-GRAPH;
#N canvas 0 97 609 465 misc 0;
#N canvas 0 674 450 300 OSC-RX 0;
#X obj 161 49 OSCrx 18032;
#X obj 161 77 s from_spatosc;
#X connect 0 0 1 0;
#X restore 44 318 pd OSC-RX;
#X obj 45 294 s pd-OSC-RX;
#X msg 45 247 clear \, obj 161 49 OSCrx \$1 \, obj 161 77 s from_spatosc
\, connect 0 0 1 0;
#X obj 49 23 loadbang;
#X msg 49 50 18032;
#X obj 74 205 print spatOSC-rx;
#X msg 74 173 port \$1;
#X obj 208 55 spigot;
#X obj 208 81 print FROM__SPATOSC;
#X obj 208 29 r from_spatosc;
#X obj 261 56 r \$0-print-mess;
#X obj 44 143 r spatOSC-port;
#X obj 49 80 s spatOSC-port;
#X msg 199 177 set \$1;
#X obj 199 204 s spatOSC-port-set;
#X connect 2 0 1 0;
#X connect 3 0 4 0;
#X connect 4 0 12 0;
#X connect 6 0 5 0;
#X connect 7 0 8 0;
#X connect 9 0 7 0;
#X connect 10 0 7 1;
#X connect 11 0 2 0;
#X connect 11 0 6 0;
#X connect 11 0 13 0;
#X connect 13 0 14 0;
#X restore -52 39 pd misc;
#X obj 99 73 tgl 15 0 \$0-print-mess empty print-spat-mess 17 7 0 12
-262144 -1 -1 0 1;
