#N canvas 393 26 575 773 10;
#X obj 19 -4 widget-spinConnect \$0;
#X obj 19 123 tgl 50 0 empty empty success 17 -7 0 10 -258113 -1 -1
1 1;
#X obj 19 65 r to_spatosc;
#X obj 19 91 spatosc;
#N canvas 506 498 873 336 OSC-messaging 0;
#X obj 105 218 OSCtx;
#X msg 104 193 setAddress localhost \$1;
#X obj 104 165 r renderer-port;
#X msg 381 142 port \$1;
#X obj 381 164 print spatOSC-tx;
#X obj 381 112 r spatOSC-port;
#X msg 381 61 port \$1;
#X obj 381 83 print renderer-port;
#X obj 15 39 r to_renderer-db;
#X obj 217 37 r to_renderer;
#X obj 216 67 OSCprepend /a.renderer;
#X obj 381 38 r renderer-port;
#X obj 652 59 loadbang;
#X obj 534 80 r spatOSC-port;
#X msg 652 81 \; spatOSC-port 18032 \; renderer-port 18111;
#X obj 14 72 OSCprepend /a.renderer/nodemess;
#X obj 528 252 s renderer-port-set;
#X msg 528 227 set \$1;
#X obj 528 201 r renderer-port;
#X msg 671 229 set \$1;
#X obj 671 203 r spatOSC-port;
#X obj 671 254 s spatOSC-port-set;
#X msg 534 141 \; to_spatosc addTranslator spatdif SpatdifTranslator
localhost \$1 \, setAutoConnect 0;
#X connect 1 0 0 0;
#X connect 2 0 1 0;
#X connect 3 0 4 0;
#X connect 5 0 3 0;
#X connect 6 0 7 0;
#X connect 8 0 15 0;
#X connect 9 0 10 0;
#X connect 9 0 0 0;
#X connect 11 0 6 0;
#X connect 12 0 14 0;
#X connect 13 0 22 0;
#X connect 15 0 0 0;
#X connect 17 0 16 0;
#X connect 18 0 17 0;
#X connect 19 0 21 0;
#X connect 20 0 19 0;
#X restore 93 145 pd OSC-messaging;
#X obj 17 525 cnv 15 380 160 empty empty RENDERER_MESSAGES 4 12 0 16
-191407 -1 0;
#X floatatom 52 594 5 0 0 0 - - -;
#X obj 100 615 tgl 15 0 empty empty empty 17 7 0 10 -262144 -1 -1 1
1;
#X obj 35 667 s to_renderer;
#X msg 115 616 /a.renderer/nodemess pd dsp \$1;
#X msg 86 594 /a.renderer/nodemess src-0 setParam fq \$1;
#X msg 37 570 /a.renderer/setOutputFormat stereo;
#X msg 23 547 /a.renderer/setOutputFormat quad;
#X floatatom 124 642 5 -60 6 1 _db - -;
#X msg 125 663 /a.renderer/setOutputDB \$1;
#X floatatom 121 105 7 0 0 3 spatOSCrx-port spatOSC-port-set spatOSC-port
;
#X floatatom 122 70 7 0 0 3 renderer-port renderer-port-set renderer-port
;
#N canvas 380 71 1461 749 Spin->spatOSC_message-mapper 0;
#X obj 33 -563 r \$0-from-SPIN;
#X obj 31 -459 list;
#X msg 31 -434 \$2 \$1;
#X msg 28 -279 \; to_spatosc createSource \$1;
#X obj 30 -378 symbol;
#X obj 31 -404 route SoundNode Listener;
#X obj 101 -373 symbol;
#X msg 53 -325 \; to_spatosc createListener \$1;
#X msg 95 -447 \; to_spatosc clearScene \;;
#X obj 296 -391 OSCparse /*;
#X obj 297 -482 t a a;
#X obj 322 -436 OSCsplit;
#X obj 250 -199 pack s s;
#X obj 378 -411 symbol;
#X msg 251 -168 \; to_spatosc connect \$2 \$1;
#X obj 326 -244 pack s s;
#X msg 327 -213 \; to_spatosc disconnect \$2 \$1;
#X obj 428 -51 pack s s;
#X obj 425 -153 symbol;
#X obj 425 -129 symbol2list -;
#X obj 425 -79 route listener;
#X obj 425 -104 list trim;
#X msg 428 -20 \; to_spatosc setNodeStringProperty \$2 setPlugin \$1
;
#X text 502 -105 ignore listener plugins;
#X obj 662 -174 pack f s;
#X msg 247 -98 store \$2-\$1.conn \$2 \$1;
#X msg 244 -124 remove \$2-\$1.conn;
#X obj 247 -72 coll \$0-connectionNodes;
#C restore;
#X obj 718 -113 coll \$0-connectionNodes;
#C restore;
#X obj 661 -145 unpack f s;
#X obj 663 -87 list append;
#X msg 663 -59 \; to_spatosc setDistanceFactor \$2 \$3 \$1;
#X obj 895 -142 pack f s;
#X obj 951 -81 coll \$0-connectionNodes;
#C restore;
#X obj 894 -113 unpack f s;
#X obj 896 -46 list append;
#X msg 896 -18 \; to_spatosc setDopplerFactor \$2 \$3 \$1;
#X obj 296 -353 route connect disconnect setPlugin setDistanceEffect
setDopplerEffect;
#X obj 484 -52 r \$0-node;
#X obj 820 -200 r \$0-node;
#X obj 427 -390 s \$0-node;
#X obj 306 -288 r \$0-node;
#X obj 847 -284 list append;
#X obj 911 -352 r \$0-node;
#X obj 794 -374 list split 3;
#X obj 965 -318 list append;
#X msg 847 -256 \; to_spatosc setPosition \$4 \$1 \$2 \$3;
#X msg 965 -290 \; to_spatosc setOrientation \$4 \$1 \$2 \$3;
#X obj 32 -530 route createNode clear deleteNode;
#X obj 161 -509 symbol;
#X msg 114 -486 \; to_spatosc deleteNode \$1;
#X obj 1084 -503 route float;
#X obj 794 -399 route global6DOF setParam;
#X obj 1218 -478 r \$0-node;
#X obj 1160 -435 pack s s s;
#X obj 1087 -534 list split 1;
#X msg 1087 -560 \$2 \$1;
#X obj 1087 -583 list;
#X obj 1085 -434 pack f s s;
#X msg 1159 -395 \; to_spatosc setNodeStringProperty \$3 \$2 \$1;
#X msg 1086 -343 \; to_spatosc setNodeFloatProperty \$3 \$2 \$1;
#X connect 0 0 48 0;
#X connect 1 0 2 0;
#X connect 2 0 5 0;
#X connect 4 0 3 0;
#X connect 5 0 4 0;
#X connect 5 1 6 0;
#X connect 6 0 7 0;
#X connect 9 0 37 0;
#X connect 10 0 9 0;
#X connect 10 1 11 0;
#X connect 11 1 13 0;
#X connect 12 0 14 0;
#X connect 12 0 25 0;
#X connect 13 0 40 0;
#X connect 15 0 16 0;
#X connect 15 0 26 0;
#X connect 17 0 22 0;
#X connect 18 0 19 0;
#X connect 19 0 21 0;
#X connect 20 1 17 0;
#X connect 21 0 20 0;
#X connect 24 0 29 0;
#X connect 25 0 27 0;
#X connect 26 0 27 0;
#X connect 28 0 30 1;
#X connect 29 0 30 0;
#X connect 29 1 28 0;
#X connect 30 0 31 0;
#X connect 32 0 34 0;
#X connect 33 0 35 1;
#X connect 34 0 35 0;
#X connect 34 1 33 0;
#X connect 35 0 36 0;
#X connect 37 0 12 0;
#X connect 37 1 15 0;
#X connect 37 2 18 0;
#X connect 37 3 24 0;
#X connect 37 4 32 0;
#X connect 37 5 52 0;
#X connect 38 0 17 1;
#X connect 39 0 24 1;
#X connect 39 0 32 1;
#X connect 41 0 12 1;
#X connect 41 0 15 1;
#X connect 42 0 46 0;
#X connect 43 0 42 1;
#X connect 43 0 45 1;
#X connect 44 0 42 0;
#X connect 44 1 45 0;
#X connect 45 0 47 0;
#X connect 48 0 1 0;
#X connect 48 1 8 0;
#X connect 48 2 49 0;
#X connect 48 3 10 0;
#X connect 49 0 50 0;
#X connect 51 0 58 0;
#X connect 51 1 54 0;
#X connect 52 0 44 0;
#X connect 52 1 57 0;
#X connect 53 0 54 2;
#X connect 53 0 58 2;
#X connect 54 0 59 0;
#X connect 55 0 51 0;
#X connect 55 1 54 1;
#X connect 55 1 58 1;
#X connect 56 0 55 0;
#X connect 57 0 56 0;
#X connect 58 0 60 0;
#X restore 94 167 pd Spin->spatOSC_message-mapper;
#X obj 243 59 grid grid1 100 0 20 100 0 20 0 0.05 0.05 10 10 286 98
;
#X text 271 41 source;
#X text 357 39 listener;
#N canvas 0 351 856 474 dynamic 0;
#X obj 40 36 inlet;
#X obj 102 38 inlet;
#X obj 283 43 inlet;
#X obj 345 45 inlet;
#X floatatom 43 164 5 0 0 0 - - -;
#X floatatom 82 164 5 0 0 0 - - -;
#X floatatom 121 164 5 0 0 0 - - -;
#N canvas 0 22 290 211 pack3f 0;
#X obj 79 103 pack f f f;
#X obj 99 73 t b f;
#X obj 144 71 t b f;
#X obj 63 44 inlet;
#X obj 110 41 inlet;
#X obj 162 45 inlet;
#X obj 80 137 outlet;
#X connect 0 0 6 0;
#X connect 1 0 0 0;
#X connect 1 1 0 1;
#X connect 2 0 0 0;
#X connect 2 1 0 2;
#X connect 3 0 0 0;
#X connect 4 0 1 0;
#X connect 5 0 2 0;
#X restore 43 184 pd pack3f;
#X floatatom 327 142 5 0 0 0 - - -;
#X floatatom 366 142 5 0 0 0 - - -;
#X floatatom 411 141 5 0 0 0 - - -;
#N canvas 0 22 290 211 pack3f 0;
#X obj 79 103 pack f f f;
#X obj 99 73 t b f;
#X obj 144 71 t b f;
#X obj 63 44 inlet;
#X obj 110 41 inlet;
#X obj 162 45 inlet;
#X obj 80 137 outlet;
#X connect 0 0 6 0;
#X connect 1 0 0 0;
#X connect 1 1 0 1;
#X connect 2 0 0 0;
#X connect 2 1 0 2;
#X connect 3 0 0 0;
#X connect 4 0 1 0;
#X connect 5 0 2 0;
#X restore 327 170 pd pack3f;
#X obj 488 33 inlet;
#X obj 308 360 s \$0-to-SPIN;
#X msg 42 221 /src-0 setTranslation \$1 \$2 \$3;
#X msg 326 231 /ear setTranslation \$1 \$2 \$3;
#X msg 512 117 /ear setOrientation 0 0 \$1;
#X obj 45 129 - 10;
#X obj 132 136 - 10;
#X obj 327 101 - 10;
#X obj 414 108 - 10;
#X connect 0 0 17 0;
#X connect 1 0 18 0;
#X connect 2 0 19 0;
#X connect 3 0 20 0;
#X connect 4 0 7 0;
#X connect 5 0 7 1;
#X connect 6 0 7 2;
#X connect 7 0 14 0;
#X connect 8 0 11 0;
#X connect 9 0 11 1;
#X connect 10 0 11 2;
#X connect 11 0 15 0;
#X connect 12 0 16 0;
#X connect 14 0 13 0;
#X connect 15 0 13 0;
#X connect 16 0 13 0;
#X connect 17 0 4 0;
#X connect 18 0 5 0;
#X connect 19 0 8 0;
#X connect 20 0 9 0;
#X restore 315 170 pd dynamic;
#X floatatom 393 169 5 0 0 1 orientation - -;
#X obj 349 59 grid grid1 100 0 20 100 0 20 0 0.05 0.05 10 10 398 127
;
#N canvas 81 340 726 273 debug 0;
#X obj -58 9 cnv 15 700 240 empty empty debug 4 12 0 14 -233017 -1
0;
#X msg -46 95 \; to_renderer-db ear.patch vis 1;
#X msg -47 137 \; to_renderer-db src-0-ear.conn.patch vis 1;
#X msg 218 58 \; to_renderer-db src-0.plugin.patch vis 1;
#X msg 216 100 \; to_renderer-db ear.plugin.patch vis 1;
#X msg 218 139 \; to_renderer-db src-0-ear.conn.plugin.patch vis 1
;
#X text -8 33 nodes;
#X text 276 35 plugins;
#X msg -46 53 \; to_renderer-db src-0.patch vis 1;
#X restore 13 695 pd debug;
#X obj 17 194 cnv 15 460 320 empty empty MESSAGES-->SPIN 4 12 0 16
-191407 -1 0;
#X obj 37 434 s \$0-to-SPIN;
#X msg 39 218 clear;
#X msg 99 341 /src-0-ear.conn setDistanceEffect \$1;
#X msg 138 369 /src-0-ear.conn setDopplerEffect \$1;
#X floatatom 103 368 5 0 0 0 - - -;
#X floatatom 66 339 5 0 0 0 - - -;
#X msg 135 397 /src-0 setPlugin testnoise~;
#X obj 55 241 bng 15 250 50 0 empty empty generate_scene 17 7 0 12
-262144 -1 -1;
#X msg 55 263 createNode src-0 SoundNode \, createNode ear Listener
\, /src-0 connect ear \, /src-0 setPlugin testone~ \, createNode src-0-shp
ShapeNode \, createNode ear-shp ShapeNode \, /src-0-shp setShape 1
\, /ear-shp setShape 2 \, /src-0-shp setParent src-0 \, /ear-shp setParent
ear;
#X msg 269 421 /src-0 setPlugin testone~;
#X msg 301 442 /src-0 setParam fq \$1;
#X floatatom 268 442 5 0 0 0 - - -;
#X msg 38 461 /src-0 setPlugin looper1~;
#X msg 38 485 /src-0 setParam filename ~/svn/ss_demo/sound/sheefa8.aif
;
#N canvas 885 96 448 357 readme 0;
#X text 30 250 written by Zack Settel \, spring 2011;
#X text 28 112 Not implemented: "Rolloff (directivity curves) \, "spread"
message \, listener type (and corresponding plugin) \, "active" message
;
#X text 25 21 This spin client generates and receives spin messages
for sound and listener nodes \, and provides a "basic level" of audio
rendering. Sound sources are assumed omnidirectional and a listener's
directivity is given by the audio renderer's defaults (based on output
format).;
#X text 25 174 Also not implemented: Connection messages for "thru"
\, rolloff and diffraction intensity;
#X restore 418 2 pd readme;
#X connect 2 0 3 0;
#X connect 3 0 1 0;
#X connect 6 0 10 0;
#X connect 7 0 9 0;
#X connect 9 0 8 0;
#X connect 10 0 8 0;
#X connect 11 0 8 0;
#X connect 12 0 8 0;
#X connect 13 0 14 0;
#X connect 14 0 8 0;
#X connect 18 0 21 0;
#X connect 18 1 21 1;
#X connect 22 0 21 4;
#X connect 23 0 21 2;
#X connect 23 1 21 3;
#X connect 27 0 26 0;
#X connect 28 0 26 0;
#X connect 29 0 26 0;
#X connect 30 0 29 0;
#X connect 31 0 28 0;
#X connect 32 0 26 0;
#X connect 33 0 34 0;
#X connect 34 0 26 0;
#X connect 35 0 26 0;
#X connect 36 0 26 0;
#X connect 37 0 36 0;
#X connect 38 0 26 0;
#X connect 39 0 26 0;
