#N canvas 1187 481 609 577 10;
#X obj 18 9 widget-spinConnect \$0;
#X obj 351 9 cnv 20 20 20 empty empty \$0=$zero 0 12 1 14 -262144 -66577
0;
#X obj 10 84 widget-AudioRenderer \$0;
#X obj 353 131 shell;
#X obj 353 93 loadbang;
#X msg 353 112 hostname -s;
#N canvas 257 375 797 488 create_buzzer 0;
#X obj 21 230 pack s s;
#X obj 33 164 t s b;
#X obj 94 60 t s s;
#X obj 93 16 inlet;
#X obj 180 457 outlet;
#X text 366 107 first \, create nodes:;
#X text 426 361 (SoundNode parameters);
#X text 47 308 (connect to user outputs);
#X text 409 216 (ShapeNode parameters);
#X msg 351 130 createNode \$1 SoundNode \, createNode \$1-shp ShapeNode
\, createNode \$1-text TextNode;
#X text 412 291 (Text label parameters);
#X msg 362 242 /\$1-text setParent \$1 \, /\$1-text setText \$1 \,
/\$1-text setTranslation 0 0 0.6 \, /\$1-text setBillboard 2 \, /\$1-text
setScale 2 2 2;
#X msg 361 184 /\$1-shp setParent \$1 \, /\$1-shp setShape 1 \, \$1-shp
setScale 0.5 0.5 0.5;
#X obj 74 207 anyreg \$0-userID;
#X msg 94 39 symbol buzzer;
#X msg 368 325 /\$1 setPlugin buzz~ \, /\$1 setSpread 0 \, /\$1 setRolloff
omni \, /\$1 setTranslation 0 0 1.5;
#X msg 20 289 /\$2-listener connectSource \$1;
#X connect 0 0 16 0;
#X connect 1 0 0 0;
#X connect 1 1 13 0;
#X connect 2 0 12 0;
#X connect 2 0 11 0;
#X connect 2 0 15 0;
#X connect 2 0 1 0;
#X connect 2 1 9 0;
#X connect 3 0 14 0;
#X connect 9 0 4 0;
#X connect 11 0 4 0;
#X connect 12 0 4 0;
#X connect 13 0 0 1;
#X connect 14 0 2 0;
#X connect 15 0 4 0;
#X connect 16 0 4 0;
#X restore 14 476 pd create_buzzer;
#X obj 13 457 bng 15 250 50 0 empty empty empty 17 7 0 10 -262144 -1
-1;
#X obj 14 496 s \$0-to-SPIN;
#X obj 353 152 s set-\$0-userID;
#X obj 21 391 s \$0-to-SPIN;
#X msg 295 518 createNode sndNode1 SoundNode \, createNode ear-st Listener
\, createNode ear-quad Listener \, /ear-quad setType listener-quad.conn~
\, /ear-quad setPlugin listener-quad~ \, /sndNode1 connect ear \, /sndNode1
connect ear-quad;
#X msg 20 252 createNode sndNode1 SoundNode \, createNode ear-st Listener
\, /ear setType listener-stereo.conn~ \, /sndNode1 connect ear;
#X connect 3 0 9 0;
#X connect 4 0 5 0;
#X connect 5 0 3 0;
#X connect 6 0 8 0;
#X connect 7 0 6 0;
#X connect 12 0 10 0;
