#N canvas 678 106 908 763 10;
#N canvas 628 227 802 673 to-azim-elev 0;
#X obj 52 515 expr acos($f1/$f3) * 180 / 3.1415 * $f2;
#X obj 333 376 expr sqrt($f1);
#X obj 333 348 + 0;
#X obj 88 323 * 0;
#X obj 353 286 * 0;
#X msg 470 515 0;
#X msg 243 275 -1;
#X msg 278 275 1;
#X obj 52 259 expr ($f1-0.5)/0.5;
#X obj 243 155 expr ($f1-0.5)/0.5;
#X obj 52 26 inlet;
#X obj 52 580 outlet;
#X obj 498 579 outlet;
#X obj 417 441 expr 90 - ($f1*90.0);
#X obj 470 489 moses 0;
#X obj 243 248 moses 0;
#X obj 52 289 t f f f;
#X obj 243 189 t f f f;
#X text 111 26 float x \, float y;
#X obj 333 403 t f f;
#X obj 52 109 unpack f f;
#X msg 52 71 \$2 \$1;
#X text 95 579 azim;
#X text 542 580 elev;
#X connect 0 0 11 0;
#X connect 1 0 19 0;
#X connect 2 0 1 0;
#X connect 3 0 2 0;
#X connect 4 0 2 1;
#X connect 5 0 12 0;
#X connect 6 0 0 1;
#X connect 7 0 0 1;
#X connect 8 0 16 0;
#X connect 9 0 17 0;
#X connect 10 0 21 0;
#X connect 13 0 14 0;
#X connect 14 0 5 0;
#X connect 14 1 12 0;
#X connect 15 0 6 0;
#X connect 15 1 7 0;
#X connect 16 0 0 0;
#X connect 16 1 3 0;
#X connect 16 2 3 1;
#X connect 17 0 15 0;
#X connect 17 1 4 0;
#X connect 17 2 4 1;
#X connect 19 0 0 2;
#X connect 19 1 13 0;
#X connect 20 0 8 0;
#X connect 20 1 9 0;
#X connect 21 0 20 0;
#X restore 512 296 pd to-azim-elev;
#X obj 539 230 pack f f;
#X obj 495 70 grid grid1 144 0 1 144 0 1 0 0.001 0.001 10 10 477 52
;
#X floatatom 495 232 5 0 0 0 - - -;
#X floatatom 632 227 5 0 0 0 - - -;
#X obj 9 241 cnv 15 110 60 empty empty INPUT_SIGNAL: 10 15 1 12 -233017
-66577 0;
#X obj 350 65 vradio 20 1 0 4 empty empty ch 2 -8 1 10 -262130 -1 -1
0;
#X obj 181 191 OSCparse /1;
#X obj 181 147 OSCparse /core;
#X text 74 125 route namespace:;
#X text 32 147 route core descriptors:;
#X text 87 192 route channel:;
#X obj 38 491 delwrite~ \$0-dop 1500;
#X obj 38 272 noise~;
#X text 375 66 1;
#X obj 350 149 + 1;
#X text 375 86 2;
#X text 375 107 3;
#X text 375 127 4;
#X obj 38 578 vd~ \$0-dop;
#X obj 38 556 line~;
#X obj 38 533 pack 0 80;
#X floatatom 186 317 5 0 0 1 dB - -;
#X obj 168 250 vsl 15 64 -99 18 0 0 empty empty empty 0 -9 0 10 -262144
-1 -1 4892 1;
#X obj 52 370 line~;
#X obj 38 390 *~;
#N canvas 407 204 421 611 linedrive 0;
#X obj 180 53 inlet;
#X obj 126 147 bang;
#X obj 159 444 outlet;
#X msg 51 325 0;
#X obj 130 321 pow;
#X obj 116 263 t b f;
#X obj 51 210 moses 1;
#X text 231 53 linear zscale;
#X text 231 445 exp. zscale;
#X text 23 15 linedrivee:;
#X text 102 16 linear to nonlinear conversion;
#X text 24 480 based on Mildred Puckette's "linedrive" ISPW object
;
#X text 24 494 xjimmies lib. z. settel/jm dumas 2003-2007;
#X obj 130 367 * 7.94328;
#X obj 51 121 moses 145;
#X obj 126 174 f 145;
#X obj 116 238 - 145;
#X obj 116 289 f 1.12202;
#X connect 0 0 14 0;
#X connect 1 0 15 0;
#X connect 3 0 2 0;
#X connect 4 0 13 0;
#X connect 5 0 17 0;
#X connect 5 1 4 1;
#X connect 6 0 3 0;
#X connect 6 1 16 0;
#X connect 13 0 2 0;
#X connect 14 0 6 0;
#X connect 14 1 1 0;
#X connect 15 0 6 0;
#X connect 16 0 5 0;
#X connect 17 0 4 0;
#X restore 168 359 pd linedrive;
#X obj 52 349 pack 0 30;
#X obj 168 337 + 127;
#X text 159 248 _____0dB;
#X text 494 49 (when no OSC incoming);
#X text 481 34 Dome-like panning interface:;
#X msg 445 451 define_loudspeakers 2 -45 45 -135 135;
#X obj 189 410 tgl 15 0 empty empty empty 17 7 0 10 -262144 -1 -1 1
1;
#X obj 105 649 *~;
#X obj 120 558 line~;
#X obj 120 537 pack 0 30;
#X obj 165 649 *~;
#X obj 180 558 line~;
#X obj 180 537 pack 0 30;
#X obj 225 649 *~;
#X obj 240 558 line~;
#X obj 240 537 pack 0 30;
#X obj 285 649 *~;
#X obj 300 558 line~;
#X obj 300 537 pack 0 30;
#X obj 287 247 s \$0-delay;
#X obj 38 512 r \$0-delay;
#X obj 291 347 expr ($f1+360) % 360;
#X obj 444 347 expr ($f1+360) % 360;
#X obj 233 462 vbap 0 0 30;
#X floatatom 291 369 5 0 0 1 azim - -;
#X floatatom 444 366 5 0 0 1 elev - -;
#X obj 234 293 * 57.2958;
#X obj 306 293 * 57.2958;
#X obj 234 270 unpack 0 0 0;
#X text 599 348 <- VBAP requires degrees in range [0 \, 360];
#X text 62 167 listen to sources:;
#X obj 64 27 hradio 25 1 0 2 \$0-switch \$0-switch-set OSC_______GUI
-40 20 1 16 -261682 -1 -1 0;
#X obj 512 276 spigot;
#X obj 234 65 r \$0-switch;
#X obj 545 256 r \$0-switch;
#X obj 234 85 == 0;
#X obj 181 217 OSCrouter /gainDB /aed /delay;
#X text 21 6 Choose control source:;
#X msg 396 515 define_loudspeakers 3 -45 45 -135 135 32 5 94 34 34
11;
#X text 489 423 2D \, 4 speakers in corners;
#X obj 421 401 loadbang;
#X obj 233 486 route 0 1 2 3;
#X obj 155 697 dac~ 1 2 3 4;
#X obj 181 105 spigot 1;
#X obj 189 432 metro 30;
#X msg 378 494 define_loudspeakers 3 -45 0 45 0 0 45 180 45;
#X obj 181 39 OSCrx 18032;
#X obj 419 421 t b b;
#X obj 181 169 OSCparse /connection;
#X symbolatom 347 198 22 0 0 0 - - -;
#X obj 350 170 makefilename Source0%d->Listener;
#X obj 181 125 OSCparse /spatosc;
#X floatatom 396 272 5 0 0 0 - - -;
#X obj 76 306 osc~ 440;
#X connect 0 0 48 0;
#X connect 0 1 49 0;
#X connect 1 0 59 0;
#X connect 2 0 1 0;
#X connect 2 0 3 0;
#X connect 2 1 1 1;
#X connect 2 1 4 0;
#X connect 6 0 15 0;
#X connect 7 0 63 0;
#X connect 8 0 75 0;
#X connect 13 0 25 0;
#X connect 15 0 77 0;
#X connect 19 0 34 0;
#X connect 19 0 37 0;
#X connect 19 0 40 0;
#X connect 19 0 43 0;
#X connect 20 0 19 0;
#X connect 21 0 20 0;
#X connect 23 0 22 0;
#X connect 23 0 28 0;
#X connect 24 0 25 1;
#X connect 25 0 12 0;
#X connect 26 0 27 0;
#X connect 27 0 24 0;
#X connect 28 0 26 0;
#X connect 32 0 50 0;
#X connect 33 0 71 0;
#X connect 34 0 69 0;
#X connect 35 0 34 1;
#X connect 36 0 35 0;
#X connect 37 0 69 1;
#X connect 38 0 37 1;
#X connect 39 0 38 0;
#X connect 40 0 69 2;
#X connect 41 0 40 1;
#X connect 42 0 41 0;
#X connect 43 0 69 3;
#X connect 44 0 43 1;
#X connect 45 0 44 0;
#X connect 47 0 21 0;
#X connect 48 0 51 0;
#X connect 48 0 50 1;
#X connect 49 0 52 0;
#X connect 49 0 50 2;
#X connect 50 0 68 0;
#X connect 53 0 48 0;
#X connect 54 0 49 0;
#X connect 55 0 53 0;
#X connect 55 1 54 0;
#X connect 59 0 0 0;
#X connect 60 0 62 0;
#X connect 61 0 59 1;
#X connect 62 0 70 1;
#X connect 63 0 23 0;
#X connect 63 1 55 0;
#X connect 63 2 46 0;
#X connect 63 2 79 0;
#X connect 67 0 74 0;
#X connect 68 0 36 0;
#X connect 68 1 39 0;
#X connect 68 2 42 0;
#X connect 68 3 45 0;
#X connect 70 0 78 0;
#X connect 71 0 50 0;
#X connect 73 0 70 0;
#X connect 74 0 33 0;
#X connect 74 1 32 0;
#X connect 75 0 7 0;
#X connect 77 0 7 1;
#X connect 77 0 76 0;
#X connect 78 0 8 0;
#X connect 80 0 25 0;
