#N canvas 498 24 883 768 10;
#N canvas 628 428 802 673 to-azim-elev 0;
#X obj 52 515 expr acos($f1/$f3) * 180 / 3.1415 * $f2;
#X obj 333 376 expr sqrt($f1);
#X obj 333 348 + 0;
#X obj 88 323 * 0;
#X obj 353 286 * 0;
#X msg 470 515 0;
#X msg 243 275 -1;
#X msg 278 275 1;
#X obj 52 259 expr ($f1-0.5)/0.5;
#X obj 243 155 expr ($f1-0.5)/0.5;
#X obj 52 26 inlet;
#X obj 52 580 outlet;
#X obj 498 579 outlet;
#X obj 417 441 expr 90 - ($f1*90.0);
#X obj 470 489 moses 0;
#X obj 243 248 moses 0;
#X obj 52 289 t f f f;
#X obj 243 189 t f f f;
#X text 111 26 float x \, float y;
#X obj 333 403 t f f;
#X obj 52 109 unpack f f;
#X msg 52 71 \$2 \$1;
#X connect 0 0 11 0;
#X connect 1 0 19 0;
#X connect 2 0 1 0;
#X connect 3 0 2 0;
#X connect 4 0 2 1;
#X connect 5 0 12 0;
#X connect 6 0 0 1;
#X connect 7 0 0 1;
#X connect 8 0 16 0;
#X connect 9 0 17 0;
#X connect 10 0 21 0;
#X connect 13 0 14 0;
#X connect 14 0 5 0;
#X connect 14 1 12 0;
#X connect 15 0 6 0;
#X connect 15 1 7 0;
#X connect 16 0 0 0;
#X connect 16 1 3 0;
#X connect 16 2 3 1;
#X connect 17 0 15 0;
#X connect 17 1 4 0;
#X connect 17 2 4 1;
#X connect 19 0 0 2;
#X connect 19 1 13 0;
#X connect 20 0 8 0;
#X connect 20 1 9 0;
#X connect 21 0 20 0;
#X restore 474 249 pd to-azim-elev;
#X obj 474 227 pack f f;
#X obj 430 67 grid grid1 144 0 1 144 0 1 0 0.001 0.001 10 10 489 118
;
#X floatatom 430 229 5 0 0 0 - - -;
#X floatatom 567 224 5 0 0 0 - - -;
#X obj 9 241 cnv 15 110 60 empty empty INPUT_SIGNAL: 10 15 1 12 -233017
-66577 0;
#X obj 181 117 OSCrx 9999;
#X obj 181 147 OSCparse /spatosc;
#X obj 323 89 vradio 15 1 0 4 empty empty ch 2 -8 1 10 -262144 -1 -1
0;
#X obj 323 174 OSCsymbol;
#X obj 181 191 OSCparse /1;
#X obj 181 169 OSCparse /core;
#X text 28 36 For now \, assume a very SPATDIF-like protocol:;
#X obj 181 217 OSCrouter /gain /aed /delay;
#X text 74 147 route namespace:;
#X text 32 169 route core descriptors:;
#X text 87 192 route channel:;
#X obj 38 491 delwrite~ \$0-dop 1500;
#X obj 38 272 noise~;
#X text 342 88 1;
#X obj 323 153 + 1;
#X text 342 103 2;
#X text 342 118 3;
#X text 342 133 4;
#X obj 38 578 vd~ \$0-dop;
#X obj 38 556 line~;
#X obj 38 533 pack 0 80;
#X floatatom 186 317 5 0 0 1 dB - -;
#X obj 168 250 vsl 15 64 -99 18 0 0 empty empty empty 0 -9 0 10 -262144
-1 -1 5300 1;
#X obj 52 370 line~;
#X obj 38 390 *~;
#N canvas 407 204 421 611 linedrive 0;
#X obj 180 53 inlet;
#X obj 126 147 bang;
#X obj 159 444 outlet;
#X msg 51 325 0;
#X obj 130 321 pow;
#X obj 116 263 t b f;
#X obj 51 210 moses 1;
#X text 231 53 linear zscale;
#X text 231 445 exp. zscale;
#X text 23 15 linedrivee:;
#X text 102 16 linear to nonlinear conversion;
#X text 24 480 based on Mildred Puckette's "linedrive" ISPW object
;
#X text 24 494 xjimmies lib. z. settel/jm dumas 2003-2007;
#X obj 130 367 * 7.94328;
#X obj 51 121 moses 145;
#X obj 126 174 f 145;
#X obj 116 238 - 145;
#X obj 116 289 f 1.12202;
#X connect 0 0 14 0;
#X connect 1 0 15 0;
#X connect 3 0 2 0;
#X connect 4 0 13 0;
#X connect 5 0 17 0;
#X connect 5 1 4 1;
#X connect 6 0 3 0;
#X connect 6 1 16 0;
#X connect 13 0 2 0;
#X connect 14 0 6 0;
#X connect 14 1 1 0;
#X connect 15 0 6 0;
#X connect 16 0 5 0;
#X connect 17 0 4 0;
#X restore 168 359 pd linedrive;
#X obj 52 349 pack 0 30;
#X obj 168 337 + 127;
#X text 159 248 _____0dB;
#X obj 356 336 unpack 0 0 0;
#X obj 490 274 pack 0 0 1;
#X text 429 46 (when no OSC incoming);
#X text 416 31 Dome-like panning interface:;
#X msg 438 451 define_loudspeakers 2 -45 45 -135 135;
#X msg 464 471 define_loudspeakers 3 -45 45 -135 135 32 5 94 34 34
11;
#X obj 158 445 metro 100;
#X obj 158 423 tgl 15 0 empty empty empty 17 7 0 10 -262144 -1 -1 0
1;
#X obj 158 402 loadbang;
#X obj 235 697 dac~ 1 2 3 4 5 6 7 8;
#X obj 105 649 *~;
#X obj 120 558 line~;
#X obj 120 537 pack 0 30;
#X obj 233 486 route 0 1 2 3 4 5 6 7;
#X obj 165 649 *~;
#X obj 180 558 line~;
#X obj 180 537 pack 0 30;
#X obj 225 649 *~;
#X obj 240 558 line~;
#X obj 240 537 pack 0 30;
#X obj 285 649 *~;
#X obj 300 558 line~;
#X obj 300 537 pack 0 30;
#X obj 345 649 *~;
#X obj 360 558 line~;
#X obj 360 537 pack 0 30;
#X obj 405 649 *~;
#X obj 420 558 line~;
#X obj 420 537 pack 0 30;
#X obj 465 649 *~;
#X obj 480 558 line~;
#X obj 480 537 pack 0 30;
#X obj 525 649 *~;
#X obj 540 558 line~;
#X obj 540 537 pack 0 30;
#X obj 287 247 s \$0-delay;
#X obj 38 512 r \$0-delay;
#X obj 356 414 expr ($f1+360) % 360;
#X obj 390 364 expr ($f1+360) % 360;
#X text 525 375 <- VBAP requires range [0 \, 360];
#X obj 233 462 vbap 0 0 30;
#X floatatom 356 439 5 0 0 1 azim - -;
#X floatatom 390 386 5 0 0 1 elev - -;
#X connect 0 0 36 0;
#X connect 0 1 36 1;
#X connect 1 0 0 0;
#X connect 2 0 1 0;
#X connect 2 0 3 0;
#X connect 2 1 1 1;
#X connect 2 1 4 0;
#X connect 6 0 7 0;
#X connect 7 0 11 0;
#X connect 8 0 20 0;
#X connect 9 0 10 1;
#X connect 10 0 13 0;
#X connect 11 0 10 0;
#X connect 13 0 28 0;
#X connect 13 1 35 0;
#X connect 13 2 70 0;
#X connect 18 0 30 0;
#X connect 20 0 9 0;
#X connect 24 0 45 0;
#X connect 24 0 49 0;
#X connect 24 0 52 0;
#X connect 24 0 55 0;
#X connect 24 0 58 0;
#X connect 24 0 61 0;
#X connect 24 0 64 0;
#X connect 24 0 67 0;
#X connect 25 0 24 0;
#X connect 26 0 25 0;
#X connect 28 0 27 0;
#X connect 28 0 33 0;
#X connect 29 0 30 1;
#X connect 30 0 17 0;
#X connect 31 0 32 0;
#X connect 32 0 29 0;
#X connect 33 0 31 0;
#X connect 35 0 72 0;
#X connect 35 1 73 0;
#X connect 36 0 35 0;
#X connect 41 0 75 0;
#X connect 42 0 41 0;
#X connect 43 0 42 0;
#X connect 45 0 44 0;
#X connect 46 0 45 1;
#X connect 47 0 46 0;
#X connect 48 0 47 0;
#X connect 48 1 51 0;
#X connect 48 2 54 0;
#X connect 48 4 57 0;
#X connect 48 5 60 0;
#X connect 48 6 63 0;
#X connect 48 7 66 0;
#X connect 48 8 69 0;
#X connect 49 0 44 1;
#X connect 50 0 49 1;
#X connect 51 0 50 0;
#X connect 52 0 44 2;
#X connect 53 0 52 1;
#X connect 54 0 53 0;
#X connect 55 0 44 3;
#X connect 56 0 55 1;
#X connect 57 0 56 0;
#X connect 58 0 44 4;
#X connect 59 0 58 1;
#X connect 60 0 59 0;
#X connect 61 0 44 5;
#X connect 62 0 61 1;
#X connect 63 0 62 0;
#X connect 64 0 44 6;
#X connect 65 0 64 1;
#X connect 66 0 65 0;
#X connect 67 0 44 7;
#X connect 68 0 67 1;
#X connect 69 0 68 0;
#X connect 71 0 26 0;
#X connect 72 0 76 0;
#X connect 73 0 77 0;
#X connect 75 0 48 0;
