#N canvas 171 25 883 655 10;
#X obj 24 204 delwrite~ \$0-dop 1500;
#X obj 75 403 vd~ \$0-dop;
#X obj 75 381 line~;
#X obj 75 358 pack 0 80;
#X obj 142 474 *~;
#X obj 157 383 line~;
#X obj 157 362 pack 0 30;
#X obj 270 311 route 0 1 2 3 4 5 6 7;
#X obj 202 474 *~;
#X obj 217 383 line~;
#X obj 217 362 pack 0 30;
#X obj 262 474 *~;
#X obj 277 383 line~;
#X obj 277 362 pack 0 30;
#X obj 322 474 *~;
#X obj 337 383 line~;
#X obj 337 362 pack 0 30;
#X obj 382 474 *~;
#X obj 397 383 line~;
#X obj 397 362 pack 0 30;
#X obj 442 474 *~;
#X obj 457 383 line~;
#X obj 457 362 pack 0 30;
#X obj 502 474 *~;
#X obj 517 383 line~;
#X obj 517 362 pack 0 30;
#X obj 562 474 *~;
#X obj 577 383 line~;
#X obj 577 362 pack 0 30;
#X msg 418 233 define_loudspeakers 2 0 45 90 135 180 225 270 315;
#X obj 21 22 inlet~ sound-source;
#X obj 418 212 loadbang;
#X obj 37 141 line~;
#X obj 23 161 *~;
#N canvas 407 204 421 611 linedrive 0;
#X obj 180 53 inlet;
#X obj 126 147 bang;
#X obj 159 444 outlet;
#X msg 51 325 0;
#X obj 130 321 pow;
#X obj 116 263 t b f;
#X obj 51 210 moses 1;
#X text 231 53 linear zscale;
#X text 231 445 exp. zscale;
#X text 23 15 linedrivee:;
#X text 102 16 linear to nonlinear conversion;
#X text 24 480 based on Mildred Puckette's "linedrive" ISPW object
;
#X text 24 494 xjimmies lib. z. settel/jm dumas 2003-2007;
#X obj 130 367 * 7.94328;
#X obj 51 121 moses 145;
#X obj 126 174 f 145;
#X obj 116 238 - 145;
#X obj 116 289 f 1.12202;
#X connect 0 0 14 0;
#X connect 1 0 15 0;
#X connect 3 0 2 0;
#X connect 4 0 13 0;
#X connect 5 0 17 0;
#X connect 5 1 4 1;
#X connect 6 0 3 0;
#X connect 6 1 16 0;
#X connect 13 0 2 0;
#X connect 14 0 6 0;
#X connect 14 1 1 0;
#X connect 15 0 6 0;
#X connect 16 0 5 0;
#X connect 17 0 4 0;
#X restore 37 99 pd linedrive;
#X obj 37 120 pack 0 30;
#X obj 37 77 + 127;
#X obj 364 138 unpack 0 0 0;
#X obj 409 168 % 360;
#X text 445 170 [vbap] requires range [0 \, 360];
#X obj 364 167 % 360;
#X obj 248 246 metro 30;
#X text 477 16 spread: float [0 \, 100];
#X text 480 34 enable: 0 or 1;
#X text 482 49 delay: float ms;
#X text 487 67 gain: dB (0 means unit gain);
#X obj 145 514 outlet~;
#X obj 201 513 outlet~;
#X obj 255 514 outlet~;
#X obj 311 513 outlet~;
#X obj 381 511 outlet~;
#X obj 437 510 outlet~;
#X obj 491 511 outlet~;
#X obj 547 510 outlet~;
#X text 492 82 spread: float [0 \, 100];
#X text 495 121 Speakers are in a circle. #0 is north and they go clockwise.
;
#X obj 275 -59 inlet osc;
#X obj 275 -13 OSCparse /\$1;
#X obj 248 204 loadbang;
#X obj 248 226 tgl 15 0 empty empty empty 17 7 0 10 -258113 -1 -1 1
1;
#X text 494 101 Dependencies: [vbap] \, OSCrxtx;
#X obj 355 205 pack 0 0;
#X obj 270 287 vbap 0 0;
#X msg 193 109 1 0;
#X obj 275 12 OSCrouter /gainDB /aed /delay;
#X obj 275 -35 OSCparse /source;
#X obj 376 283 print to_vbap_\$1;
#X obj 143 324 print from_vbpa;
#X connect 1 0 4 0;
#X connect 1 0 8 0;
#X connect 1 0 11 0;
#X connect 1 0 14 0;
#X connect 1 0 17 0;
#X connect 1 0 20 0;
#X connect 1 0 23 0;
#X connect 1 0 26 0;
#X connect 2 0 1 0;
#X connect 3 0 2 0;
#X connect 4 0 46 0;
#X connect 5 0 4 1;
#X connect 6 0 5 0;
#X connect 7 0 6 0;
#X connect 7 1 10 0;
#X connect 7 2 13 0;
#X connect 7 4 16 0;
#X connect 7 5 19 0;
#X connect 7 6 22 0;
#X connect 7 7 25 0;
#X connect 7 8 28 0;
#X connect 8 0 47 0;
#X connect 9 0 8 1;
#X connect 10 0 9 0;
#X connect 11 0 48 0;
#X connect 12 0 11 1;
#X connect 13 0 12 0;
#X connect 14 0 49 0;
#X connect 15 0 14 1;
#X connect 16 0 15 0;
#X connect 17 0 50 0;
#X connect 18 0 17 1;
#X connect 19 0 18 0;
#X connect 20 0 51 0;
#X connect 21 0 20 1;
#X connect 22 0 21 0;
#X connect 23 0 52 0;
#X connect 24 0 23 1;
#X connect 25 0 24 0;
#X connect 26 0 53 0;
#X connect 27 0 26 1;
#X connect 28 0 27 0;
#X connect 29 0 62 0;
#X connect 30 0 33 0;
#X connect 31 0 29 0;
#X connect 32 0 33 1;
#X connect 33 0 0 0;
#X connect 34 0 35 0;
#X connect 35 0 32 0;
#X connect 36 0 34 0;
#X connect 37 0 40 0;
#X connect 37 1 38 0;
#X connect 38 0 61 1;
#X connect 38 0 62 2;
#X connect 40 0 61 0;
#X connect 40 0 62 1;
#X connect 41 0 62 0;
#X connect 56 0 65 0;
#X connect 57 0 64 0;
#X connect 58 0 59 0;
#X connect 59 0 41 0;
#X connect 61 0 66 0;
#X connect 62 0 7 0;
#X connect 62 0 67 0;
#X connect 63 0 62 0;
#X connect 64 0 36 0;
#X connect 64 1 37 0;
#X connect 64 2 3 0;
#X connect 65 0 57 0;
