#N canvas 238 272 744 408 10;
#X obj 161 55 OSCparse /spatosc;
#X obj 161 77 OSCparse /core;
#X obj 27 177 noise~;
#X obj 28 203 bp~ 440 10;
#X obj 206 180 noise~;
#X obj 206 207 bp~ 880 10;
#X obj 352 180 noise~;
#X obj 352 207 bp~ 1760 10;
#X obj 160 382 dac~ 1 2 3 4 5 6 7 8;
#X obj 30 334 *~;
#X obj 90 334 *~;
#X obj 150 334 *~;
#X obj 210 334 *~;
#X obj 270 334 *~;
#X obj 330 334 *~;
#X obj 390 334 *~;
#X obj 450 334 *~;
#X obj 574 289 line~;
#X obj 574 211 vsl 15 50 0 1 0 0 empty empty empty 0 -9 0 10 -258113
-1 -1 1225 1;
#X msg 574 268 \$1 30;
#X obj 353 232 spatosc.vbap.8~ 2;
#X text 301 145 Speakers are in a circle. #0 is north and they go clockwise.
;
#X text 300 125 Dependencies: [vbap] \, OSCrxtx;
#X obj 585 24 loadbang;
#X obj 583 105 send pd;
#X obj 584 46 tgl 30 0 empty empty empty 17 7 0 10 -258113 -1 -1 1
1;
#X msg 584 82 dsp \$1;
#X msg 342 40 /\$1/aed 0 0 0;
#X msg 375 16 0 \, 1 \, 2;
#X obj 27 230 spatosc.vbap.8~ 0;
#X obj 206 233 spatosc.vbap.8~ 1;
#X obj 57 72 spigot;
#X obj 94 33 tgl 30 0 empty empty empty 17 7 0 10 -258113 -1 -1 1 1
;
#X obj 57 93 print OSC;
#X obj 161 25 OSCrx 18032;
#X msg 574 189 0.25;
#X obj 574 169 loadbang;
#X connect 0 0 1 0;
#X connect 1 0 20 1;
#X connect 1 0 29 1;
#X connect 1 0 30 1;
#X connect 2 0 3 0;
#X connect 3 0 29 0;
#X connect 4 0 5 0;
#X connect 5 0 30 0;
#X connect 6 0 7 0;
#X connect 7 0 20 0;
#X connect 9 0 8 0;
#X connect 10 0 8 1;
#X connect 11 0 8 2;
#X connect 12 0 8 3;
#X connect 13 0 8 4;
#X connect 14 0 8 5;
#X connect 15 0 8 6;
#X connect 16 0 8 7;
#X connect 17 0 16 1;
#X connect 17 0 15 1;
#X connect 17 0 14 1;
#X connect 17 0 13 1;
#X connect 17 0 12 1;
#X connect 17 0 11 1;
#X connect 17 0 10 1;
#X connect 17 0 9 1;
#X connect 18 0 19 0;
#X connect 19 0 17 0;
#X connect 20 0 9 0;
#X connect 20 1 10 0;
#X connect 20 2 11 0;
#X connect 20 3 12 0;
#X connect 20 4 13 0;
#X connect 20 5 14 0;
#X connect 20 6 15 0;
#X connect 20 7 16 0;
#X connect 23 0 25 0;
#X connect 25 0 26 0;
#X connect 26 0 24 0;
#X connect 27 0 20 1;
#X connect 27 0 29 1;
#X connect 27 0 30 1;
#X connect 28 0 27 0;
#X connect 29 0 9 0;
#X connect 29 1 10 0;
#X connect 29 2 11 0;
#X connect 29 3 12 0;
#X connect 29 4 13 0;
#X connect 29 5 14 0;
#X connect 29 6 15 0;
#X connect 29 7 16 0;
#X connect 30 0 9 0;
#X connect 30 1 10 0;
#X connect 30 2 11 0;
#X connect 30 3 12 0;
#X connect 30 4 13 0;
#X connect 30 5 14 0;
#X connect 30 6 15 0;
#X connect 30 7 16 0;
#X connect 31 0 33 0;
#X connect 32 0 31 1;
#X connect 34 0 0 0;
#X connect 34 0 31 0;
#X connect 35 0 18 0;
#X connect 36 0 35 0;
